<svg xmlns="http://www.w3.org/2000/svg" width="24" height="24" viewBox="0 0 24 24" fill="none"><path d="M3 7.2V10.2C3 11.1941 3.80589 12 4.8 12C5.46274 12 6 12.5373 6 13.2V19C6 20.1046 6.89543 21 8 21C9.10457 21 10 20.1046 10 19V5.8C10 4.2536 8.7464 3 7.2 3C4.8804 3 3 4.8804 3 7.2Z" stroke-width="2" stroke-linejoin="round" stroke="#000000" /><path d="M21 7.2V10.2C21 11.1941 20.1941 12 19.2 12C18.5373 12 18 12.5373 18 13.2V19C18 20.1046 17.1046 21 16 21C14.8954 21 14 20.1046 14 19V5.8C14 4.2536 15.2536 3 16.8 3C19.1196 3 21 4.8804 21 7.2Z" stroke-width="2" stroke-linejoin="round" stroke="#000000" /></svg>