<svg xmlns="http://www.w3.org/2000/svg" width="24" height="24" viewBox="0 0 24 24" fill="none"><path d="M6.136 18.1741L20.6295 7.07754C21.1813 6.65508 20.9987 5.78185 20.3239 5.61578L18.0312 5.05156C16.1377 4.58557 14.1422 5.21306 12.8562 6.67892L10.763 9.06471L6.9753 8.16987L6.97529 8.16987C6.34713 8.02147 6.03304 7.94726 5.72862 7.96887C5.45917 7.988 5.19639 8.06151 4.95613 8.18496C4.68468 8.32445 4.45469 8.55085 3.9947 9.00365L3.492 9.4985L8.33933 12.535L6.136 14.7039H4.29916C3.6401 14.7039 3.31057 14.7039 3.16847 14.8302C3.04535 14.9397 2.98407 15.1028 3.00463 15.2663C3.02837 15.4549 3.27636 15.6719 3.77235 16.1059L6.136 18.1741Z" stroke-width="2" stroke-linecap="round" stroke-linejoin="round" stroke="#000000" /><path d="M15.0602 15.1996L14.6351 18.3732L13.3601 19.1666L12.2661 17.4649" stroke-width="2" stroke-linecap="round" stroke-linejoin="round" stroke="#000000" /></svg>