<svg xmlns="http://www.w3.org/2000/svg" width="24" height="24" viewBox="0 0 24 24" fill="none"><path d="M10.8686 16.1314L9.73137 17.2686C8.87462 18.1254 8.44624 18.5538 8.4173 18.9215C8.39218 19.2407 8.52136 19.5525 8.76477 19.7604C9.04529 20 9.65111 20 10.8627 20H13.1373C14.3489 20 14.9547 20 15.2352 19.7604C15.4786 19.5525 15.6078 19.2407 15.5827 18.9215C15.5538 18.5538 15.1254 18.1254 14.2686 17.2686L14.2686 17.2686L13.1314 16.1314C12.7354 15.7354 12.5373 15.5373 12.309 15.4632C12.1082 15.3979 11.8918 15.3979 11.691 15.4632C11.4627 15.5373 11.2646 15.7354 10.8686 16.1314Z" stroke-width="2" stroke-linecap="round" stroke-linejoin="round" stroke="#000000" /><path d="M5 17.8174C4.87081 17.7783 4.75133 17.7307 4.63803 17.673C4.07354 17.3854 3.6146 16.9265 3.32698 16.362C3 15.7202 3 14.8802 3 13.2V8.8C3 7.11984 3 6.27976 3.32698 5.63803C3.6146 5.07354 4.07354 4.6146 4.63803 4.32698C5.27976 4 6.11984 4 7.8 4H16.2C17.8802 4 18.7202 4 19.362 4.32698C19.9265 4.6146 20.3854 5.07354 20.673 5.63803C21 6.27976 21 7.11984 21 8.8V13.2C21 14.8802 21 15.7202 20.673 16.362C20.3854 16.9265 19.9265 17.3854 19.362 17.673C19.2487 17.7307 19.1292 17.7783 19 17.8174" stroke-width="2" stroke-linecap="round" stroke-linejoin="round" stroke="#000000" /></svg>