<svg xmlns="http://www.w3.org/2000/svg" width="24" height="24" viewBox="0 0 24 24" fill="none"><path d="M19 10H5C5 6.13401 8.13401 3 12 3C15.866 3 19 6.13401 19 10Z" stroke-width="2" stroke-linejoin="round" stroke="#000000" /><path d="M16.5 4L17.25 3" stroke-width="2" stroke-linecap="round" stroke="#000000" /><path d="M7.5 4L6.75 3" stroke-width="2" stroke-linecap="round" stroke="#000000" /><path d="M9.0001 7H9" stroke-width="2" stroke-linecap="round" stroke-linejoin="round" stroke="#000000" /><path d="M15.0001 7H15" stroke-width="2" stroke-linecap="round" stroke-linejoin="round" stroke="#000000" /><path d="M6 14H18V17.8C18 18.9201 18 19.4802 17.782 19.908C17.5903 20.2843 17.2843 20.5903 16.908 20.782C16.4802 21 15.9201 21 14.8 21H9.2C8.07989 21 7.51984 21 7.09202 20.782C6.71569 20.5903 6.40973 20.2843 6.21799 19.908C6 19.4802 6 18.9201 6 17.8V14Z" stroke-width="2" stroke="#000000" /><path d="M2 16.5C2 15.1193 3.11929 14 4.5 14H6V17C6 18.1046 5.10457 19 4 19C2.89543 19 2 18.1046 2 17V16.5Z" stroke-width="2" stroke="#000000" /><path d="M18 14H19.5C20.8807 14 22 15.1193 22 16.5V17C22 18.1046 21.1046 19 20 19C18.8954 19 18 18.1046 18 17V14Z" stroke-width="2" stroke="#000000" /></svg>