<svg xmlns="http://www.w3.org/2000/svg" width="24" height="24" viewBox="0 0 24 24" fill="none"><path d="M4 9H20V15.2C20 16.8802 20 17.7202 19.673 18.362C19.3854 18.9265 18.9265 19.3854 18.362 19.673C17.7202 20 16.8802 20 15.2 20H8.8C7.11984 20 6.27976 20 5.63803 19.673C5.07354 19.3854 4.6146 18.9265 4.32698 18.362C4 17.7202 4 16.8802 4 15.2V9Z" stroke-width="2" stroke="#000000" /><path d="M10 13H14" stroke-width="2" stroke-linecap="round" stroke="#000000" /><path d="M3 7.2C3 6.0799 3 5.51984 3.21799 5.09202C3.40973 4.71569 3.71569 4.40973 4.09202 4.21799C4.51984 4 5.0799 4 6.2 4H17.8C18.9201 4 19.4802 4 19.908 4.21799C20.2843 4.40973 20.5903 4.71569 20.782 5.09202C21 5.51984 21 6.07989 21 7.2V7.4C21 7.96005 21 8.24008 20.891 8.45399C20.7951 8.64215 20.6422 8.79513 20.454 8.89101C20.2401 9 19.9601 9 19.4 9H4.6C4.03995 9 3.75992 9 3.54601 8.89101C3.35785 8.79513 3.20487 8.64215 3.10899 8.45399C3 8.24008 3 7.96005 3 7.4V7.2Z" stroke-width="2" stroke="#000000" /></svg>