<svg xmlns="http://www.w3.org/2000/svg" width="24" height="24" viewBox="0 0 24 24" fill="none"><path d="M15.8114 8.4C15.8114 9.59414 15.772 11.5 15.772 12.9C15.772 14.1417 15.79 16.7409 17.9914 16.9466C22.0799 16.9466 21.0378 9.06468 20.361 7.05337C19.8445 5.51862 18.6288 4.31431 17.0794 3.80273C13.8379 2.73242 10.3334 2.73242 7.09196 3.80273C5.5426 4.31431 4.32682 5.51862 3.81037 7.05337C2.72988 10.2643 2.72988 13.7357 3.81037 16.9466C4.32682 18.4814 5.5426 19.6857 7.09196 20.1973C9.58918 21.0218 12.2425 21.2111 14.8114 20.7652" stroke-width="2" stroke-linecap="round" stroke="#000000" /><path d="M15.5843 10C14.8817 8.8044 13.5683 8 12.064 8C9.81952 8 8 9.79086 8 12C8 14.2091 9.81952 16 12.064 16C13.5683 16 14.8817 15.1956 15.5843 14" stroke-width="2" stroke-linecap="round" stroke="#000000" /></svg>