<svg xmlns="http://www.w3.org/2000/svg" width="24" height="24" viewBox="0 0 24 24" fill="none"><path d="M17 21H7" stroke-width="2" stroke-linecap="round" stroke="#000000" /><path d="M3 7.8C3 6.11984 3 5.27976 3.32698 4.63803C3.6146 4.07354 4.07354 3.6146 4.63803 3.32698C5.27976 3 6.11984 3 7.8 3H16.2C17.8802 3 18.7202 3 19.362 3.32698C19.9265 3.6146 20.3854 4.07354 20.673 4.63803C21 5.27976 21 6.11984 21 7.8V12.2C21 13.8802 21 14.7202 20.673 15.362C20.3854 15.9265 19.9265 16.3854 19.362 16.673C18.7202 17 17.8802 17 16.2 17H7.8C6.11984 17 5.27976 17 4.63803 16.673C4.07354 16.3854 3.6146 15.9265 3.32698 15.362C3 14.7202 3 13.8802 3 12.2V7.8Z" stroke-width="2" stroke="#000000" /><circle cx="12" cy="10" r="3" stroke-width="2" stroke="#000000" /><path d="M7 4C7 5.65685 5.65685 7 4 7C3.64936 7 3.31278 6.93985 3 6.82929C3 6.05847 3 5.67305 3.07043 5.35378C3.32206 4.21301 4.21301 3.32206 5.35378 3.07043C5.67305 3 6.05847 3 6.82929 3C6.93985 3.31278 7 3.64936 7 4Z" stroke-width="2" stroke="#000000" /><path d="M7 16C7 14.3431 5.65685 13 4 13C3.64936 13 3.31278 13.0602 3 13.1707C3 13.9415 3 14.3269 3.07043 14.6462C3.32206 15.787 4.21301 16.6779 5.35378 16.9296C5.67305 17 6.05847 17 6.82929 17C6.93985 16.6872 7 16.3506 7 16Z" stroke-width="2" stroke="#000000" /><path d="M17 4C17 5.65685 18.3431 7 20 7C20.3506 7 20.6872 6.93985 21 6.82929C21 6.05847 21 5.67305 20.9296 5.35378C20.6779 4.21301 19.787 3.32206 18.6462 3.07043C18.3269 3 17.9415 3 17.1707 3C17.0602 3.31278 17 3.64936 17 4Z" stroke-width="2" stroke="#000000" /><path d="M17 16C17 14.3431 18.3431 13 20 13C20.3506 13 20.6872 13.0602 21 13.1707C21 13.9415 21 14.3269 20.9296 14.6462C20.6779 15.787 19.787 16.6779 18.6462 16.9296C18.3269 17 17.9415 17 17.1707 17C17.0602 16.6872 17 16.3506 17 16Z" stroke-width="2" stroke="#000000" /></svg>