<svg xmlns="http://www.w3.org/2000/svg" width="24" height="24" viewBox="0 0 24 24" fill="none"><path d="M2 15V13.6C2 10.2397 2 8.55953 2.65396 7.27606C3.2292 6.14708 4.14708 5.2292 5.27606 4.65396C6.55953 4 8.23969 4 11.6 4H18" stroke-width="2" stroke-linecap="round" stroke="#000000" /><path d="M5 11.8C5 10.1198 5 9.27976 5.32698 8.63803C5.6146 8.07354 6.07354 7.6146 6.63803 7.32698C7.27976 7 8.11984 7 9.8 7H17.2C18.8802 7 19.7202 7 20.362 7.32698C20.9265 7.6146 21.3854 8.07354 21.673 8.63803C22 9.27976 22 10.1198 22 11.8V15.2C22 16.8802 22 17.7202 21.673 18.362C21.3854 18.9265 20.9265 19.3854 20.362 19.673C19.7202 20 18.8802 20 17.2 20H9.8C8.11984 20 7.27976 20 6.63803 19.673C6.07354 19.3854 5.6146 18.9265 5.32698 18.362C5 17.7202 5 16.8802 5 15.2V11.8Z" stroke-width="2" stroke="#000000" /><circle cx="13.5" cy="13.5" r="2.5" stroke-width="2" stroke="#000000" /><path d="M18 19C18 17.3431 19.3431 16 21 16C21.3506 16 21.6872 16.0602 22 16.1707C22 16.9415 22 17.3269 21.9296 17.6462C21.6779 18.787 20.787 19.6779 19.6462 19.9296C19.3269 20 18.9415 20 18.1707 20C18.0602 19.6872 18 19.3506 18 19Z" stroke-width="2" stroke="#000000" /><path d="M18 8C18 9.65685 19.3431 11 21 11C21.3506 11 21.6872 10.9398 22 10.8293C22 10.0585 22 9.67305 21.9296 9.35378C21.6779 8.21301 20.787 7.32206 19.6462 7.07043C19.3269 7 18.9415 7 18.1707 7C18.0602 7.31278 18 7.64936 18 8Z" stroke-width="2" stroke="#000000" /><path d="M9 19C9 17.3431 7.65685 16 6 16C5.64936 16 5.31278 16.0602 5 16.1707C5 16.9415 5 17.3269 5.07043 17.6462C5.32206 18.787 6.21301 19.6779 7.35378 19.9296C7.67305 20 8.05847 20 8.82929 20C8.93985 19.6872 9 19.3506 9 19Z" stroke-width="2" stroke="#000000" /><path d="M9 8C9 9.65685 7.65685 11 6 11C5.64936 11 5.31278 10.9398 5 10.8293C5 10.0585 5 9.67305 5.07043 9.35378C5.32206 8.21301 6.21301 7.32206 7.35378 7.07043C7.67305 7 8.05847 7 8.82929 7C8.93985 7.31278 9 7.64936 9 8Z" stroke-width="2" stroke="#000000" /></svg>