<svg xmlns="http://www.w3.org/2000/svg" width="24" height="24" viewBox="0 0 24 24" fill="none"><path d="M3 9.8C3 8.11984 3 7.27976 3.32698 6.63803C3.6146 6.07354 4.07354 5.6146 4.63803 5.32698C5.27976 5 6.11984 5 7.8 5H16.2C17.8802 5 18.7202 5 19.362 5.32698C19.9265 5.6146 20.3854 6.07354 20.673 6.63803C21 7.27976 21 8.11984 21 9.8V14.2C21 15.8802 21 16.7202 20.673 17.362C20.3854 17.9265 19.9265 18.3854 19.362 18.673C18.7202 19 17.8802 19 16.2 19H7.8C6.11984 19 5.27976 19 4.63803 18.673C4.07354 18.3854 3.6146 17.9265 3.32698 17.362C3 16.7202 3 15.8802 3 14.2V9.8Z" stroke-width="2" stroke="#000000" /><circle cx="12" cy="12" r="3" stroke-width="2" stroke="#000000" /><path d="M7 6C7 7.65685 5.65685 9 4 9C3.64936 9 3.31278 8.93985 3 8.82929C3 8.05847 3 7.67305 3.07043 7.35378C3.32206 6.21301 4.21301 5.32206 5.35378 5.07043C5.67305 5 6.05847 5 6.82929 5C6.93985 5.31278 7 5.64936 7 6Z" stroke-width="2" stroke="#000000" /><path d="M7 18C7 16.3431 5.65685 15 4 15C3.64936 15 3.31278 15.0602 3 15.1707C3 15.9415 3 16.3269 3.07043 16.6462C3.32206 17.787 4.21301 18.6779 5.35378 18.9296C5.67305 19 6.05847 19 6.82929 19C6.93985 18.6872 7 18.3506 7 18Z" stroke-width="2" stroke="#000000" /><path d="M17 6C17 7.65685 18.3431 9 20 9C20.3506 9 20.6872 8.93985 21 8.82929C21 8.05847 21 7.67305 20.9296 7.35378C20.6779 6.21301 19.787 5.32206 18.6462 5.07043C18.3269 5 17.9415 5 17.1707 5C17.0602 5.31278 17 5.64936 17 6Z" stroke-width="2" stroke="#000000" /><path d="M17 18C17 16.3431 18.3431 15 20 15C20.3506 15 20.6872 15.0602 21 15.1707C21 15.9415 21 16.3269 20.9296 16.6462C20.6779 17.787 19.787 18.6779 18.6462 18.9296C18.3269 19 17.9415 19 17.1707 19C17.0602 18.6872 17 18.3506 17 18Z" stroke-width="2" stroke="#000000" /></svg>