<svg xmlns="http://www.w3.org/2000/svg" width="24" height="24" viewBox="0 0 24 24" fill="none"><path d="M3 6.5C3 6.03558 3 5.80337 3.02567 5.60842C3.2029 4.26222 4.26222 3.2029 5.60842 3.02567C5.80337 3 6.03558 3 6.5 3H7.5M3 17.5C3 17.9644 3 18.1966 3.02567 18.3916C3.2029 19.7378 4.26222 20.7971 5.60842 20.9743C5.80337 21 6.03558 21 6.5 21H7.5M16.5 21H17.5C17.9644 21 18.1966 21 18.3916 20.9743C19.7378 20.7971 20.7971 19.7378 20.9743 18.3916C21 18.1966 21 17.9644 21 17.5M21 6.5C21 6.03558 21 5.80337 20.9743 5.60842C20.7971 4.26222 19.7378 3.2029 18.3916 3.02567C18.1966 3 17.9644 3 17.5 3H16.5" stroke-width="2" stroke-linecap="round" stroke="#000000" /><path d="M14 7V13" stroke-width="2" stroke-linecap="round" stroke="#000000" /><path d="M10 7V13" stroke-width="2" stroke-linecap="round" stroke="#000000" /><path d="M10 17H14" stroke-width="2" stroke-linecap="round" stroke="#000000" /><path d="M6 7V17" stroke-width="2" stroke-linecap="round" stroke="#000000" /><path d="M18 7V17" stroke-width="2" stroke-linecap="round" stroke="#000000" /></svg>