<svg xmlns="http://www.w3.org/2000/svg" width="24" height="24" viewBox="0 0 24 24" fill="none"><circle cx="12" cy="12" r="9" stroke-width="2" stroke-linecap="round" stroke-linejoin="round" stroke="#000000" /><path d="M3 12L21 12" stroke-width="2" stroke="#000000" /><path d="M12 3L12 21" stroke-width="2" stroke="#000000" /><path d="M8 12.0001C8 14.4154 7.04855 16.6085 5.5 18.2251C3.95145 16.6085 3 14.4154 3 12.0001C3 9.58478 3.95145 7.39168 5.5 5.77515C7.04855 7.39168 8 9.58478 8 12.0001Z" stroke-width="2" stroke-linecap="round" stroke-linejoin="round" stroke="#000000" /><path d="M21 12.0001C21 14.4154 20.0485 16.6085 18.5 18.2251C16.9515 16.6085 16 14.4154 16 12.0001C16 9.58478 16.9515 7.39168 18.5 5.77515C20.0485 7.39168 21 9.58478 21 12.0001Z" stroke-width="2" stroke-linecap="round" stroke-linejoin="round" stroke="#000000" /></svg>