<svg xmlns="http://www.w3.org/2000/svg" width="24" height="24" viewBox="0 0 24 24" fill="none"><path d="M6.31702 6.3194C6.09214 6.84463 5.96967 7.4104 5.96967 8C5.96967 9.62393 5.98551 11.2374 5.80899 12.8549C5.69187 13.9282 3.96967 14.7563 3.96967 15.8333C3.96967 16.4777 4.64125 17 5.46967 17H17M8.74324 3.7837C9.67492 3.28757 10.782 3 11.9697 3C15.2834 3 17.9697 5.23858 17.9697 8C17.9697 9.62393 17.9538 11.2374 18.1304 12.8549C18.2156 13.6363 19.1518 14.2878 19.6546 15" stroke-width="2" stroke-linecap="round" stroke="#000000" /><path d="M10 21H14" stroke-width="2" stroke-linecap="round" stroke="#000000" /><path d="M3 3L20 20" stroke-width="2" stroke-linecap="round" stroke="#000000" /></svg>