<svg xmlns="http://www.w3.org/2000/svg" width="24" height="24" viewBox="0 0 24 24" fill="none"><path d="M8.96456 17C8.98791 16.8367 9 16.6698 9 16.5C9 14.9038 7.93142 13.5571 6.47058 13.1363C6.16239 13.0476 5.83675 13 5.5 13C3.567 13 2 14.567 2 16.5C2 18.433 3.567 20 5.5 20C7.26324 20 8.72194 18.6961 8.96456 17ZM6.47058 13.1363L8.5 10M8.5 10L5.5 4M8.5 10H15.988M5.5 4H7M5.5 4H4M18 6H15L15.988 10M8.96456 17H11L15.988 10M16.8332 13.4216C15.7413 14.0141 15 15.1705 15 16.5C15 18.433 16.567 20 18.5 20C20.433 20 22 18.433 22 16.5C22 14.567 20.433 13 18.5 13C17.8965 13 17.3288 13.1527 16.8332 13.4216ZM16.8332 13.4216L15.988 10" stroke-width="2" stroke-linecap="round" stroke-linejoin="round" stroke="#000000" /></svg>