<svg xmlns="http://www.w3.org/2000/svg" width="24" height="24" viewBox="0 0 24 24" fill="none"><path d="M3 5C3 3.89543 3.89543 3 5 3C6.10457 3 7 3.89543 7 5V14H3V5Z" stroke-width="2" stroke-linejoin="round" stroke="#000000" /><path d="M7 3H16.2C17.8802 3 18.7202 3 19.362 3.32698C19.9265 3.6146 20.3854 4.07354 20.673 4.63803C21 5.27976 21 6.11984 21 7.8V21L19 19L17.5 21L16 19L14 21L12.5 19L10.5 21L9 19L7 21V3ZM7 3H5" stroke-width="2" stroke-linejoin="round" stroke="#000000" /><path d="M17 11L11 11" stroke-width="2" stroke-linecap="round" stroke="#000000" /><path d="M17 15L11 15" stroke-width="2" stroke-linecap="round" stroke="#000000" /><path d="M12 7L11 7" stroke-width="2" stroke-linecap="round" stroke="#000000" /><path d="M17 7L16 7" stroke-width="2" stroke-linecap="round" stroke="#000000" /></svg>