<svg xmlns="http://www.w3.org/2000/svg" width="24" height="24" viewBox="0 0 24 24" fill="none"><path d="M12 5L13.3877 4.07488C13.987 3.67535 14.2866 3.47559 14.6108 3.33408C14.8985 3.20847 15.2001 3.11717 15.5092 3.06207C15.8574 3 16.2175 3 16.9378 3H21V19H16.4533C15.9131 19 15.643 19 15.3819 19.0466C15.15 19.0879 14.9239 19.1563 14.7081 19.2506C14.465 19.3567 14.2402 19.5065 13.7908 19.8062L12 21L10.2092 19.8062C9.75977 19.5065 9.53504 19.3567 9.29191 19.2506C9.0761 19.1563 8.84995 19.0879 8.61814 19.0466C8.35696 19 8.08687 19 7.54668 19H3V3H7.06224C7.78249 3 8.14262 3 8.49085 3.06207C8.79994 3.11717 9.10147 3.20847 9.38921 3.33408C9.71339 3.47559 10.013 3.67535 10.6123 4.07488L12 5ZM12 21V5" stroke-width="2" stroke-linejoin="round" stroke="#000000" /><path d="M7 7L8 7" stroke-width="2" stroke-linecap="round" stroke="#000000" /><path d="M16 7L17 7" stroke-width="2" stroke-linecap="round" stroke="#000000" /><path d="M7 11L8 11" stroke-width="2" stroke-linecap="round" stroke="#000000" /><path d="M16 11L17 11" stroke-width="2" stroke-linecap="round" stroke="#000000" /><path d="M7 15L8 15" stroke-width="2" stroke-linecap="round" stroke="#000000" /><path d="M16 15L17 15" stroke-width="2" stroke-linecap="round" stroke="#000000" /></svg>