<svg xmlns="http://www.w3.org/2000/svg" width="24" height="24" viewBox="0 0 24 24" fill="none"><path d="M18 7H6C4.34315 7 3 8.34315 3 10V14C3.55228 14 4 14.4477 4 15V18C4 19.6569 5.34315 21 7 21H17C18.6569 21 20 19.6569 20 18V15C20 14.4477 20.4477 14 21 14V10C21 8.34315 19.6569 7 18 7Z" stroke-width="2" stroke-linecap="round" stroke-linejoin="round" stroke="#000000" /><path d="M9 14L3 14" stroke-width="2" stroke-linecap="round" stroke="#000000" /><path d="M21 14L15 14" stroke-width="2" stroke-linecap="round" stroke="#000000" /><path d="M16 7V5C16 3.89543 15.1046 3 14 3H10C8.89543 3 8 3.89543 8 5V7" stroke-width="2" stroke-linecap="round" stroke-linejoin="round" stroke="#000000" /><rect x="9" y="12" width="6" height="4" rx="1" stroke-width="2" stroke-linecap="round" stroke-linejoin="round" stroke="#000000" /></svg>