<svg xmlns="http://www.w3.org/2000/svg" width="24" height="24" viewBox="0 0 24 24" fill="none"><path d="M12.4117 15.3854C11.3592 16.5872 9.50881 16.6488 8.37866 15.5196C7.24853 14.3903 7.31013 12.5415 8.51294 11.4899L16.2226 4.74931C17.0123 4.05893 17.9692 3.58743 18.9981 3.38182L20.9083 3.0001L20.5262 4.90872C20.3204 5.93674 19.8486 6.89291 19.1577 7.68189L12.4117 15.3854Z" stroke-width="2" stroke-linejoin="round" stroke="#000000" /><path d="M8.1448 19.5607C7.05446 20.6502 3.00036 20.9959 3.00036 20.9959C3.00036 20.9959 3.34634 16.9451 4.43668 15.8556C5.52701 14.7662 7.24099 14.7124 8.26496 15.7356C9.28893 16.7587 9.23513 18.4713 8.1448 19.5607Z" stroke-width="2" stroke-linejoin="round" stroke="#000000" /></svg>