<svg xmlns="http://www.w3.org/2000/svg" width="24" height="24" viewBox="0 0 24 24" fill="none"><path d="M20 13V5C20 3.89543 19.1046 3 18 3H6C4.89543 3 4 3.89543 4 5V13C4 14.1046 4.89543 15 6 15H7.97241C9.0338 15 9.84116 15.9531 9.66667 17L9.4932 18.0408C9.23502 19.5899 10.4296 21 12 21C13.5704 21 14.765 19.5899 14.5068 18.0408L14.3333 17C14.1588 15.9531 14.9662 15 16.0276 15H18C19.1046 15 20 14.1046 20 13Z" stroke-width="2" stroke-linejoin="round" stroke="#000000" /><path d="M4 11H20" stroke-width="2" stroke-linecap="round" stroke="#000000" /><path d="M9 3V6" stroke-width="2" stroke-linecap="round" stroke="#000000" /></svg>