<svg xmlns="http://www.w3.org/2000/svg" width="24" height="24" viewBox="0 0 24 24" fill="none"><path d="M6 13.8C6 12.1198 6 11.2798 6.32698 10.638C6.6146 10.0735 7.07354 9.6146 7.63803 9.32698C8.27976 9 9.11984 9 10.8 9H13.2C14.8802 9 15.7202 9 16.362 9.32698C16.9265 9.6146 17.3854 10.0735 17.673 10.638C18 11.2798 18 12.1198 18 13.8V14.3163C18 14.9403 18 15.2523 17.9387 15.5508C17.8844 15.8156 17.7945 16.0718 17.6715 16.3125C17.5329 16.5838 17.338 16.8275 16.9482 17.3148L15.2494 19.4383C14.9083 19.8646 14.7378 20.0777 14.5422 20.2502C14.1277 20.6157 13.6202 20.8596 13.0758 20.955C12.8189 21 12.5459 21 12 21C11.4541 21 11.1811 21 10.9242 20.955C10.3798 20.8596 9.87234 20.6157 9.45779 20.2502C9.26218 20.0777 9.09166 19.8646 8.75061 19.4383L7.05183 17.3148C6.66199 16.8275 6.46706 16.5838 6.32845 16.3125C6.20548 16.0718 6.1156 15.8156 6.06125 15.5508C6 15.2523 6 14.9403 6 14.3163V13.8Z" stroke-width="2" stroke-linecap="round" stroke-linejoin="round" stroke="#000000" /><path d="M6 14L3 14" stroke-width="2" stroke-linecap="round" stroke-linejoin="round" stroke="#000000" /><path d="M21 14H18" stroke-width="2" stroke-linecap="round" stroke-linejoin="round" stroke="#000000" /><path d="M4 21V19.5352C4 19.2008 4.1671 18.8886 4.4453 18.7031L6.87019 17.0865" stroke-width="2" stroke-linecap="round" stroke-linejoin="round" stroke="#000000" /><path d="M4 6.99999V8.27924C4 8.70967 4.27543 9.0918 4.68377 9.22792L6.5 9.83333" stroke-width="2" stroke-linecap="round" stroke-linejoin="round" stroke="#000000" /><path d="M20 21V19.5352C20 19.2008 19.8329 18.8886 19.5547 18.7031L17.1325 17.0883" stroke-width="2" stroke-linecap="round" stroke-linejoin="round" stroke="#000000" /><path d="M20 7V8.27924C20 8.70967 19.7246 9.09181 19.3162 9.22792L17.75 9.75" stroke-width="2" stroke-linecap="round" stroke-linejoin="round" stroke="#000000" /><path d="M9 7C9 5.34315 10.3431 4 12 4C13.6569 4 15 5.34315 15 7V9H9V7Z" stroke-width="2" stroke-linecap="round" stroke="#000000" /><path d="M12 13L12 21" stroke-width="2" stroke-linecap="round" stroke-linejoin="round" stroke="#000000" /><path d="M14.5 4.5L16 3" stroke-width="2" stroke-linecap="round" stroke-linejoin="round" stroke="#000000" /><path d="M9.5 4.5L8 3" stroke-width="2" stroke-linecap="round" stroke-linejoin="round" stroke="#000000" /></svg>