<svg xmlns="http://www.w3.org/2000/svg" width="24" height="24" viewBox="0 0 24 24" fill="none"><path d="M7 5C7 3.89543 7.89543 3 9 3H15C16.1046 3 17 3.89543 17 5V21H7V5Z" stroke-width="2" stroke-linecap="round" stroke="#000000" /><path d="M11 7H13" stroke-width="2" stroke-linecap="round" stroke="#000000" /><path d="M11 11H13" stroke-width="2" stroke-linecap="round" stroke="#000000" /><path d="M11 15H13" stroke-width="2" stroke-linecap="round" stroke="#000000" /><path d="M3 12C3 11.4477 3.44772 11 4 11H6C6.55228 11 7 11.4477 7 12V21H4C3.44772 21 3 20.5523 3 20V12Z" stroke-width="2" stroke-linecap="round" stroke="#000000" /><path d="M17 14C17 13.4477 17.4477 13 18 13H20C20.5523 13 21 13.4477 21 14V20C21 20.5523 20.5523 21 20 21H17V14Z" stroke-width="2" stroke-linecap="round" stroke="#000000" /></svg>