<svg xmlns="http://www.w3.org/2000/svg" width="24" height="24" viewBox="0 0 24 24" fill="none"><path d="M3 6C3 4.34315 4.34315 3 6 3H13C14.6569 3 16 4.34315 16 6V21H4C3.44772 21 3 20.5523 3 20V6Z" stroke-width="2" stroke-linecap="round" stroke="#000000" /><path d="M11.5 7H12" stroke-width="2" stroke-linecap="round" stroke="#000000" /><path d="M7 7H7.5" stroke-width="2" stroke-linecap="round" stroke="#000000" /><path d="M11.5 11H12" stroke-width="2" stroke-linecap="round" stroke="#000000" /><path d="M7 11H7.5" stroke-width="2" stroke-linecap="round" stroke="#000000" /><path d="M11.5 15H12" stroke-width="2" stroke-linecap="round" stroke="#000000" /><path d="M7 15H7.5" stroke-width="2" stroke-linecap="round" stroke="#000000" /><path d="M16 11H19C20.1046 11 21 11.8954 21 13V20C21 20.5523 20.5523 21 20 21H16V11Z" stroke-width="2" stroke-linecap="round" stroke="#000000" /></svg>