<svg xmlns="http://www.w3.org/2000/svg" width="24" height="24" viewBox="0 0 24 24" fill="none"><path d="M14.2 3H9.8C8.11984 3 7.27976 3 6.63803 3.32698C6.07354 3.6146 5.6146 4.07354 5.32698 4.63803C5 5.27976 5 6.11984 5 7.8V12H19V7.8C19 6.11984 19 5.27976 18.673 4.63803C18.3854 4.07354 17.9265 3.6146 17.362 3.32698C16.7202 3 15.8802 3 14.2 3Z" stroke-width="2" stroke-linecap="round" stroke-linejoin="round" stroke="#000000" /><path d="M8 18L9 18M16 18L15 18M9 18L9 19.4C9 19.9601 9 20.2401 8.89101 20.454C8.79513 20.6422 8.64215 20.7951 8.45399 20.891C8.24008 21 7.96005 21 7.4 21L6.6 21C6.03995 21 5.75992 21 5.54601 20.891C5.35785 20.7951 5.20487 20.6422 5.10899 20.454C5 20.2401 5 19.9601 5 19.4L5 12L19 12L19 19.4C19 19.9601 19 20.2401 18.891 20.454C18.7951 20.6422 18.6422 20.7951 18.454 20.891C18.2401 21 17.9601 21 17.4 21L16.6 21C16.0399 21 15.7599 21 15.546 20.891C15.3578 20.7951 15.2049 20.6422 15.109 20.454C15 20.2401 15 19.9601 15 19.4L15 18M9 18L15 18" stroke-width="2" stroke-linecap="round" stroke-linejoin="round" stroke="#000000" /><path d="M8 15H9" stroke-width="2" stroke-linecap="round" stroke-linejoin="round" stroke="#000000" /><path d="M15 15L16 15" stroke-width="2" stroke-linecap="round" stroke-linejoin="round" stroke="#000000" /><path d="M2 7V9H5" stroke-width="2" stroke-linecap="round" stroke-linejoin="round" stroke="#000000" /><path d="M22 7V9H19" stroke-width="2" stroke-linecap="round" stroke-linejoin="round" stroke="#000000" /></svg>