<svg xmlns="http://www.w3.org/2000/svg" width="24" height="24" viewBox="0 0 24 24" fill="none"><path d="M11 21H7.8C6.11984 21 5.27976 21 4.63803 20.673C4.07354 20.3854 3.6146 19.9265 3.32698 19.362C3 18.7202 3 17.8802 3 16.2V9.8C3 8.11984 3 7.27976 3.32698 6.63803C3.6146 6.07354 4.07354 5.6146 4.63803 5.32698C5.27976 5 6.11984 5 7.8 5H16.2C17.8802 5 18.7202 5 19.362 5.32698C19.9265 5.6146 20.3854 6.07354 20.673 6.63803C21 7.27976 21 8.11984 21 9.8V11" stroke-width="2" stroke-linecap="round" stroke-linejoin="round" stroke="#000000" /><path d="M8 6V3" stroke-width="2" stroke-linecap="round" stroke-linejoin="round" stroke="#000000" /><path d="M16 6V3" stroke-width="2" stroke-linecap="round" stroke-linejoin="round" stroke="#000000" /><path d="M7 10H17" stroke-width="2" stroke-linecap="round" stroke-linejoin="round" stroke="#000000" /><path d="M18 21V15M15 18H21" stroke-width="2" stroke-linecap="round" stroke="#000000" /></svg>