<svg xmlns="http://www.w3.org/2000/svg" width="24" height="24" viewBox="0 0 24 24" fill="none"><path d="M6.99824 3.75182C6.76603 3.07292 5.93054 2.75361 5.35165 3.17753L4.63848 3.69978C4.35511 3.90729 4.07863 4.12939 3.8654 4.40849C1.78784 7.12776 3.29565 12.41 7.4365 16.5508C11.5774 20.6917 16.8596 22.1995 19.5788 20.1219C19.8579 19.9087 20.08 19.6322 20.2875 19.3488L20.8098 18.6357C21.2337 18.0568 20.9144 17.2213 20.2355 16.9891C19.2197 16.6416 18.1525 16.1403 17.0721 15.4979C16.6501 15.2471 16.1261 15.339 15.8182 15.7213C15.6083 15.982 15.3783 16.2231 15.1171 16.3413C13.215 17.2021 6.66856 11.0652 7.62399 8.8726C7.74437 8.59635 7.99726 8.35037 8.2672 8.12515C8.63639 7.81713 8.71893 7.30266 8.47383 6.88902C7.8389 5.81751 7.34285 4.75937 6.99824 3.75182Z" stroke-width="2" stroke="#000000" /></svg>