<svg xmlns="http://www.w3.org/2000/svg" width="24" height="24" viewBox="0 0 24 24" fill="none"><path d="M19.362 19.673C18.7202 20 17.8802 20 16.2 20H7.8C6.11984 20 5.27976 20 4.63803 19.673C4.07354 19.3854 3.6146 18.9265 3.32698 18.362C3 17.7202 3 16.8802 3 15.2V9C3 7.34315 4.34315 6 6 6M8.58329 3.62507C8.69999 3.45002 8.75834 3.3625 8.82877 3.2922C8.96804 3.15321 9.14521 3.05839 9.3381 3.01961C9.43567 3 9.54086 3 9.75124 3H14.1437C14.4568 3 14.6133 3 14.7554 3.04315C14.8812 3.08135 14.9982 3.14398 15.0998 3.22745C15.2145 3.32174 15.3013 3.45199 15.475 3.71248L16.6641 5.49615C16.7021 5.55311 16.7211 5.58159 16.7407 5.60726C16.9161 5.83681 17.1823 5.97926 17.4706 5.99791C17.5029 6 17.5371 6 17.6056 6C17.9719 6 18.155 6 18.3092 6.01598C19.7214 6.16233 20.8377 7.27857 20.984 8.69075C21 8.84496 21 9.02812 21 9.39445V15.2C21 15.4907 21 15.7563 20.9983 16" stroke-width="2" stroke-linecap="round" stroke="#000000" /><path d="M10.1384 10.1473C9.44486 10.6968 9 11.5465 9 12.5C9 14.1569 10.3431 15.5 12 15.5C12.9408 15.5 13.7805 15.0669 14.3306 14.3892" stroke-width="2" stroke="#000000" /><path d="M3 3L21 21" stroke-width="2" stroke-linecap="round" stroke="#000000" /></svg>