<svg xmlns="http://www.w3.org/2000/svg" width="24" height="24" viewBox="0 0 24 24" fill="none"><path d="M4.51429 10L4 11H20L19.4857 10L17.7396 6.60473C17.253 5.65855 17.0097 5.18545 16.6514 4.84012C16.3346 4.5347 15.9544 4.30272 15.5379 4.16065C15.067 4 14.535 4 13.471 4H10.529C9.46503 4 8.93304 4 8.46209 4.16065C8.04558 4.30272 7.66542 4.5347 7.34859 4.84012C6.99034 5.18545 6.74703 5.65854 6.26043 6.60473L4.51429 10ZM19.4857 10L21 8H22M4.51429 10L3 8H2" stroke-width="2" stroke-linecap="round" stroke-linejoin="round" stroke="#000000" /><path d="M8 17V19C8 19.5523 7.55228 20 7 20H5C4.44772 20 4 19.5523 4 19V11H20V19C20 19.5523 19.5523 20 19 20H17C16.4477 20 16 19.5523 16 19V17M8 17H16M8 17H7M16 17H17" stroke-width="2" stroke-linecap="round" stroke-linejoin="round" stroke="#000000" /><path d="M7 14L10 14" stroke-width="2" stroke-linecap="round" stroke-linejoin="round" stroke="#000000" /><path d="M14 14L17 14" stroke-width="2" stroke-linecap="round" stroke-linejoin="round" stroke="#000000" /></svg>