<svg xmlns="http://www.w3.org/2000/svg" width="24" height="24" viewBox="0 0 24 24" fill="none"><path d="M3.24298 15.4485C2.98652 13.5678 2.85829 12.6275 3.14684 11.8974C3.40016 11.2564 3.86647 10.7222 4.46736 10.3845C5.15179 10 6.10085 10 7.99897 10H16.001C17.8992 10 18.8482 10 19.5326 10.3845C20.1335 10.7222 20.5998 11.2564 20.8532 11.8974C21.1417 12.6275 21.0135 13.5678 20.757 15.4485L20.5661 16.8485C20.3655 18.3198 20.2652 19.0554 19.9133 19.6091C19.6033 20.097 19.1588 20.4849 18.6335 20.7262C18.0374 21 17.295 21 15.8101 21H8.18988C6.70505 21 5.96264 21 5.36648 20.7262C4.84116 20.4849 4.39674 20.097 4.08669 19.6091C3.73482 19.0554 3.63451 18.3198 3.43389 16.8485L3.24298 15.4485Z" stroke-width="2" stroke="#000000" /><path d="M6.00001 6.5H18" stroke-width="2" stroke-linecap="round" stroke="#000000" /><path d="M9 3L15 3" stroke-width="2" stroke-linecap="round" stroke="#000000" /></svg>