<svg xmlns="http://www.w3.org/2000/svg" width="24" height="24" viewBox="0 0 24 24" fill="none"><path d="M3 15V19C3 20.1046 3.89543 21 5 21H19C20.1046 21 21 20.1046 21 19V15C21 13.3431 19.6569 12 18 12H16V10C16 9.37049 15.7036 8.77771 15.2 8.4L12 6L8.8 8.4C8.29639 8.77771 8 9.37049 8 10V12H6C4.34315 12 3 13.3431 3 15Z" stroke-width="2" stroke-linecap="round" stroke-linejoin="round" stroke="#000000" /><path d="M12 6V2" stroke-width="2" stroke-linecap="round" stroke-linejoin="round" stroke="#000000" /><path d="M10 4L14 4" stroke-width="2" stroke-linecap="round" stroke-linejoin="round" stroke="#000000" /><path d="M8 16H7V17H8V16Z" stroke-width="2" stroke-linecap="round" stroke-linejoin="round" stroke="#000000" /><path d="M11 12H13" stroke-width="2" stroke-linecap="round" stroke-linejoin="round" stroke="#000000" /><path d="M17 16H16V17H17V16Z" stroke-width="2" stroke-linecap="round" stroke-linejoin="round" stroke="#000000" /><path d="M12 21V18" stroke-width="2" stroke-linecap="round" stroke="#000000" /></svg>