<svg xmlns="http://www.w3.org/2000/svg" width="24" height="24" viewBox="0 0 24 24" fill="none"><path fill-rule="evenodd" clip-rule="evenodd" d="M7.5 19.796C8.82378 20.5617 10.3607 21 12 21C16.9706 21 21 16.9706 21 12C21 7.02944 16.9706 3 12 3C10.3607 3 8.82378 3.43827 7.5 4.20404C10.1901 5.76018 12 8.66873 12 12C12 15.3313 10.1901 18.2398 7.5 19.796Z" stroke-width="2" stroke-linejoin="round" stroke="#000000" /><path d="M12 12C12 15.3313 10.1901 18.2398 7.5 19.796C4.8099 18.2398 3 15.3313 3 12C3 8.66873 4.80989 5.76018 7.5 4.20404C10.1901 5.76018 12 8.66873 12 12Z" stroke-width="2" stroke-linejoin="round" stroke="#000000" /></svg>