<svg xmlns="http://www.w3.org/2000/svg" width="24" height="24" viewBox="0 0 24 24" fill="none"><path d="M9 5H8.2C7.07989 5 6.51984 5 6.09202 5.21799C5.71569 5.40973 5.40973 5.71569 5.21799 6.09202C5 6.51984 5 7.07989 5 8.2V16.2C5 17.8802 5 18.7202 5.32698 19.362C5.6146 19.9265 6.07354 20.3854 6.63803 20.673C7.27976 21 8.11984 21 9.8 21H14.2C15.8802 21 16.7202 21 17.362 20.673C17.9265 20.3854 18.3854 19.9265 18.673 19.362C19 18.7202 19 17.8802 19 16.2V8.2C19 7.07989 19 6.51984 18.782 6.09202C18.5903 5.71569 18.2843 5.40973 17.908 5.21799C17.4802 5 16.9201 5 15.8 5H15" stroke-width="2" stroke-linecap="round" stroke="#000000" /><rect x="9" y="3" width="6" height="4" rx="1" stroke-width="2" stroke="#000000" /></svg>