<svg xmlns="http://www.w3.org/2000/svg" width="24" height="24" viewBox="0 0 24 24" fill="none"><path d="M4 11L20 11" stroke-width="2" stroke-linecap="round" stroke="#000000" /><path d="M6.89392 21H17.1061C19.2144 21 21.4617 19.5499 20.781 17.5545C20.5919 17.0001 20.2853 16.5333 19.8809 16.189C19.0398 15.473 18.034 14.643 18.034 13.5385V11H5.966V13.5385C5.966 14.643 4.96013 15.473 4.11909 16.189C3.71468 16.5333 3.40809 17.0001 3.21898 17.5545C2.53831 19.5499 4.7856 21 6.89392 21Z" stroke-width="2" stroke-linecap="round" stroke="#000000" /><circle cx="8" cy="5" r="2" stroke-width="2" stroke-linecap="round" stroke="#000000" /><path d="M17 8C17 6.89543 16.1046 6 15 6C13.8954 6 13 6.89543 13 8" stroke-width="2" stroke-linecap="round" stroke="#000000" /></svg>