<svg xmlns="http://www.w3.org/2000/svg" width="24" height="24" viewBox="0 0 24 24" fill="none"><path d="M8.54875 5.66758L10.9251 3.29123C11.3156 2.9007 11.9488 2.9007 12.3393 3.29123L20.2659 11.2178L19.0417 11.2178C18.2461 11.2178 17.4831 11.5339 16.9205 12.0965L11.2868 17.7302C10.1152 18.9017 8.2157 18.9017 7.04412 17.7302L3.88646 14.5725C2.71489 13.4009 2.71489 11.5014 3.88645 10.3299L6.08197 8.13433" stroke-width="2" stroke-linecap="round" stroke-linejoin="round" stroke="#000000" /><path d="M10.3988 7.51759L6.69865 3.81744" stroke-width="2" stroke-linecap="round" stroke="#000000" /><path d="M20.9921 19.0488C20.9921 20.0121 20.2112 20.793 19.2479 20.793C18.2845 20.793 17.5036 20.0121 17.5036 19.0488C17.5036 18.0854 19.2479 15.5602 19.2479 15.5602C19.2479 15.5602 20.9921 18.0854 20.9921 19.0488Z" stroke-width="2" stroke-linejoin="round" stroke="#000000" /></svg>