<svg xmlns="http://www.w3.org/2000/svg" width="24" height="24" viewBox="0 0 24 24" fill="none"><path d="M7.52425 7.99847C7.57945 9.33007 8.76944 11.417 10.6802 13.3278C12.591 15.2386 14.6779 16.4285 16.0095 16.4838C16.4469 16.5019 16.8028 16.3976 17.0442 16.1562C18.0205 15.1799 16.7542 12.3306 14.2158 9.79224C11.6774 7.25383 8.82811 5.9875 7.8518 6.96381C7.61041 7.2052 7.50611 7.56109 7.52425 7.99847ZM16.0095 16.4838L6.04341 20.8568C5.21514 21.2202 4.24874 21.0384 3.60916 20.3988C2.96958 19.7593 2.78778 18.7929 3.15121 17.9646L7.52425 7.99847" stroke-width="2" stroke="#000000" /><path d="M19.1807 10.4408C20.032 10.1944 21.2397 10.3144 22.3778 10.7507" stroke-width="2" stroke-linecap="round" stroke-linejoin="round" stroke="#000000" /><path d="M13.3753 4.55945C13.8735 3.82655 14.134 2.64118 14.0722 1.42389" stroke-width="2" stroke-linecap="round" stroke-linejoin="round" stroke="#000000" /><path d="M16.6454 7.02429C17.4046 5.1738 20.4703 4.8567 21.1508 2.66397" stroke-width="2" stroke-linecap="round" stroke-linejoin="round" stroke="#000000" /><path d="M8.24421 2.44187L8.68124 3.34132" stroke-width="2" stroke-linecap="round" stroke-linejoin="round" stroke="#000000" /><path d="M20.9445 15.7631L21.9115 16.0179" stroke-width="2" stroke-linecap="round" stroke-linejoin="round" stroke="#000000" /><path d="M10.0019 19.1226C9.08185 18.5801 8.09169 17.8102 7.14478 16.8633C6.1987 15.9172 5.42933 14.9279 4.88691 14.0086" stroke-width="2" stroke-linecap="round" stroke-linejoin="round" stroke="#000000" /></svg>