<svg xmlns="http://www.w3.org/2000/svg" width="24" height="24" viewBox="0 0 24 24" fill="none"><path d="M3 6.11342C3 5.682 3.50973 5.45309 3.83218 5.73972L7.16782 8.70473C7.35726 8.87312 7.64274 8.87312 7.83218 8.70473L11.6678 5.29527C11.8573 5.12688 12.1427 5.12688 12.3322 5.29527L16.1678 8.70473C16.3573 8.87312 16.6427 8.87312 16.8322 8.70473L20.1678 5.73972C20.4903 5.45309 21 5.682 21 6.11342V16C21 17.1046 20.1046 18 19 18H5C3.89543 18 3 17.1046 3 16V6.11342Z" stroke-width="2" stroke="#000000" /><path d="M3 14H21" stroke-width="2" stroke="#000000" /></svg>