<svg xmlns="http://www.w3.org/2000/svg" width="24" height="24" viewBox="0 0 24 24" fill="none"><path d="M19 8C19 6.89543 18.1046 6 17 6H12M5 16C5 17.1046 5.89543 18 7 18H12M12 18H16C16.9319 18 17.3978 18 17.7654 17.8478C18.2554 17.6448 18.6448 17.2554 18.8478 16.7654C19 16.3978 19 15.9319 19 15C19 14.0681 19 13.6022 18.8478 13.2346C18.6448 12.7446 18.2554 12.3552 17.7654 12.1522C17.3978 12 16.9319 12 16 12H8C7.06812 12 6.60218 12 6.23463 11.8478C5.74458 11.6448 5.35523 11.2554 5.15224 10.7654C5 10.3978 5 9.93188 5 9C5 8.06812 5 7.60218 5.15224 7.23463C5.35523 6.74458 5.74458 6.35523 6.23463 6.15224C6.60218 6 7.06812 6 8 6H12M12 18V21M12 6V3" stroke-width="2" stroke-linecap="round" stroke-linejoin="round" stroke="#000000" /></svg>