<svg xmlns="http://www.w3.org/2000/svg" width="24" height="24" viewBox="0 0 24 24" fill="none"><rect x="10" y="4" width="4" height="4" rx="1" stroke-width="2" stroke-linecap="round" stroke-linejoin="round" stroke="#000000" /><rect x="18" y="2" width="4" height="4" rx="1" stroke-width="2" stroke-linecap="round" stroke-linejoin="round" stroke="#000000" /><rect x="16" y="10" width="4" height="4" rx="1" stroke-width="2" stroke-linecap="round" stroke-linejoin="round" stroke="#000000" /><path d="M3 13H7M7 13V10C7 9.44772 6.55228 9 6 9H4C3.44772 9 3 9.44772 3 10V13L3 17L3 20C3 20.5523 3.44772 21 4 21H7M7 13L10 13C10.5523 13 11 13.4477 11 14V17M7 13L7 21M7 21H11M11 17H14C14.5523 17 15 17.4477 15 18V20C15 20.5523 14.5523 21 14 21H11M11 17L11 21M11 17H3" stroke-width="2" stroke-linecap="round" stroke-linejoin="round" stroke="#000000" /></svg>