<svg xmlns="http://www.w3.org/2000/svg" width="24" height="24" viewBox="0 0 24 24" fill="none"><path d="M6.05003 5.42496C6.39735 4.90398 6.57101 4.64349 6.80045 4.45491C7.00357 4.28796 7.23762 4.1627 7.4892 4.0863C7.77337 4 8.08645 4 8.71259 4H15.2874C15.9136 4 16.2266 4 16.5108 4.0863C16.7624 4.1627 16.9964 4.28796 17.1996 4.45491C17.429 4.64349 17.6027 4.90398 17.95 5.42496L19.687 8.03055C20.1583 8.73749 20.394 9.09096 20.4731 9.46963C20.5429 9.80393 20.5259 10.1505 20.4238 10.4764C20.3082 10.8456 20.0392 11.1744 19.5011 11.8319L14.4767 17.973C13.6279 19.0104 13.2035 19.529 12.6934 19.7176C12.2459 19.883 11.7541 19.883 11.3066 19.7176C10.7965 19.529 10.3721 19.0104 9.52334 17.973L4.49887 11.8319C3.96084 11.1744 3.69183 10.8456 3.57618 10.4764C3.47408 10.1505 3.45713 9.80393 3.52694 9.46963C3.60603 9.09096 3.84167 8.73749 4.31297 8.03055L6.05003 5.42496Z" stroke-width="2" stroke-linejoin="round" stroke="#000000" /><path d="M3.33313 10L20.5937 10" stroke-width="2" stroke-linejoin="round" stroke="#000000" /></svg>