<svg xmlns="http://www.w3.org/2000/svg" width="24" height="24" viewBox="0 0 24 24" fill="none"><path d="M5.87856 14.511H8.07663C9.0161 14.511 9.6738 15.4392 9.36234 16.3256L9.23945 16.6753C8.58091 18.5493 9.7117 20.5768 11.6521 21.0013C11.8521 21.045 12.0539 20.9359 12.1267 20.7446L14.0095 15.7994C14.3048 15.0237 15.0486 14.511 15.8786 14.511H17V6.69799C17 5.33189 16.0791 4.12711 14.7454 3.8312C11.7774 3.17266 9.4659 2.94616 6.48941 3.01047C5.04635 3.04165 3.87099 4.15526 3.69078 5.58736L2.98122 11.2262C2.76181 12.9699 4.12111 14.511 5.87856 14.511Z" stroke-width="2" stroke-linejoin="round" stroke="#000000" /><rect x="21" y="16.011" width="4" height="13" rx="1" transform="rotate(180 21 16.011)" stroke-width="2" stroke-linejoin="round" stroke="#000000" /></svg>