<svg xmlns="http://www.w3.org/2000/svg" width="24" height="24" viewBox="0 0 24 24" fill="none"><path d="M19 13V7.8C19 6.11984 19 5.27976 18.673 4.63803C18.3854 4.07354 17.9265 3.6146 17.362 3.32698C16.7202 3 15.8802 3 14.2 3H9.8C8.11984 3 7.27976 3 6.63803 3.32698C6.07354 3.6146 5.6146 4.07354 5.32698 4.63803C5 5.27976 5 6.11984 5 7.8V16.2C5 17.8802 5 18.7202 5.32698 19.362C5.6146 19.9265 6.07354 20.3854 6.63803 20.673C7.27976 21 8.11984 21 9.8 21H11" stroke-width="2" stroke-linecap="round" stroke="#000000" /><path d="M9 11H15" stroke-width="2" stroke-linecap="round" stroke="#000000" /><path d="M9 7H15" stroke-width="2" stroke-linecap="round" stroke="#000000" /><path d="M9 15H11" stroke-width="2" stroke-linecap="round" stroke="#000000" /><path d="M15 19L17 21L21 17" stroke-width="2" stroke-linecap="round" stroke-linejoin="round" stroke="#000000" /></svg>