<svg xmlns="http://www.w3.org/2000/svg" width="24" height="24" viewBox="0 0 24 24" fill="none"><path d="M18 11V7.8C18 6.11984 18 5.27976 17.673 4.63803C17.3854 4.07354 16.9265 3.6146 16.362 3.32698C15.7202 3 14.8802 3 13.2 3H8.8C7.11984 3 6.27976 3 5.63803 3.32698C5.07354 3.6146 4.6146 4.07354 4.32698 4.63803C4 5.27976 4 6.11984 4 7.8V16.2C4 17.8802 4 18.7202 4.32698 19.362C4.6146 19.9265 5.07354 20.3854 5.63803 20.673C6.27976 21 7.11984 21 8.8 21H11" stroke-width="2" stroke-linecap="round" stroke="#000000" /><path d="M8 11H14" stroke-width="2" stroke-linecap="round" stroke="#000000" /><path d="M8 7H14" stroke-width="2" stroke-linecap="round" stroke="#000000" /><path d="M8 15H10" stroke-width="2" stroke-linecap="round" stroke="#000000" /><path d="M18 21V15M15 18H21" stroke-width="2" stroke-linecap="round" stroke="#000000" /></svg>