<svg xmlns="http://www.w3.org/2000/svg" width="24" height="24" viewBox="0 0 24 24" fill="none"><path d="M10.5 9V5.75C10.5 4.7835 9.7165 4 8.75 4C7.7835 4 7 4.7835 7 5.75V12" stroke-width="2" stroke-linecap="round" stroke-linejoin="round" stroke="#000000" /><path d="M14 9V4.75C14 3.7835 13.2165 3 12.25 3C11.2835 3 10.5 3.7835 10.5 4.75V9" stroke-width="2" stroke-linecap="round" stroke-linejoin="round" stroke="#000000" /><path d="M17.5 9V5.75C17.5 4.7835 16.7165 4 15.75 4C14.7835 4 14 4.7835 14 5.75V9" stroke-width="2" stroke-linecap="round" stroke-linejoin="round" stroke="#000000" /><path d="M21 11V7.75C21 6.7835 20.2165 6 19.25 6C18.2835 6 17.5 6.7835 17.5 7.75V9" stroke-width="2" stroke-linecap="round" stroke-linejoin="round" stroke="#000000" /><path d="M21 9V12C21 16.9706 16.9706 21 12 21C7.02944 21 3 16.9706 3 12V11.5714C3 10.1513 4.15127 9 5.57143 9H7" stroke-width="2" stroke-linecap="round" stroke-linejoin="round" stroke="#000000" /></svg>