<svg xmlns="http://www.w3.org/2000/svg" width="24" height="24" viewBox="0 0 24 24" fill="none"><path d="M21 18V11.6C21 8.23969 21 6.55953 20.346 5.27606C19.7708 4.14708 18.8529 3.2292 17.7239 2.65396C16.4405 2 14.7603 2 11.4 2H8" stroke-width="2" stroke-linecap="round" stroke="#000000" /><path d="M3 10.8C3 9.11984 3 8.27976 3.32698 7.63803C3.6146 7.07354 4.07354 6.6146 4.63803 6.32698C5.27976 6 6.11984 6 7.8 6H12.2C13.8802 6 14.7202 6 15.362 6.32698C15.9265 6.6146 16.3854 7.07354 16.673 7.63803C17 8.27976 17 9.11984 17 10.8V17.2C17 18.8802 17 19.7202 16.673 20.362C16.3854 20.9265 15.9265 21.3854 15.362 21.673C14.7202 22 13.8802 22 12.2 22H7.8C6.11984 22 5.27976 22 4.63803 21.673C4.07354 21.3854 3.6146 20.9265 3.32698 20.362C3 19.7202 3 18.8802 3 17.2V10.8Z" stroke-width="2" stroke="#000000" /><path d="M13 14H7M10 11L10 17" stroke-width="2" stroke-linecap="round" stroke-linejoin="round" stroke="#000000" /></svg>