<svg xmlns="http://www.w3.org/2000/svg" width="24" height="24" viewBox="0 0 24 24" fill="none"><path d="M4.84992 6.52318C5.19304 6.0756 5.72266 5.47885 6.52827 4.85228M3.08205 10.8272C2.94778 11.6701 3.01492 12.5578 3.08205 13.1769M4.86484 17.4735C5.37953 18.1448 6.08071 18.8311 6.52081 19.1369M10.8249 20.9272C11.623 21.0614 12.8911 20.9719 13.1746 20.9272M17.4752 19.1352C18.0569 18.718 18.7266 18.0444 19.1399 17.4704M20.9196 10.8226C21.0339 11.6789 21.0157 12.6081 20.9196 13.1789M19.1399 6.53092C18.772 6.03424 18.0148 5.26251 17.4845 4.85403M10.8257 3.07675C11.7836 2.94703 12.3323 2.97697 13.1805 3.07676" stroke-width="2" stroke-linecap="round" stroke-linejoin="round" stroke="#000000" /></svg>