<svg xmlns="http://www.w3.org/2000/svg" width="24" height="24" viewBox="0 0 24 24" fill="none"><circle cx="12" cy="12" r="9" stroke-width="2" stroke-linejoin="round" stroke="#000000" /><path d="M9 15H15" stroke-width="2" stroke-linecap="round" stroke-linejoin="round" stroke="#000000" /><path d="M9.14453 9H8.84576M9.50011 9C9.50011 9.27614 9.27625 9.5 9.00011 9.5C8.72396 9.5 8.50011 9.27614 8.50011 9C8.50011 8.72386 8.72396 8.5 9.00011 8.5C9.27625 8.5 9.50011 8.72386 9.50011 9Z" stroke-width="2" stroke-linecap="round" stroke="#000000" /><path d="M15.1445 9H14.8458M15.5001 9C15.5001 9.27614 15.2762 9.5 15.0001 9.5C14.724 9.5 14.5001 9.27614 14.5001 9C14.5001 8.72386 14.724 8.5 15.0001 8.5C15.2762 8.5 15.5001 8.72386 15.5001 9Z" stroke-width="2" stroke-linecap="round" stroke="#000000" /></svg>