<svg xmlns="http://www.w3.org/2000/svg" width="24" height="24" viewBox="0 0 24 24" fill="none"><path d="M10.5689 4.86216C11.0295 3.94095 11.2598 3.48035 11.5715 3.33254C11.8427 3.20391 12.1573 3.20391 12.4285 3.33254C12.7402 3.48035 12.9705 3.94095 13.4311 4.86217L20.3422 18.6845C20.7256 19.4512 20.9173 19.8345 20.8712 20.1462C20.831 20.4183 20.6805 20.6618 20.4551 20.8195C20.197 21 19.7684 21 18.9111 21L5.08886 21C4.23164 21 3.80303 21 3.54489 20.8195C3.31949 20.6618 3.16898 20.4183 3.12877 20.1462C3.08273 19.8345 3.27441 19.4512 3.65777 18.6845L10.5689 4.86216Z" stroke-width="2" stroke-linejoin="round" stroke="#000000" /><path d="M12 13L12 10" stroke-width="2" stroke-linecap="round" stroke="#000000" /><path d="M12 17H12.0001" stroke-width="2" stroke-linecap="round" stroke="#000000" /></svg>