<svg xmlns="http://www.w3.org/2000/svg" width="24" height="24" viewBox="0 0 24 24" fill="none"><path d="M16.5 3H18C19.6569 3 21 4.34315 21 6V7.5" stroke-width="2" stroke-linecap="round" stroke="#000000" /><path d="M7.5 3H6C4.34315 3 3 4.34315 3 6V7.5" stroke-width="2" stroke-linecap="round" stroke="#000000" /><path d="M3 16.5V18C3 19.6569 4.34315 21 6 21H7.5" stroke-width="2" stroke-linecap="round" stroke="#000000" /><path d="M16.5 21H18C19.6569 21 21 19.6569 21 18V16.5" stroke-width="2" stroke-linecap="round" stroke="#000000" /><path d="M8 8V9" stroke-width="2" stroke-linecap="round" stroke="#000000" /><path d="M16 8V9" stroke-width="2" stroke-linecap="round" stroke="#000000" /><path d="M12 8V11.5C12 12.0523 11.5523 12.5 11 12.5H10.5" stroke-width="2" stroke-linecap="round" stroke="#000000" /><path d="M8 16C10.4687 17.3198 13.5744 17.3468 16 16" stroke-width="2" stroke-linecap="round" stroke="#000000" /></svg>