<svg xmlns="http://www.w3.org/2000/svg" width="24" height="24" viewBox="0 0 24 24" fill="none"><path d="M12 2H15.5C17.433 2 19 3.567 19 5.5C19 7.433 17.433 9 15.5 9H12V2Z" stroke-width="2" stroke="#000000" /><path d="M12 2H8.5C6.567 2 5 3.567 5 5.5C5 7.433 6.567 9 8.5 9H12V2Z" stroke-width="2" stroke="#000000" /><path d="M12 9H8.5C6.567 9 5 10.567 5 12.5C5 14.433 6.567 16 8.5 16H12V9Z" stroke-width="2" stroke="#000000" /><path d="M12 16H8.5C6.567 16 5 17.567 5 19.5C5 21.433 6.567 23 8.5 23C10.433 23 12 21.433 12 19.5V16Z" stroke-width="2" stroke="#000000" /><circle cx="15.5" cy="12.5" r="3.5" stroke-width="2" stroke="#000000" /></svg>