<svg xmlns="http://www.w3.org/2000/svg" width="24" height="24" viewBox="0 0 24 24" fill="none"><path d="M11 21H9.8C8.11984 21 7.27976 21 6.63803 20.673C6.07354 20.3854 5.6146 19.9265 5.32698 19.362C5 18.7202 5 17.8802 5 16.2V7.8C5 6.11984 5 5.27976 5.32698 4.63803C5.6146 4.07354 6.07354 3.6146 6.63803 3.32698C7.27976 3 8.11984 3 9.8 3H13.2506C13.5261 3 13.6638 3 13.7914 3.03434C13.9045 3.06476 14.0114 3.11481 14.1071 3.18221C14.2152 3.25828 14.3034 3.36409 14.4798 3.5757L18.6292 8.55499C18.7665 8.7198 18.8352 8.80221 18.8841 8.89468C18.9274 8.9767 18.9592 9.06436 18.9784 9.15513C19 9.25746 19 9.36473 19 9.57928V13" stroke-width="2" stroke-linecap="round" stroke="#000000" /><path d="M14 3V8C14 8.55228 14.4477 9 15 9H19" stroke-width="2" stroke="#000000" /><path d="M15 19L17 21L21 17" stroke-width="2" stroke-linecap="round" stroke-linejoin="round" stroke="#000000" /></svg>