<svg xmlns="http://www.w3.org/2000/svg" width="24" height="24" viewBox="0 0 24 24" fill="none"><path fill-rule="evenodd" clip-rule="evenodd" d="M13.4218 13.6109C13.6659 14.2265 13.8 14.8976 13.8 15.6C13.8 17.1993 13.1047 18.6362 12 19.625C12.9554 20.4801 14.217 21 15.6 21C18.5823 21 21 18.5824 21 15.6C21 13.1098 19.3144 11.0132 17.0218 10.3892C16.4007 11.9559 15.0677 13.1628 13.4218 13.6109Z" stroke-width="2" stroke-linejoin="round" stroke="#000000" /><path d="M6.97816 10.3891C7.59926 11.9559 8.93231 13.1628 10.5782 13.6109C11.0312 13.7342 11.5079 13.8 12 13.8C12.4921 13.8 12.9688 13.7342 13.4218 13.6109C15.0677 13.1628 16.4007 11.9559 17.0218 10.3891C17.2659 9.77357 17.4 9.10245 17.4 8.4C17.4 5.41766 14.9823 3 12 3C9.01766 3 6.6 5.41766 6.6 8.4C6.6 9.10245 6.73412 9.77357 6.97816 10.3891Z" stroke-width="2" stroke-linejoin="round" stroke="#000000" /><path fill-rule="evenodd" clip-rule="evenodd" d="M10.5782 13.6109C8.93232 13.1628 7.59926 11.9559 6.97816 10.3892C4.68564 11.0132 3 13.1098 3 15.6C3 18.5824 5.41766 21 8.4 21C9.78304 21 11.0446 20.4801 12 19.625C13.1048 18.6362 13.8 17.1993 13.8 15.6C13.8 14.8976 13.6659 14.2264 13.4218 13.6109C12.9688 13.7342 12.4921 13.8 12 13.8C11.5079 13.8 11.0312 13.7342 10.5782 13.6109Z" stroke-width="2" stroke-linejoin="round" stroke="#000000" /></svg>