<svg xmlns="http://www.w3.org/2000/svg" width="24" height="24" viewBox="0 0 24 24" fill="none"><path d="M7.4 21H16.6C18.6599 21 19.6898 21 20.233 20.5747C20.7057 20.2046 20.9871 19.6418 20.9996 19.0416C21.0139 18.3519 20.3959 17.5279 19.16 15.88L17.75 14H6.25L4.84 15.88C3.60406 17.5279 2.98609 18.3519 3.00043 19.0416C3.01291 19.6418 3.29433 20.2046 3.767 20.5747C4.31015 21 5.3401 21 7.4 21Z" stroke-width="2" stroke-linecap="round" stroke="#000000" /><path d="M8 4.5V5C8 5.55228 8.44772 6 9 6C9.55228 6 10 6.44772 10 7V8.25C10 8.33237 10 8.37356 9.99838 8.41375C9.98319 8.79132 9.86134 9.15686 9.64696 9.46803C9.62414 9.50115 9.59943 9.53409 9.55002 9.59997L9.55 9.6L6.25 14H17.75L14.45 9.6C14.4006 9.5341 14.3759 9.50115 14.353 9.46803C14.1387 9.15686 14.0168 8.79132 14.0016 8.41375C14 8.37356 14 8.33237 14 8.25V7C14 6.44772 14.4477 6 15 6C15.5523 6 16 5.55228 16 5V4.5C16 3.67157 15.3284 3 14.5 3H9.5C8.67157 3 8 3.67157 8 4.5Z" stroke-width="2" stroke-linecap="round" stroke="#000000" /></svg>