<svg xmlns="http://www.w3.org/2000/svg" width="24" height="24" viewBox="0 0 24 24" fill="none"><path d="M3 7.8C3 6.11984 3 5.27976 3.32698 4.63803C3.6146 4.07354 4.07354 3.6146 4.63803 3.32698C5.27976 3 6.11984 3 7.8 3H13.0118C13.7455 3 14.1124 3 14.4577 3.08289C14.7638 3.15638 15.0564 3.27759 15.3249 3.44208C15.6276 3.6276 15.887 3.88703 16.4059 4.40589L19.5941 7.59411C20.113 8.11297 20.3724 8.3724 20.5579 8.67515C20.7224 8.94356 20.8436 9.2362 20.9171 9.5423C21 9.88757 21 10.2545 21 10.9882V16.2C21 17.8802 21 18.7202 20.673 19.362C20.3854 19.9265 19.9265 20.3854 19.362 20.673C18.7202 21 17.8802 21 16.2 21H7.8C6.11984 21 5.27976 21 4.63803 20.673C4.07354 20.3854 3.6146 19.9265 3.32698 19.362C3 18.7202 3 17.8802 3 16.2V7.8Z" stroke-width="2" stroke="#000000" /><path d="M7 21V15C7 13.8954 7.89543 13 9 13H15C16.1046 13 17 13.8954 17 15V21" stroke-width="2" stroke-linecap="round" stroke-linejoin="round" stroke="#000000" /><path d="M11 17L13 17" stroke-width="2" stroke-linecap="round" stroke-linejoin="round" stroke="#000000" /><path d="M7 3V5C7 6.10457 7.89543 7 9 7H13" stroke-width="2" stroke-linecap="round" stroke-linejoin="round" stroke="#000000" /></svg>