<svg xmlns="http://www.w3.org/2000/svg" width="24" height="24" viewBox="0 0 24 24" fill="none"><path d="M6.5 13.9912C5.63476 13.9707 5.0877 13.9021 4.63803 13.673C4.07354 13.3854 3.6146 12.9265 3.32698 12.362C3 11.7202 3 10.8802 3 9.2V7.8C3 6.11984 3 5.27976 3.32698 4.63803C3.6146 4.07354 4.07354 3.6146 4.63803 3.32698C5.27976 3 6.11984 3 7.8 3H16.2C17.8802 3 18.7202 3 19.362 3.32698C19.9265 3.6146 20.3854 4.07354 20.673 4.63803C21 5.27976 21 6.11984 21 7.8V9.2C21 9.70285 21 10.1304 20.9912 10.5" stroke-width="2" stroke-linecap="round" stroke="#000000" /><path d="M10.3038 8.47754L21 15.0038L14.8038 16.2718L10.6077 21.0038L10.3038 8.47754Z" stroke-width="2" stroke-linejoin="round" stroke="#000000" /></svg>