<svg xmlns="http://www.w3.org/2000/svg" width="24" height="24" viewBox="0 0 24 24" fill="none"><path d="M17 3H16.8541C15.7178 3 14.679 3.64201 14.1708 4.65836L14 5" stroke-width="2" stroke-linecap="round" stroke="#000000" /><path d="M17 21H16.8541C15.7178 21 14.679 20.358 14.1708 19.3416L14 19" stroke-width="2" stroke-linecap="round" stroke="#000000" /><path d="M11 3H11.1459C12.2822 3 13.321 3.64201 13.8292 4.65836L14 5" stroke-width="2" stroke-linecap="round" stroke="#000000" /><path d="M11 21H11.1459C12.2822 21 13.321 20.358 13.8292 19.3416L14 19" stroke-width="2" stroke-linecap="round" stroke="#000000" /><path d="M14 5L14 19" stroke-width="2" stroke-linecap="round" stroke="#000000" /><path d="M17.5 17H17.8C18.9201 17 19.4802 17 19.908 16.782C20.2843 16.5903 20.5903 16.2843 20.782 15.908C21 15.4802 21 14.9201 21 13.8V10.2C21 9.07989 21 8.51984 20.782 8.09202C20.5903 7.71569 20.2843 7.40973 19.908 7.21799C19.4802 7 18.9201 7 17.8 7H17.5M14 17H6.2C5.07989 17 4.51984 17 4.09202 16.782C3.71569 16.5903 3.40973 16.2843 3.21799 15.908C3 15.4802 3 14.9201 3 13.8V10.2C3 9.07989 3 8.51984 3.21799 8.09202C3.40973 7.71569 3.71569 7.40973 4.09202 7.21799C4.51984 7 5.07989 7 6.2 7H14" stroke-width="2" stroke-linecap="round" stroke-linejoin="round" stroke="#000000" /></svg>