<svg xmlns="http://www.w3.org/2000/svg" width="24" height="24" viewBox="0 0 24 24" fill="none"><path d="M3 7.4L11.2973 3.34356C11.5552 3.21748 11.6841 3.15444 11.8191 3.12961C11.9387 3.10761 12.0613 3.10761 12.1809 3.12961C12.3159 3.15444 12.4448 3.21748 12.7027 3.34356L21 7.4" stroke-width="2" stroke-linecap="round" stroke="#000000" /><path d="M19 14L20 12L21 12M16 18L16 20C16 20.5523 16.4477 21 17 21L18 21C18.5523 21 19 20.5523 19 20L19 18L19 14M19 14L5 14M19 14L16.8739 10.4565C16.3317 9.5529 15.3552 9 14.3014 9L9.69857 9C8.64478 9 7.66826 9.5529 7.12609 10.4565L5 14M19 18L16 18L8 18M8 18L8 20C8 20.5523 7.55228 21 7 21L6 21C5.44771 21 5 20.5523 5 20L5 18M8 18L5 18M5 14L4 12L3 12M5 14L5 18" stroke-width="2" stroke-linecap="round" stroke-linejoin="round" stroke="#000000" /></svg>