<svg xmlns="http://www.w3.org/2000/svg" width="24" height="24" viewBox="0 0 24 24" fill="none"><path d="M5 12H19V16.2C19 17.8802 19 18.7202 18.673 19.362C18.3854 19.9265 17.9265 20.3854 17.362 20.673C16.7202 21 15.8802 21 14.2 21H9.8C8.11984 21 7.27976 21 6.63803 20.673C6.07354 20.3854 5.6146 19.9265 5.32698 19.362C5 18.7202 5 17.8802 5 16.2V12Z" stroke-width="2" stroke="#000000" /><path d="M12 12L12 21" stroke-width="2" stroke-linecap="round" stroke="#000000" /><path d="M18 5.5C18 4.11929 16.8807 3 15.5 3H15C13.3431 3 12 4.34315 12 6V8H15.5C16.8807 8 18 6.88071 18 5.5Z" stroke-width="2" stroke="#000000" /><path d="M6 5.5C6 4.11929 7.11929 3 8.5 3H9C10.6569 3 12 4.34315 12 6V8H8.5C7.11929 8 6 6.88071 6 5.5Z" stroke-width="2" stroke="#000000" /><path d="M3 10C3 8.89543 3.89543 8 5 8H19C20.1046 8 21 8.89543 21 10V11C21 11.5523 20.5523 12 20 12H4C3.44772 12 3 11.5523 3 11V10Z" stroke-width="2" stroke="#000000" /></svg>