<svg xmlns="http://www.w3.org/2000/svg" width="24" height="24" viewBox="0 0 24 24" fill="none"><path d="M20.9012 10.3635H12.1805V14.0452H17.1229C16.3334 16.5 14.3822 17.3182 12.1409 17.3182C11.2727 17.3193 10.417 17.114 9.6464 16.7197C8.87584 16.3255 8.21317 15.754 7.71462 15.0537C7.21607 14.3533 6.89634 13.5449 6.78257 12.6969C6.6688 11.8488 6.76434 10.9863 7.06108 10.1824C7.35782 9.37855 7.84701 8.65704 8.48715 8.07913C9.12728 7.50121 9.89947 7.08393 10.7382 6.8627C11.5769 6.64147 12.4575 6.62281 13.3051 6.80831C14.1527 6.9938 14.9424 7.37798 15.6071 7.92825L18.3227 5.37825C17.2289 4.38639 15.906 3.67247 14.4687 3.29845C13.0314 2.92443 11.5232 2.9016 10.0749 3.23196C8.6266 3.56231 7.28203 4.23586 6.15785 5.19416C5.03368 6.15245 4.16388 7.36654 3.62392 8.73105C3.08396 10.0956 2.89017 11.5693 3.05936 13.0243C3.22855 14.4793 3.75561 15.8717 4.5948 17.0805C5.43399 18.2894 6.55995 19.2783 7.87498 19.9613C9.19 20.6443 10.6544 21.0009 12.1409 21C17.1785 21 21.7333 17.727 20.9012 10.3635Z" stroke-width="2" stroke-linejoin="round" stroke="#000000" /></svg>