<svg xmlns="http://www.w3.org/2000/svg" width="24" height="24" viewBox="0 0 24 24" fill="none"><path d="M19.3929 9.25635L21 10.8635L17.7857 14.0778L16.1786 12.4706L16.8214 11.8278L15.2143 10.2206L14.5714 10.8635L12 8.29206C11.307 5.3032 6.53571 4.11349 6.53571 4.11349C10.1132 2.63993 14.4253 4.28881 15.2143 5.07777L17.7857 7.64918L17.1428 8.29205L18.75 9.89921L19.3929 9.25635Z" stroke-width="2" stroke-linecap="round" stroke-linejoin="round" stroke="#000000" /><path d="M12.3214 8.61356L14.5714 10.8636L6.38181 19.6449C5.99582 20.0588 5.34357 20.0702 4.94339 19.67L3.21944 17.946C2.80954 17.5362 2.83293 16.8647 3.27035 16.4843L12.3214 8.61356Z" stroke-width="2" stroke-linejoin="round" stroke="#000000" /></svg>