<svg xmlns="http://www.w3.org/2000/svg" width="24" height="24" viewBox="0 0 24 24" fill="none"><path d="M4.96145 8.1616L9.16145 5.0816L9.16146 5.0816C10.181 4.33395 10.6907 3.96013 11.2488 3.81579C11.7415 3.68836 12.2585 3.68836 12.7512 3.81579C13.3093 3.96013 13.819 4.33395 14.8385 5.0816L19.0385 8.1616C19.7574 8.68872 20.1168 8.95229 20.3762 9.28885C20.6059 9.58692 20.7775 9.92555 20.882 10.2871C21 10.6953 21 11.141 21 12.0323V16.2C21 17.8802 21 18.7202 20.673 19.362C20.3854 19.9265 19.9265 20.3854 19.362 20.673C18.7202 21 17.8802 21 16.2 21H7.8C6.11984 21 5.27976 21 4.63803 20.673C4.07354 20.3854 3.6146 19.9265 3.32698 19.362C3 18.7202 3 17.8802 3 16.2V12.0323C3 11.141 3 10.6953 3.11801 10.2871C3.22252 9.92555 3.39412 9.58692 3.62384 9.28885C3.88324 8.95229 4.24265 8.68872 4.96145 8.1616Z" stroke-width="2" stroke-linecap="round" stroke="#000000" /><path d="M9 17C9 16.0681 9 15.6022 9.15224 15.2346C9.35523 14.7446 9.74458 14.3552 10.2346 14.1522C10.6022 14 11.0681 14 12 14V14C12.9319 14 13.3978 14 13.7654 14.1522C14.2554 14.3552 14.6448 14.7446 14.8478 15.2346C15 15.6022 15 16.0681 15 17V21H9V17Z" stroke-width="2" stroke-linecap="round" stroke="#000000" /></svg>