<svg xmlns="http://www.w3.org/2000/svg" width="24" height="24" viewBox="0 0 24 24" fill="none"><path d="M3 7.8C3 6.11984 3 5.27976 3.32698 4.63803C3.6146 4.07354 4.07354 3.6146 4.63803 3.32698C5.27976 3 6.11984 3 7.8 3H16.2C17.8802 3 18.7202 3 19.362 3.32698C19.9265 3.6146 20.3854 4.07354 20.673 4.63803C21 5.27976 21 6.11984 21 7.8V16.2C21 17.8802 21 18.7202 20.673 19.362C20.3854 19.9265 19.9265 20.3854 19.362 20.673C18.7202 21 17.8802 21 16.2 21H7.8C6.11984 21 5.27976 21 4.63803 20.673C4.07354 20.3854 3.6146 19.9265 3.32698 19.362C3 18.7202 3 17.8802 3 16.2V7.8Z" stroke-width="2" stroke="#000000" /><path d="M20.6928 16.6621L17.1002 12.7102C16.7159 12.2875 16.5238 12.0761 16.2954 11.9914C16.0946 11.917 15.8752 11.9089 15.6694 11.9685C15.4355 12.0363 15.2284 12.233 14.8143 12.6265L6 21H17.4566C17.9614 21 18.2137 21 18.4253 20.9697C19.7444 20.7808 20.7808 19.7444 20.9697 18.4253C21 18.2137 21 17.9614 21 17.4566C21 17.3877 21 17.3532 20.9978 17.3198C20.9842 17.1174 20.9094 16.9238 20.7832 16.7648C20.7624 16.7387 20.7392 16.7132 20.6929 16.6622L20.6928 16.6621Z" stroke-width="2" stroke-linejoin="round" stroke="#000000" /><path d="M9 9C9 9.55228 8.55228 10 8 10C7.44772 10 7 9.55228 7 9C7 8.44772 7.44772 8 8 8C8.55228 8 9 8.44772 9 9Z" stroke-width="2" stroke="#000000" /></svg>