<svg xmlns="http://www.w3.org/2000/svg" width="24" height="24" viewBox="0 0 24 24" fill="none"><path d="M4 7.8C4 6.11984 4 5.27976 4.32698 4.63803C4.6146 4.07354 5.07354 3.6146 5.63803 3.32698C6.27976 3 7.11984 3 8.8 3H11.7923C12.6043 3 13.0103 3 13.3875 3.09979C13.7218 3.18822 14.0382 3.33376 14.3228 3.52997C14.6441 3.7514 14.9083 4.05967 15.4367 4.6762L18.8444 8.65184C19.2722 9.1509 19.4861 9.40043 19.6384 9.68194C19.7736 9.93164 19.8726 10.1993 19.9325 10.4768C20 10.7897 20 11.1183 20 11.7756V21L18 19L16 21L14 19L12 21L10 19L8 21L6 19L4 21V7.8Z" stroke-width="2" stroke-linejoin="round" stroke="#000000" /><path d="M14 4V9C14 9.55228 14.4477 10 15 10H19" stroke-width="2" stroke-linecap="round" stroke="#000000" /><path d="M8 11L11 11" stroke-width="2" stroke-linecap="round" stroke="#000000" /><path d="M8 15L15 15" stroke-width="2" stroke-linecap="round" stroke="#000000" /><path d="M8 7L9 7" stroke-width="2" stroke-linecap="round" stroke="#000000" /></svg>