<svg xmlns="http://www.w3.org/2000/svg" width="24" height="24" viewBox="0 0 24 24" fill="none"><path d="M19.4586 9.9629C18.776 10.3587 18.2106 10.9121 17.8152 11.5713C17.4199 12.2304 17.2076 12.9738 17.1982 13.7318C17.2009 14.585 17.4678 15.4186 17.9658 16.1295C18.4638 16.8404 19.1711 17.3974 20 17.7313C19.6732 18.73 19.1895 19.6764 18.5652 20.5387C17.672 21.7566 16.738 22.9743 15.3169 22.9743C13.8958 22.9743 13.5302 22.1923 11.8925 22.1923C10.2954 22.1923 9.72687 23 8.4275 23C7.12812 23 6.22138 21.8719 5.17912 20.4874C3.80239 18.548 3.04575 16.2735 3 13.9369C3 10.0911 5.63938 8.05294 8.238 8.05294C9.61862 8.05294 10.7691 8.91173 11.6354 8.91173C12.461 8.91173 13.7469 8.00155 15.3169 8.00155C16.1241 7.98183 16.9241 8.1504 17.6463 8.49242C18.3686 8.83445 18.9909 9.33943 19.4586 9.9629Z" stroke-width="2" stroke-linejoin="round" stroke="#000000" /><path d="M14.5717 4.18787C15.2638 3.40817 15.6556 2.42466 15.6816 1.40162C15.6828 1.26675 15.6692 1.13214 15.641 1C14.4521 1.11122 13.3528 1.65386 12.5685 2.51662C11.8697 3.26525 11.4632 4.2225 11.418 5.22569C11.4185 5.34769 11.4321 5.46932 11.4586 5.58865C11.5523 5.60562 11.6475 5.61431 11.7428 5.61463C12.2907 5.57288 12.824 5.42487 13.3103 5.1796C13.7967 4.93433 14.2258 4.59692 14.5717 4.18787Z" fill="#000000" /></svg>