<svg xmlns="http://www.w3.org/2000/svg" width="24" height="24" viewBox="0 0 24 24" fill="none"><path d="M17 8C17 5.23858 14.7614 3 12 3C9.23858 3 7 5.23858 7 8C7 10.0503 8.2341 11.8124 10 12.584V13L9 14.5L10 16L9 17.5L12 21L14 19L14 12.584C15.7659 11.8124 17 10.0503 17 8Z" stroke-width="2" stroke-linecap="round" stroke-linejoin="round" stroke="#000000" /><path d="M13 8C13 8.55228 12.5523 9 12 9C11.4477 9 11 8.55228 11 8C11 7.44772 11.4477 7 12 7C12.5523 7 13 7.44772 13 8Z" stroke-width="2" stroke="#000000" /></svg>