<svg xmlns="http://www.w3.org/2000/svg" width="24" height="24" viewBox="0 0 24 24" fill="none"><path d="M15 3L9 3C7.34315 3 6 4.34315 6 6V8C6 9.65685 7.34315 11 9 11H10L10 15H8C7.44771 15 7 15.4477 7 16L7 18C7 18.5523 7.44771 19 8 19H10V21H12C13.1046 21 14 20.1046 14 19L14 11H15C16.6569 11 18 9.65685 18 8V6C18 4.34315 16.6569 3 15 3Z" stroke-width="2" stroke-linecap="round" stroke-linejoin="round" stroke="#000000" /><path d="M10 7H14" stroke-width="2" stroke-linecap="round" stroke="#000000" /></svg>