<svg xmlns="http://www.w3.org/2000/svg" width="24" height="24" viewBox="0 0 24 24" fill="none"><path d="M16.9497 12.7072L19.071 10.5859C20.6331 9.02377 20.6331 6.49111 19.071 4.92901C17.5089 3.36692 14.9763 3.36692 13.4142 4.92901L11.2929 7.05033" stroke-width="2" stroke-linecap="round" stroke="#000000" /><path d="M7.05023 11.293L4.92891 13.4143C3.36682 14.9764 3.36681 17.509 4.92891 19.0711C6.49101 20.6332 9.02367 20.6332 10.5858 19.0711L12.7071 16.9498" stroke-width="2" stroke-linecap="round" stroke="#000000" /><path d="M14.1213 9.87866L9.8787 14.1213" stroke-width="2" stroke-linecap="round" stroke="#000000" /><path d="M5.63598 5.63606L4.92887 4.92896" stroke-width="2" stroke-linecap="round" stroke="#000000" /><path d="M3.5148 9.17172H2.10059" stroke-width="2" stroke-linecap="round" stroke="#000000" /><path d="M9.17163 3.51489V2.10067" stroke-width="2" stroke-linecap="round" stroke="#000000" /><path d="M18.3637 18.3639L19.0708 19.071" stroke-width="2" stroke-linecap="round" stroke="#000000" /><path d="M14.8282 20.4852L14.8282 21.8994" stroke-width="2" stroke-linecap="round" stroke="#000000" /><path d="M20.4852 14.8284L21.8994 14.8284" stroke-width="2" stroke-linecap="round" stroke="#000000" /></svg>