<svg xmlns="http://www.w3.org/2000/svg" width="24" height="24" viewBox="0 0 24 24" fill="none"><path d="M11 21H9.8C8.11984 21 7.27976 21 6.63803 20.673C6.07354 20.3854 5.6146 19.9265 5.32698 19.362C5 18.7202 5 17.8802 5 16.2V7.8C5 6.11984 5 5.27976 5.32698 4.63803C5.6146 4.07354 6.07354 3.6146 6.63803 3.32698C7.27976 3 8.11984 3 9.8 3H14.2C15.8802 3 16.7202 3 17.362 3.32698C17.9265 3.6146 18.3854 4.07354 18.673 4.63803C19 5.27976 19 6.11984 19 7.8V10" stroke-width="2" stroke-linecap="round" stroke="#000000" /><path d="M9 7H15" stroke-width="2" stroke-linecap="round" stroke="#000000" /><path d="M9 11H14" stroke-width="2" stroke-linecap="round" stroke="#000000" /><path d="M9 15H11" stroke-width="2" stroke-linecap="round" stroke="#000000" /><path d="M19.6967 19.6924C20.1931 19.1949 20.5 18.5083 20.5 17.75C20.5 16.2312 19.2688 15 17.75 15C16.2312 15 15 16.2312 15 17.75C15 19.2688 16.2312 20.5 17.75 20.5C18.5105 20.5 19.1989 20.1913 19.6967 19.6924ZM19.6967 19.6924L21 21" stroke-width="2" stroke-linecap="round" stroke="#000000" /></svg>