<svg xmlns="http://www.w3.org/2000/svg" width="24" height="24" viewBox="0 0 24 24" fill="none"><path d="M16.2 8.99512H7.8C6.11984 8.99512 5.27976 8.99512 4.63803 9.3221C4.07354 9.60972 3.6146 10.0687 3.32698 10.6331C3 11.2749 3 12.115 3 13.7951V16.1951C3 17.8753 3 18.7154 3.32698 19.3571C3.6146 19.9216 4.07354 20.3805 4.63803 20.6681C5.27976 20.9951 6.11984 20.9951 7.8 20.9951H16.2C17.8802 20.9951 18.7202 20.9951 19.362 20.6681C19.9265 20.3805 20.3854 19.9216 20.673 19.3571C21 18.7154 21 17.8753 21 16.1951V13.7951C21 12.115 21 11.2749 20.673 10.6331C20.3854 10.0687 19.9265 9.60972 19.362 9.3221C18.7202 8.99512 17.8802 8.99512 16.2 8.99512Z" stroke-width="2" stroke-linecap="round" stroke-linejoin="round" stroke="#000000" /><path d="M17 8.99512V7.99512C17 5.23369 14.7614 2.99512 12 2.99512C9.23858 2.99512 7 5.23369 7 7.99512V8.99512" stroke-width="2" stroke-linecap="round" stroke-linejoin="round" stroke="#000000" /><path d="M12 13.9951L12 15.9951" stroke-width="2" stroke-linecap="round" stroke-linejoin="round" stroke="#000000" /></svg>