<svg xmlns="http://www.w3.org/2000/svg" width="24" height="24" viewBox="0 0 24 24" fill="none"><path d="M10.335 10.7779L3.26396 17.849C2.87343 18.2395 2.87343 18.8726 3.26396 19.2632L4.67817 20.6774C5.06869 21.0679 5.70186 21.0679 6.09238 20.6774L13.1635 13.6063M10.335 10.7779L12.4563 8.65657C12.8469 8.26605 13.48 8.26605 13.8706 8.65657L15.2848 10.0708C15.6753 10.4613 15.6753 11.0945 15.2848 11.485L13.1635 13.6063M10.335 10.7779L13.1635 13.6063" stroke-width="2" stroke-linecap="round" stroke-linejoin="round" stroke="#000000" /><path d="M18.9772 4.96411L17.4846 6.45678M21.4504 10.9348L19.3394 10.9348M18.9772 16.9055L17.4846 15.4128M7.03583 4.96411L8.52851 6.45678M13.0065 2.49096L13.0065 4.60192" stroke-width="2" stroke-linecap="round" stroke-linejoin="round" stroke="#000000" /></svg>