<svg xmlns="http://www.w3.org/2000/svg" width="24" height="24" viewBox="0 0 24 24" fill="none"><ellipse cx="17" cy="11" rx="4" ry="8" stroke-width="2" stroke="#000000" /><path d="M13.3956 13.5194C13.7015 13.8367 14.221 14 14.652 14C15.9488 14 17 12.6569 17 11C17 9.34315 15.9488 8 14.652 8C14.1245 8 13.5116 8.26236 13.1777 8.6965" stroke-width="2" stroke-linecap="round" stroke="#000000" /><path d="M16.5 3.05127L4.69687 7.72413C4.24755 7.90202 3.87122 8.23403 3.6718 8.67421C2.86729 10.45 2.85729 11.6539 3.67017 13.3595C3.87043 13.7797 4.23678 14.0939 4.66951 14.2654L16.4936 18.9514" stroke-width="2" stroke-linecap="round" stroke="#000000" /><path d="M5.9261 14.7783L7.77208 20.3162C7.90819 20.7246 8.29033 21 8.72076 21H10.6126C11.2951 21 11.7771 20.3313 11.5613 19.6838L10.5297 16.5891" stroke-width="2" stroke-linecap="round" stroke-linejoin="round" stroke="#000000" /></svg>