<svg xmlns="http://www.w3.org/2000/svg" width="24" height="24" viewBox="0 0 24 24" fill="none"><path d="M21 16.2V10C21 9.06812 21 8.60218 20.8478 8.23463C20.6448 7.74458 20.2554 7.35523 19.7654 7.15224C19.3978 7 18.9319 7 18 7V4.6C18 4.03995 18 3.75992 17.891 3.54601C17.7951 3.35785 17.6422 3.20487 17.454 3.10899C17.2401 3 16.9601 3 16.4 3H15.6C15.0399 3 14.7599 3 14.546 3.10899C14.3578 3.20487 14.2049 3.35785 14.109 3.54601C14 3.75992 14 4.03995 14 4.6V7H12H10V4.6C10 4.03995 10 3.75992 9.89101 3.54601C9.79513 3.35785 9.64215 3.20487 9.45399 3.10899C9.24008 3 8.96005 3 8.4 3H7.6C7.03995 3 6.75992 3 6.54601 3.10899C6.35785 3.20487 6.20487 3.35785 6.10899 3.54601C6 3.75992 6 4.03995 6 4.6V7C5.06812 7 4.60218 7 4.23463 7.15224C3.74458 7.35523 3.35523 7.74458 3.15224 8.23463C3 8.60218 3 9.06812 3 10V16.2C3 17.8802 3 18.7202 3.32698 19.362C3.6146 19.9265 4.07354 20.3854 4.63803 20.673C5.27976 21 6.11984 21 7.8 21H16.2C17.8802 21 18.7202 21 19.362 20.673C19.9265 20.3854 20.3854 19.9265 20.673 19.362C21 18.7202 21 17.8802 21 16.2Z" stroke-width="2" stroke-linecap="round" stroke-linejoin="round" stroke="#000000" /><path d="M6 7L6 4.6C6 4.03995 6 3.75992 6.10899 3.54601C6.20487 3.35785 6.35785 3.20487 6.54601 3.10899C6.75992 3 7.03995 3 7.6 3L8.4 3C8.96005 3 9.24008 3 9.45399 3.10899C9.64215 3.20487 9.79513 3.35785 9.89101 3.54601C10 3.75992 10 4.03995 10 4.6L10 7" stroke-width="2" stroke-linecap="round" stroke-linejoin="round" stroke="#000000" /><path d="M9 11L15 11" stroke-width="2" stroke-linecap="round" stroke-linejoin="round" stroke="#000000" /></svg>