<svg xmlns="http://www.w3.org/2000/svg" width="24" height="24" viewBox="0 0 24 24" fill="none"><path d="M16 11.0503V6.2C16 5.07989 16 4.51984 15.782 4.09202C15.5903 3.71569 15.2843 3.40973 14.908 3.21799C14.4802 3 13.9201 3 12.8 3H8.04687C8.02099 3 8 3.02099 8 3.04688M8 8V9.8C8 10.9201 8 11.4802 8.21799 11.908C8.40973 12.2843 8.71569 12.5903 9.09202 12.782C9.51984 13 10.0799 13 11.2 13H13" stroke-width="2" stroke-linecap="round" stroke-linejoin="round" stroke="#000000" /><path d="M4 10C4 11.8612 4 12.7918 4.2447 13.545C4.73929 15.0672 5.93273 16.2607 7.45496 16.7552C8.2081 16.9999 9.13871 16.9999 10.9999 16.9999H13.0001C14.8613 16.9999 15.7919 16.9999 16.545 16.7552M20 10C20 11.8612 20 12.7918 19.7553 13.545C19.6547 13.8547 19.5251 14.1508 19.3697 14.4302" stroke-width="2" stroke-linecap="round" stroke="#000000" /><path d="M12 17L12 21" stroke-width="2" stroke-linecap="round" stroke="#000000" /><path d="M8 21H16" stroke-width="2" stroke-linecap="round" stroke-linejoin="round" stroke="#000000" /><path d="M3 3L21 21" stroke-width="2" stroke-linecap="round" stroke="#000000" /></svg>