<svg xmlns="http://www.w3.org/2000/svg" width="24" height="24" viewBox="0 0 24 24" fill="none"><path d="M11 7C15.4183 7 19 10.5817 19 15V17M19 21H3" stroke-width="2" stroke-linecap="round" stroke-linejoin="round" stroke="#000000" /><path d="M13 18C13 17.4477 13.4477 17 14 17H20C20.5523 17 21 17.4477 21 18V20C21 20.5523 20.5523 21 20 21H14C13.4477 21 13 20.5523 13 20V18Z" stroke-width="2" stroke-linejoin="round" stroke="#000000" /><path d="M9 9V15C9 15.5523 8.55228 16 8 16H5C4.44772 16 4 15.5523 4 15V4C4 3.44772 4.44772 3 5 3H8C8.55228 3 9 3.44772 9 4V5" stroke-width="2" stroke-linejoin="round" stroke="#000000" /><path d="M9 12H4" stroke-width="2" stroke="#000000" /><circle cx="9" cy="7" r="2" stroke-width="2" stroke-linejoin="round" stroke="#000000" /></svg>