<svg xmlns="http://www.w3.org/2000/svg" width="24" height="24" viewBox="0 0 24 24" fill="none"><path d="M10 7H14L15.08 5.56C15.698 4.73604 16.007 4.32406 15.9998 3.97921C15.9935 3.67912 15.8528 3.39769 15.6165 3.21264C15.3449 3 14.8299 3 13.8 3H10.2C9.17005 3 8.65508 3 8.3835 3.21264C8.14717 3.39769 8.00646 3.67912 8.00022 3.97921C7.99305 4.32406 8.30203 4.73604 8.92 5.56L10 7Z" stroke-width="2" stroke-linecap="round" stroke-linejoin="round" stroke="#000000" /><path d="M12 7L20 7" stroke-width="2" stroke-linecap="round" stroke-linejoin="round" stroke="#000000" /><path d="M12 7C15.7548 7 18.564 12.0843 19.9778 15.3397C20.6588 16.9075 20.0847 18.6865 18.7172 19.7121C17.6026 20.5481 16.2468 21 14.8535 21H9.14652C7.75319 21 6.39744 20.5481 5.28278 19.7121C3.91533 18.6865 3.34122 16.9075 4.02216 15.3397C5.43603 12.0843 8.24525 7 12 7Z" stroke-width="2" stroke-linecap="round" stroke-linejoin="round" stroke="#000000" /></svg>