<svg xmlns="http://www.w3.org/2000/svg" width="24" height="24" viewBox="0 0 24 24" fill="none"><path d="M6 15.6759V16H18V15.6759C18 14.0042 17.1645 12.443 15.7735 11.5157L12 9L8.2265 11.5157C6.83551 12.443 6 14.0042 6 15.6759Z" stroke-width="2" stroke-linecap="round" stroke-linejoin="round" stroke="#000000" /><path d="M12 9L12 7" stroke-width="2" stroke-linecap="round" stroke-linejoin="round" stroke="#000000" /><path d="M17 12.6719V6.09484C17 4.81098 17.7254 3.63732 18.8737 3.06316C18.9532 3.0234 19.0468 3.0234 19.1263 3.06316C20.2746 3.63732 21 4.81098 21 6.09484V16" stroke-width="2" stroke-linecap="round" stroke="#000000" /><path d="M7 12.6719V6.09484C7 4.81098 6.27463 3.63732 5.12632 3.06316C5.0468 3.0234 4.9532 3.0234 4.87368 3.06316C3.72536 3.63732 3 4.81098 3 6.09484V16" stroke-width="2" stroke-linecap="round" stroke="#000000" /><path d="M21 21V16H3V21H21Z" stroke-width="2" stroke-linecap="round" stroke-linejoin="round" stroke="#000000" /></svg>