<svg xmlns="http://www.w3.org/2000/svg" width="24" height="24" viewBox="0 0 24 24" fill="none"><path d="M6.99999 16V6C6.99999 4.34315 8.34314 3 9.99999 3H18C19.6569 3 21 4.34315 21 6V18C21 19.6569 19.6569 21 18 21H5" stroke-width="2" stroke="#000000" /><path d="M7 10V15M7 15V19C7 20.1046 6.10457 21 5 21C3.89543 21 3 20.1046 3 19V15H7Z" stroke-width="2" stroke-linecap="round" stroke-linejoin="round" stroke="#000000" /><path d="M17 9V7C17 6.44772 16.5523 6 16 6H12C11.4477 6 11 6.44772 11 7V9C11 9.55228 11.4477 10 12 10H16C16.5523 10 17 9.55228 17 9Z" stroke-width="2" stroke-linecap="round" stroke="#000000" /><path d="M11 13.5H17" stroke-width="2" stroke-linecap="round" stroke="#000000" /><path d="M11 17H17" stroke-width="2" stroke-linecap="round" stroke="#000000" /></svg>