<svg xmlns="http://www.w3.org/2000/svg" width="24" height="24" viewBox="0 0 24 24" fill="none"><path d="M4.54307 6.43815L10.5431 3.10482C11.4491 2.60144 12.5509 2.60144 13.4569 3.10482L19.4569 6.43815C20.4093 6.96726 21 7.97112 21 9.06062V15.5302C21 16.6197 20.4093 17.6236 19.4569 18.1527L13.4569 21.486C12.5509 21.9894 11.4491 21.9894 10.5431 21.486L4.54307 18.1527C3.59068 17.6236 3 16.6197 3 15.5302V9.06062C3 7.97112 3.59068 6.96726 4.54307 6.43815Z" stroke-width="2" stroke-linecap="round" stroke-linejoin="round" stroke="#000000" /><path d="M11.9999 12.2954L20.5167 7.50004M11.9999 12.2954L3.45077 7.48462M11.9999 12.2954L12 21.8125" stroke-width="2" stroke-linecap="round" stroke-linejoin="round" stroke="#000000" /></svg>