<svg xmlns="http://www.w3.org/2000/svg" width="24" height="24" viewBox="0 0 24 24" fill="none"><path d="M21 12C21 16.9706 16.9706 21 12 21C7.02944 21 3 16.9706 3 12C3 8.66873 6.60989 9.95614 9.3 8.4C10.6238 7.63423 10.3607 3 12 3C16.9706 3 21 7.02944 21 12Z" stroke-width="2" stroke-linejoin="round" stroke="#000000" /><circle cx="14.8841" cy="9.54304" r="1.8" stroke-width="2" stroke-linecap="round" stroke="#000000" /><path d="M15.9813 15.5209H15.7125M16.3014 15.5209C16.3014 15.7695 16.0999 15.9709 15.8514 15.9709C15.6028 15.9709 15.4014 15.7695 15.4014 15.5209C15.4014 15.2724 15.6028 15.0709 15.8514 15.0709C16.0999 15.0709 16.3014 15.2724 16.3014 15.5209Z" stroke-width="2" stroke-linecap="round" stroke="#000000" /><path d="M11.68 17.1136H11.4111M12 17.1136C12 17.3621 11.7985 17.5636 11.55 17.5636C11.3015 17.5636 11.1 17.3621 11.1 17.1136C11.1 16.865 11.3015 16.6636 11.55 16.6636C11.7985 16.6636 12 16.865 12 17.1136Z" stroke-width="2" stroke-linecap="round" stroke="#000000" /><path d="M7.80477 14.6209H7.53588M8.12479 14.6209C8.12479 14.8694 7.92332 15.0709 7.67479 15.0709C7.42626 15.0709 7.22479 14.8694 7.22479 14.6209C7.22479 14.3724 7.42626 14.1709 7.67479 14.1709C7.92332 14.1709 8.12479 14.3724 8.12479 14.6209Z" stroke-width="2" stroke-linecap="round" stroke="#000000" /></svg>