<svg xmlns="http://www.w3.org/2000/svg" width="24" height="24" viewBox="0 0 24 24" fill="none"><path d="M7.14442 20.5H6.84565M7.5 20.5C7.5 20.7761 7.27614 21 7 21C6.72386 21 6.5 20.7761 6.5 20.5C6.5 20.2239 6.72386 20 7 20C7.27614 20 7.5 20.2239 7.5 20.5Z" stroke-width="2" stroke-linecap="round" stroke="#000000" /><path d="M12.1444 20.5H11.8456M12.5 20.5C12.5 20.7761 12.2761 21 12 21C11.7239 21 11.5 20.7761 11.5 20.5C11.5 20.2239 11.7239 20 12 20C12.2761 20 12.5 20.2239 12.5 20.5Z" stroke-width="2" stroke-linecap="round" stroke="#000000" /><path d="M17.1444 20.5H16.8456M17.5 20.5C17.5 20.7761 17.2761 21 17 21C16.7239 21 16.5 20.7761 16.5 20.5C16.5 20.2239 16.7239 20 17 20C17.2761 20 17.5 20.2239 17.5 20.5Z" stroke-width="2" stroke-linecap="round" stroke="#000000" /><path d="M16.8 9H7.2C6.0799 9 5.51984 9 5.09202 9.21799C4.71569 9.40973 4.40973 9.71569 4.21799 10.092C4 10.5198 4 11.0799 4 12.2V12.8C4 13.9201 4 14.4802 4.21799 14.908C4.40973 15.2843 4.71569 15.5903 5.09202 15.782C5.51984 16 6.0799 16 7.2 16H16.8C17.9201 16 18.4802 16 18.908 15.782C19.2843 15.5903 19.5903 15.2843 19.782 14.908C20 14.4802 20 13.9201 20 12.8V12.2C20 11.0799 20 10.5198 19.782 10.092C19.5903 9.71569 19.2843 9.40973 18.908 9.21799C18.4802 9 17.9201 9 16.8 9Z" stroke-width="2" stroke-linecap="round" stroke-linejoin="round" stroke="#000000" /><path d="M15 9V6C15 4.34315 13.6569 3 12 3C10.3431 3 9 4.34315 9 6V9" stroke-width="2" stroke-linecap="round" stroke-linejoin="round" stroke="#000000" /></svg>