<svg xmlns="http://www.w3.org/2000/svg" width="24" height="24" viewBox="0 0 24 24" fill="none"><path d="M17 3H16.8541C15.7178 3 14.679 3.64201 14.1708 4.65836L14 5" stroke-width="2" stroke-linecap="round" stroke="#000000" /><path d="M17 21H16.8541C15.7178 21 14.679 20.358 14.1708 19.3416L14 19" stroke-width="2" stroke-linecap="round" stroke="#000000" /><path d="M11 3H11.1459C12.2822 3 13.321 3.64201 13.8292 4.65836L14 5" stroke-width="2" stroke-linecap="round" stroke="#000000" /><path d="M11 21H11.1459C12.2822 21 13.321 20.358 13.8292 19.3416L14 19" stroke-width="2" stroke-linecap="round" stroke="#000000" /><path d="M14 5L14 19" stroke-width="2" stroke-linecap="round" stroke="#000000" /><path d="M10 12H10.0001" stroke-width="2" stroke-linecap="round" stroke="#000000" /><path d="M6.5 12H6.5001" stroke-width="2" stroke-linecap="round" stroke="#000000" /><path d="M18 17C18.9319 17 19.3978 17 19.7654 16.8478C20.2554 16.6448 20.6448 16.2554 20.8478 15.7654C21 15.3978 21 14.9319 21 14V10C21 9.06812 21 8.60218 20.8478 8.23463C20.6448 7.74458 20.2554 7.35523 19.7654 7.15224C19.3978 7 18.9319 7 18 7M14 17H6.2C5.07989 17 4.51984 17 4.09202 16.782C3.71569 16.5903 3.40973 16.2843 3.21799 15.908C3 15.4802 3 14.9201 3 13.8V10.2C3 9.07989 3 8.51984 3.21799 8.09202C3.40973 7.71569 3.71569 7.40973 4.09202 7.21799C4.51984 7 5.07989 7 6.2 7H14" stroke-width="2" stroke-linecap="round" stroke-linejoin="round" stroke="#000000" /></svg>