<svg xmlns="http://www.w3.org/2000/svg" width="24" height="24" viewBox="0 0 24 24" fill="none"><path d="M19 21L19.4858 16.8385C19.6678 15.2793 19.7588 14.4996 19.5082 13.8241C19.2991 13.2604 18.8579 12.7028 18.3573 12.3697C17.7575 11.9706 17.0458 11.8879 15.6225 11.7225C13.0734 11.4262 10.8632 11.4261 8.36311 11.7167C6.94878 11.8811 6.24162 11.9633 5.6418 12.3624C5.14229 12.6948 4.69956 13.2543 4.49091 13.8168C4.24037 14.4923 4.33114 15.2699 4.51268 16.8252L5 21" stroke-width="2" stroke-linecap="round" stroke="#000000" /><path d="M15.6587 11.7267C13.0936 11.4262 10.8739 11.4247 8.3613 11.7169C6.95019 11.881 6.24463 11.9631 5.93764 11.7559C5.66166 11.5697 5.50792 11.2911 5.49748 10.9583C5.48587 10.5882 5.91475 10.0557 6.77251 8.99063L9.50779 5.59441C10.3604 4.53584 10.7866 4.00655 11.3009 3.81469C11.7518 3.64645 12.2482 3.64645 12.6991 3.81469C13.2134 4.00655 13.6396 4.53584 14.4922 5.59442L17.2406 9.00689C18.095 10.0678 18.5222 10.5982 18.5105 10.9685C18.5 11.3009 18.3456 11.5804 18.0699 11.7662C17.7626 11.9733 17.0613 11.8911 15.6587 11.7267H15.6587Z" stroke-width="2" stroke-linecap="round" stroke="#000000" /><path d="M16.3221 7.86158C13.2433 7.45836 10.7046 7.4697 7.6669 7.88673" stroke-width="2" stroke-linecap="round" stroke="#000000" /></svg>