<svg xmlns="http://www.w3.org/2000/svg" width="24" height="24" viewBox="0 0 24 24" fill="none"><path d="M19 15.1429V13.0001C19 10.2386 16.7614 8 13.9999 8H9L6 5V7.84301C6 7.94699 5.98324 8.05029 5.95036 8.14893L5.64313 9.0706C5.23134 10.306 4.34567 11.3272 3.18094 11.9095C3.07005 11.965 3 12.0783 3 12.2023V14.754C3 14.9048 3.08518 15.0426 3.22002 15.11C4.37542 15.6877 5.31229 16.6246 5.88999 17.78L5.95492 17.9098C5.98456 17.9691 6 18.0345 6 18.1008V19.691C6 20.1492 6 20.3784 6.08918 20.5534C6.16762 20.7073 6.29278 20.8325 6.44674 20.9109C6.62175 21.0001 6.85087 21.0001 7.30909 21.0001H7.69091C8.14913 21.0001 8.37825 21.0001 8.55327 20.9109C8.70722 20.8325 8.83238 20.7073 8.91082 20.5534C9 20.3784 9 20.1492 9 19.691V19.3091C9 18.8509 9 18.6218 9.08918 18.4467C9.16762 18.2928 9.29278 18.1676 9.44673 18.0892C9.62175 18 9.85087 18 10.3091 18H11.6909C12.1491 18 12.3782 18 12.5533 18.0892C12.7072 18.1676 12.8324 18.2928 12.9108 18.4467C13 18.6218 13 18.8509 13 19.3091V19.691C13 20.1492 13 20.3784 13.0892 20.5534C13.1676 20.7073 13.2928 20.8325 13.4467 20.9109C13.6218 21.0001 13.8509 21.0001 14.3091 21.0001H14.6909C15.1491 21.0001 15.3782 21.0001 15.5533 20.9109C15.7072 20.8325 15.8324 20.7073 15.9108 20.5534C16 20.3784 16 20.1492 16 19.691V18.143C16 18.0641 16.064 18.0001 16.1429 18.0001C17.7208 18 19 16.7208 19 15.1429Z" stroke-width="2" stroke-linecap="round" stroke-linejoin="round" stroke="#000000" /><path d="M19.3636 13.6364C20.5 13.6364 21 13.5 21 10.5" stroke-width="2" stroke-linecap="round" stroke-linejoin="round" stroke="#000000" /><path d="M11 12L15 12" stroke-width="2" stroke-linecap="round" stroke-linejoin="round" stroke="#000000" /><path d="M10.55 5C10.7816 3.85888 11.7905 3 13 3C14.2095 3 15.2184 3.85888 15.45 5" stroke-width="2" stroke-linecap="round" stroke="#000000" /></svg>