<svg xmlns="http://www.w3.org/2000/svg" width="24" height="24" viewBox="0 0 24 24" fill="none"><path d="M4 3H20V11.2C20 12.8802 20 13.7202 19.673 14.362C19.3854 14.9265 18.9265 15.3854 18.362 15.673C17.7202 16 16.8802 16 15.2 16H8.8C7.11984 16 6.27976 16 5.63803 15.673C5.07354 15.3854 4.6146 14.9265 4.32698 14.362C4 13.7202 4 12.8802 4 11.2V3Z" stroke-width="2" stroke="#000000" /><path d="M2 3H22" stroke-width="2" stroke-linecap="round" stroke="#000000" /><path d="M12 16L6 21" stroke-width="2" stroke-linecap="round" stroke="#000000" /><path d="M12 16V21" stroke-width="2" stroke-linecap="round" stroke="#000000" /><path d="M12 16L18 21" stroke-width="2" stroke-linecap="round" stroke="#000000" /><path d="M8 7L8 12" stroke-width="2" stroke-linecap="round" stroke-linejoin="round" stroke="#000000" /><path d="M12 10L12 12" stroke-width="2" stroke-linecap="round" stroke-linejoin="round" stroke="#000000" /><path d="M16 8L16 12" stroke-width="2" stroke-linecap="round" stroke-linejoin="round" stroke="#000000" /></svg>