<svg xmlns="http://www.w3.org/2000/svg" width="24" height="24" viewBox="0 0 24 24" fill="none"><path d="M18 7C18 6.07003 18 5.60504 17.8978 5.22354C17.6204 4.18827 16.8117 3.37962 15.7765 3.10222C15.395 3 14.93 3 14 3H8.8C7.11984 3 6.27976 3 5.63803 3.32698C5.07354 3.6146 4.6146 4.07354 4.32698 4.63803C4 5.27976 4 6.11984 4 7.8V16.2C4 17.8802 4 18.7202 4.32698 19.362C4.6146 19.9265 5.07354 20.3854 5.63803 20.673C6.27976 21 7.11984 21 8.8 21H10" stroke-width="2" stroke-linecap="round" stroke="#000000" /><path d="M8 11H11" stroke-width="2" stroke-linecap="round" stroke="#000000" /><path d="M8 7H14" stroke-width="2" stroke-linecap="round" stroke="#000000" /><path d="M8 15H10" stroke-width="2" stroke-linecap="round" stroke="#000000" /><path d="M20 13C20 12.4477 19.5523 12 19 12H17M14 19C14 19.5523 14.4477 20 15 20H17M17 20H18.4C18.9601 20 19.2401 20 19.454 19.891C19.6422 19.7951 19.7951 19.6422 19.891 19.454C20 19.2401 20 18.9601 20 18.4L20 17.6C20 17.0399 20 16.7599 19.891 16.546C19.7951 16.3578 19.6422 16.2049 19.454 16.109C19.2401 16 18.9601 16 18.4 16H15.6C15.0399 16 14.7599 16 14.546 15.891C14.3578 15.7951 14.2049 15.6422 14.109 15.454C14 15.2401 14 14.9601 14 14.4L14 13.6C14 13.0399 14 12.7599 14.109 12.546C14.2049 12.3578 14.3578 12.2049 14.546 12.109C14.7599 12 15.0399 12 15.6 12H17M17 20V21M17 12V11" stroke-width="2" stroke-linecap="round" stroke-linejoin="round" stroke="#000000" /></svg>