<svg xmlns="http://www.w3.org/2000/svg" width="24" height="24" viewBox="0 0 24 24" fill="none"><path d="M12 2.00049C14.1014 2.00049 15.8244 3.62099 15.9874 5.68053C15.9969 5.80127 16.0017 5.86164 16.0246 5.90099C16.0458 5.93751 16.0729 5.96251 16.111 5.98079C16.152 6.00049 16.208 6.00049 16.32 6.00049H19C20.6569 6.00049 22 7.34363 22 9.00049V11.0513C22 11.2844 22 11.4009 21.9628 11.453C21.9266 11.5039 21.887 11.5275 21.825 11.5353C21.7615 11.5433 21.646 11.4811 21.4151 11.3567C20.9938 11.1297 20.5124 11.0005 20 11.0005C18.3431 11.0005 17 12.3436 17 14.0005C17.0003 15.6571 18.3433 17.0005 20 17.0005C20.5125 17.0005 20.9939 16.8705 21.4152 16.6429C21.6459 16.5182 21.7613 16.4559 21.8248 16.4639C21.8868 16.4716 21.9265 16.4953 21.9628 16.5461C22 16.5983 22 16.7148 22 16.9479V19.0005C21.9997 20.6571 20.6567 22.0005 19 22.0005H5C3.34331 22.0005 2.00026 20.6571 2 19.0005V9.00049C2 7.34363 3.34315 6.00049 5 6.00049H7.68C7.79201 6.00049 7.84801 6.00049 7.88904 5.98079C7.92712 5.96251 7.95418 5.93751 7.9754 5.90099C7.99828 5.86164 8.00305 5.80127 8.01261 5.68053C8.17561 3.62099 9.89856 2.00049 12 2.00049Z" stroke-width="2" stroke-linejoin="round" stroke-linecap="round" stroke="#000000" /></svg>