<svg xmlns="http://www.w3.org/2000/svg" width="24" height="24" viewBox="0 0 24 24" fill="none"><path d="M9.66891 3.79505C10.5197 3.32237 10.9451 3.08604 11.3956 2.99338C11.7944 2.91138 12.2056 2.91138 12.6044 2.99338C13.0549 3.08604 13.4803 3.32237 14.3311 3.79505L18.5311 6.12838C19.4297 6.62759 19.8789 6.87719 20.2061 7.2322C20.4955 7.54627 20.7146 7.91852 20.8485 8.32405C21 8.78244 21 9.29641 21 10.3243V13.6757C21 14.7036 21 15.2176 20.8485 15.676C20.7146 16.0815 20.4955 16.4537 20.2061 16.7678C19.8789 17.1228 19.4297 17.3724 18.5311 17.8716L14.3311 20.205C13.4803 20.6776 13.0549 20.914 12.6044 21.0066C12.2056 21.0886 11.7944 21.0886 11.3956 21.0066C10.9451 20.914 10.5197 20.6776 9.66891 20.205L5.46891 17.8716C4.57034 17.3724 4.12106 17.1228 3.7939 16.7678C3.50447 16.4537 3.28544 16.0815 3.15145 15.676C3 15.2176 3 14.7036 3 13.6757V10.3243C3 9.29641 3 8.78244 3.15145 8.32405C3.28544 7.91852 3.50447 7.54627 3.7939 7.2322C4.12106 6.87719 4.57034 6.62759 5.46891 6.12838L9.66891 3.79505Z" stroke-width="2" stroke-linejoin="round" stroke="#000000" /><path d="M10 10C10 8.99157 10.9019 8 12 8C13.0981 8 14 8.99157 14 10C14 10.5284 13.7524 10.9345 13.3587 11.2014C12.7056 11.6441 12 12.211 12 13" stroke-width="2" stroke-linecap="round" stroke-linejoin="round" stroke="#000000" /><path d="M12 16H12.0001" stroke-width="2" stroke-linecap="round" stroke="#000000" /></svg>