<svg xmlns="http://www.w3.org/2000/svg" width="24" height="24" viewBox="0 0 24 24" fill="none"><path d="M4 7.8C4 6.11984 4 5.27976 4.32698 4.63803C4.6146 4.07354 5.07354 3.6146 5.63803 3.32698C6.27976 3 7.11984 3 8.8 3H15.2C16.8802 3 17.7202 3 18.362 3.32698C18.9265 3.6146 19.3854 4.07354 19.673 4.63803C20 5.27976 20 6.11984 20 7.8V21L18 19L16 21L14 19L12 21L10 19L8 21L6 19L4 21V7.8Z" stroke-width="2" stroke-linejoin="round" stroke-linecap="round" stroke="#000000" /><path d="M14.6373 7.0166H9.39072C10.6149 7.01653 13.1216 7.0166 13.1216 10.0092C13.1216 12.4187 11.2561 12.6713 9.39072 12.6713L14.2292 15.45" stroke-width="2" stroke-linecap="round" stroke-linejoin="round" stroke="#000000" /></svg>