<svg xmlns="http://www.w3.org/2000/svg" width="24" height="24" viewBox="0 0 24 24" fill="none"><path d="M14 19C14 20.1046 12 22 12 22C12 22 10 20.1046 10 19C10 17.8954 10.8954 17 12 17C13.1046 17 14 17.8954 14 19Z" stroke-width="2" stroke-linejoin="round" stroke-linecap="round" stroke="#000000" /><path d="M7.99545 10.4878C7.80576 8.59087 7.71091 7.6424 7.88944 6.75736C8.04748 5.97391 8.36044 5.22994 8.80996 4.56912C9.31777 3.82259 10.0621 3.22713 11.5507 2.03622L12.0001 1.67676L12.4494 2.03622C13.938 3.22713 14.6823 3.82259 15.1902 4.56912C15.6397 5.22994 15.9526 5.97391 16.1107 6.75736C16.2892 7.6424 16.1944 8.59087 16.0047 10.4878L15.6191 14.3434C13.3409 13.2043 10.6593 13.2043 8.38101 14.3434L7.99545 10.4878Z" stroke-width="2" stroke-linejoin="round" stroke-linecap="round" stroke="#000000" /><path d="M8.01911 10.7244L8.38101 14.3434L7.88829 15.0004C7.24288 15.8609 6.92017 16.2912 6.60941 16.3868C6.25029 16.4974 5.85951 16.3973 5.59777 16.1277C5.37129 15.8944 5.29522 15.3619 5.1431 14.2971C5.01796 13.4211 4.95538 12.9831 5.04904 12.605C5.15783 12.1658 5.41235 11.7764 5.77101 11.5006C6.07977 11.2631 6.50606 11.1447 7.35866 10.9078L8.01911 10.7244Z" stroke-width="2" stroke-linejoin="round" stroke-linecap="round" stroke="#000000" /><path d="M15.6191 14.3434L15.981 10.7244L16.6415 10.9078C17.4941 11.1447 17.9204 11.2631 18.2291 11.5006C18.5878 11.7764 18.8423 12.1658 18.9511 12.605C19.0447 12.9831 18.9822 13.4211 18.857 14.2971C18.7049 15.3619 18.6288 15.8944 18.4023 16.1277C18.1406 16.3973 17.7498 16.4974 17.3907 16.3868C17.08 16.2912 16.7572 15.8609 16.1118 15.0004L15.6191 14.3434Z" stroke-width="2" stroke-linejoin="round" stroke-linecap="round" stroke="#000000" /></svg>