<svg xmlns="http://www.w3.org/2000/svg" width="24" height="24" viewBox="0 0 24 24" fill="none"><path d="M8.61371 18.1274C7.83266 18.9085 5.07817 18.8345 5.07817 18.8345C5.07817 18.8345 5.00423 16.08 5.78528 15.299C6.56633 14.5179 7.83266 14.5179 8.61371 15.299C9.39476 16.08 9.39476 17.3464 8.61371 18.1274Z" stroke-width="2" stroke-linejoin="round" stroke="#000000" /><path d="M9.16362 7.07345C6.49227 6.43273 3.91272 7.57611 2.95686 8.22789L5.78529 11.0563L8.17371 11.3217C9.33583 11.4508 10.3756 11.9741 11.1571 12.7556M5.78529 11.0563L8.9055 7.36879C8.99015 7.26875 9.07621 7.1703 9.16362 7.07345M16.8185 14.4806C17.4426 17.5028 16.3227 20.0567 15.6848 20.9558L12.8564 18.1274L12.591 15.739C12.4618 14.5768 11.9386 13.5371 11.1571 12.7556M12.8564 18.1274L16.6903 14.6001C16.7334 14.5605 16.7761 14.5207 16.8185 14.4806M9.16362 7.07345C12.0439 3.88217 16.4003 2.43129 20.6345 3.27814C21.288 7.4166 19.8571 11.6069 16.8185 14.4806M11.1571 12.7556L14.2706 9.6421" stroke-width="2" stroke-linecap="round" stroke-linejoin="round" stroke="#000000" /></svg>