<svg xmlns="http://www.w3.org/2000/svg" width="24" height="24" viewBox="0 0 24 24" fill="none"><path d="M3 17C3 16.07 3 15.605 3.10222 15.2235C3.37962 14.1883 4.18827 13.3796 5.22354 13.1022C5.60504 13 6.07003 13 7 13H17C17.93 13 18.395 13 18.7765 13.1022C19.8117 13.3796 20.6204 14.1883 20.8978 15.2235C21 15.605 21 16.07 21 17C21 17.93 21 18.395 20.8978 18.7765C20.6204 19.8117 19.8117 20.6204 18.7765 20.8978C18.395 21 17.93 21 17 21H7C6.07003 21 5.60504 21 5.22354 20.8978C4.18827 20.6204 3.37962 19.8117 3.10222 18.7765C3 18.395 3 17.93 3 17Z" stroke-width="2" stroke="#000000" /><path d="M16 17H16.0001" stroke-width="2" stroke-linecap="round" stroke="#000000" /><path d="M16 13L16 11" stroke-width="2" stroke-linecap="round" stroke="#000000" /><path d="M7 17H10" stroke-width="2" stroke-linecap="round" stroke="#000000" /><path d="M12 4C13.2599 3.3508 14.6042 3 16 3C17.3958 3 18.7401 3.3508 20 4" stroke-width="2" stroke-linecap="round" stroke="#000000" /><path d="M14 7.55298C14.6519 7.18891 15.3198 7 16 7C16.6802 7 17.3481 7.18891 18 7.55298" stroke-width="2" stroke-linecap="round" stroke="#000000" /></svg>