<svg xmlns="http://www.w3.org/2000/svg" width="24" height="24" viewBox="0 0 24 24" fill="none"><path d="M8.59865 19.5C8.85391 19.0587 9 18.5464 9 18C9 16.3431 7.65685 15 6 15C4.34315 15 3 16.3431 3 18C3 19.6569 4.34315 21 6 21C7.11042 21 8.07994 20.3967 8.59865 19.5ZM8.59865 19.5L18 3M15.4013 19.5C15.1461 19.0587 15 18.5464 15 18C15 16.3431 16.3431 15 18 15C19.6569 15 21 16.3431 21 18C21 19.6569 19.6569 21 18 21C16.8896 21 15.9201 20.3967 15.4013 19.5ZM15.4013 19.5L6 3" stroke-width="2" stroke-linecap="round" stroke-linejoin="round" stroke="#000000" /></svg>