<svg xmlns="http://www.w3.org/2000/svg" width="24" height="24" viewBox="0 0 24 24" fill="none"><path d="M6.59411 4.40589C7.11297 3.88703 7.3724 3.6276 7.67515 3.44208C7.94356 3.27759 8.2362 3.15638 8.5423 3.08289C8.88757 3 9.25445 3 9.98823 3H15.2C16.8802 3 17.7202 3 18.362 3.32698C18.9265 3.6146 19.3854 4.07354 19.673 4.63803C20 5.27976 20 6.11984 20 7.8V16.2C20 17.8802 20 18.7202 19.673 19.362C19.3854 19.9265 18.9265 20.3854 18.362 20.673C17.7202 21 16.8802 21 15.2 21H8.8C7.11984 21 6.27976 21 5.63803 20.673C5.07354 20.3854 4.6146 19.9265 4.32698 19.362C4 18.7202 4 17.8802 4 16.2V8.98822C4 8.25445 4 7.88757 4.08289 7.5423C4.15638 7.2362 4.27759 6.94356 4.44208 6.67515C4.6276 6.3724 4.88703 6.11297 5.40589 5.59411L6.59411 4.40589Z" stroke-width="2" stroke="#000000" /><path d="M16 7V9" stroke-width="2" stroke-linecap="round" stroke="#000000" /><path d="M12 7V9" stroke-width="2" stroke-linecap="round" stroke="#000000" /></svg>