<svg xmlns="http://www.w3.org/2000/svg" width="24" height="24" viewBox="0 0 24 24" fill="none"><path d="M12.8269 14H9.77895C8.80622 14 8.31986 14 7.94833 13.8107C7.62152 13.6442 7.35582 13.3785 7.1893 13.0517C7 12.6801 7 12.1938 7 11.2211V5.77895C7 4.80622 7 4.31986 7.1893 3.94833C7.35582 3.62152 7.62152 3.35582 7.94833 3.1893C8.31986 3 8.80622 3 9.77895 3H15.2211C16.1938 3 16.6801 3 17.0517 3.1893C17.3785 3.35582 17.6442 3.62152 17.8107 3.94833C18 4.31986 18 4.80622 18 5.77895V13.2706C18 13.6734 17.6734 14 17.2706 14" stroke-width="2" stroke-linecap="round" stroke="#000000" /><path d="M7 9.34143C4.66962 10.1651 3 12.3876 3 15C3 18.3137 5.68629 21 9 21C9.34071 21 9.67479 20.9716 10 20.9171" stroke-width="2" stroke-linecap="round" stroke="#000000" /><path d="M14.2625 11.4861C14.5302 11.0021 14.664 10.7601 14.8399 10.6811C14.9931 10.6121 15.1687 10.6132 15.3211 10.6839C15.4959 10.7651 15.6269 11.0086 15.8889 11.4958L20.2659 19.635C20.5079 20.085 20.6289 20.31 20.6057 20.4937C20.5854 20.6541 20.499 20.7987 20.3673 20.8925C20.2165 21 19.961 21 19.4501 21H10.571C10.054 21 9.7955 21 9.64414 20.8913C9.51207 20.7964 9.42597 20.6504 9.4069 20.489C9.38504 20.3039 9.51016 20.0777 9.76038 19.6253L14.2625 11.4861Z" stroke-width="2" stroke-linecap="round" stroke-linejoin="round" stroke="#000000" /></svg>