<svg xmlns="http://www.w3.org/2000/svg" width="24" height="24" viewBox="0 0 24 24" fill="none"><path d="M17.1775 17.1564C16.104 18.3011 14.691 19.391 12.7911 20.5361C12.5141 20.703 12.3756 20.7865 12.2153 20.8218C12.0796 20.8517 11.9204 20.8517 11.7847 20.8218C11.6244 20.7865 11.4859 20.703 11.2089 20.5361C5.31878 16.9862 4.10902 13.9662 3.18411 8.20157C3.11619 7.77823 3.08223 7.56656 3.12852 7.37268C3.16898 7.20327 3.25583 7.04306 3.3757 6.9167C3.51289 6.77209 3.71202 6.68359 4.11027 6.50659L5.79577 5.75748M9.20175 4.24371L11.3502 3.28885C11.5895 3.1825 11.7091 3.12932 11.8335 3.10832C11.9437 3.08971 12.0563 3.08971 12.1665 3.10832C12.2909 3.12932 12.4105 3.1825 12.6498 3.28885L19.8897 6.50659C20.288 6.68359 20.4871 6.77209 20.6243 6.9167C20.7442 7.04306 20.831 7.20327 20.8715 7.37268C20.9178 7.56656 20.8838 7.77823 20.8159 8.20157C20.428 10.6193 19.9899 12.5543 19.1775 14.2481" stroke-width="2" stroke-linecap="round" stroke-linejoin="round" stroke="#000000" /><path d="M3 3L21 21" stroke-width="2" stroke-linecap="round" stroke="#000000" /></svg>