<svg xmlns="http://www.w3.org/2000/svg" width="24" height="24" viewBox="0 0 24 24" fill="none"><path d="M6 20L3 15.2857L4 15.1429L11.1515 14.1212C11.7143 14.0408 12.2857 14.0408 12.8485 14.1212L20 15.1429L21 15.2857L18 20M4 15.1429L4.75 11.5714M20 15.1429L19.25 11.5714M19.25 11.5714L18.8337 9.58897C18.6392 8.66301 17.8225 8 16.8764 8H7.12362C6.17747 8 5.36077 8.66301 5.16632 9.58897L4.75 11.5714M19.25 11.5714L16 11M4.75 11.5714L8 11" stroke-width="2" stroke-linecap="round" stroke-linejoin="round" stroke="#000000" /><path d="M4.63635 21.0001L5.86363 20.182C6.6068 19.6865 7.57499 19.6865 8.31817 20.182C9.06135 20.6774 10.0295 20.6774 10.7727 20.182C11.5159 19.6865 12.4841 19.6865 13.2273 20.182C13.9704 20.6774 14.9386 20.6774 15.6818 20.182C16.425 19.6865 17.3932 19.6865 18.1364 20.182L19.3636 21.0001" stroke-width="2" stroke-linecap="round" stroke-linejoin="round" stroke="#000000" /><path d="M12 15L12 19" stroke-width="2" stroke-linecap="round" stroke-linejoin="round" stroke="#000000" /><path d="M12 2L12 4" stroke-width="2" stroke-linecap="round" stroke-linejoin="round" stroke="#000000" /><path d="M9 8L9 5C9 4.44772 9.44772 4 10 4L14 4C14.5523 4 15 4.44772 15 5L15 8" stroke-width="2" stroke-linecap="round" stroke-linejoin="round" stroke="#000000" /></svg>