<svg xmlns="http://www.w3.org/2000/svg" width="24" height="24" viewBox="0 0 24 24" fill="none"><path d="M6 10H3L5.3971 18.7894C5.75306 20.0945 6.93853 21 8.29139 21H15.7086C17.0615 21 18.2469 20.0945 18.6029 18.7894L21 10H18M6 10H18M6 10L7.37833 5.17584C7.7463 3.88793 8.92346 3 10.2629 3H12H13.7371C15.0765 3 16.2537 3.88793 16.6217 5.17584L18 10" stroke-width="2" stroke-linecap="round" stroke-linejoin="round" stroke="#000000" /><path d="M11 4H13" stroke-width="2" stroke-linecap="round" stroke-linejoin="round" stroke="#000000" /><path d="M13 15C13 15.5523 12.5523 16 12 16C11.4477 16 11 15.5523 11 15C11 14.4477 11.4477 14 12 14C12.5523 14 13 14.4477 13 15Z" stroke-width="2" stroke="#000000" /></svg>