<svg xmlns="http://www.w3.org/2000/svg" width="24" height="24" viewBox="0 0 24 24" fill="none"><path d="M12.3686 10.8686L9.73137 8.23137L9.73137 8.23137C8.87462 7.37462 8.44624 6.94624 8.07846 6.9173C7.75934 6.89218 7.44749 7.02136 7.23959 7.26477C7 7.54529 7 8.15111 7 9.36274L7 14.6373C7 15.8489 7 16.4547 7.23959 16.7352C7.44748 16.9786 7.75934 17.1078 8.07846 17.0827C8.44624 17.0538 8.87462 16.6254 9.73137 15.7686L12.3686 13.1314C12.7646 12.7354 12.9627 12.5373 13.0368 12.309C13.1021 12.1082 13.1021 11.8918 13.0368 11.691C12.9627 11.4627 12.7646 11.2646 12.3686 10.8686Z" stroke-width="2" stroke-linecap="round" stroke="#000000" /><path d="M17 7L17 17" stroke-width="2" stroke-linecap="round" stroke-linejoin="round" stroke="#000000" /></svg>