<svg xmlns="http://www.w3.org/2000/svg" width="24" height="24" viewBox="0 0 24 24" fill="none"><path d="M3 7.8C3 6.11984 3 5.27976 3.32698 4.63803C3.6146 4.07354 4.07354 3.6146 4.63803 3.32698C5.27976 3 6.11984 3 7.8 3H16.2C17.8802 3 18.7202 3 19.362 3.32698C19.9265 3.6146 20.3854 4.07354 20.673 4.63803C21 5.27976 21 6.11984 21 7.8V11.2C21 12.8802 21 13.7202 20.673 14.362C20.3854 14.9265 19.9265 15.3854 19.362 15.673C18.7202 16 17.8802 16 16.2 16H7.8C6.11984 16 5.27976 16 4.63803 15.673C4.07354 15.3854 3.6146 14.9265 3.32698 14.362C3 13.7202 3 12.8802 3 11.2V7.8Z" stroke-width="2" stroke="#000000" /><path d="M15 16H6L15.1495 9.59535C15.4574 9.37984 15.6113 9.27208 15.7796 9.22634C15.9284 9.1859 16.0845 9.18041 16.2357 9.21029C16.4068 9.2441 16.568 9.34078 16.8902 9.53414L20.7755 11.8653" stroke-width="2" stroke-linejoin="round" stroke="#000000" /><path d="M9 8C9 8.55228 8.55228 9 8 9C7.44772 9 7 8.55228 7 8C7 7.44772 7.44772 7 8 7C8.55228 7 9 7.44772 9 8Z" stroke-width="2" stroke="#000000" /><path d="M7.14442 20.5H6.84565M7.5 20.5C7.5 20.7761 7.27614 21 7 21C6.72386 21 6.5 20.7761 6.5 20.5C6.5 20.2239 6.72386 20 7 20C7.27614 20 7.5 20.2239 7.5 20.5Z" stroke-width="2" stroke-linecap="round" stroke="#000000" /><path d="M12.1444 20.5H11.8456M12.5 20.5C12.5 20.7761 12.2761 21 12 21C11.7239 21 11.5 20.7761 11.5 20.5C11.5 20.2239 11.7239 20 12 20C12.2761 20 12.5 20.2239 12.5 20.5Z" stroke-width="2" stroke-linecap="round" stroke="#000000" /><path d="M17.1444 20.5H16.8456M17.5 20.5C17.5 20.7761 17.2761 21 17 21C16.7239 21 16.5 20.7761 16.5 20.5C16.5 20.2239 16.7239 20 17 20C17.2761 20 17.5 20.2239 17.5 20.5Z" stroke-width="2" stroke-linecap="round" stroke="#000000" /></svg>