<svg xmlns="http://www.w3.org/2000/svg" width="24" height="24" viewBox="0 0 24 24" fill="none"><path d="M11.9997 7.5V16.5M11.9997 7.5V3M11.9997 7.5L14.2497 4.5M11.9997 7.5L9.74969 4.5M11.9997 16.5V21M11.9997 16.5L9.74969 19.5M11.9997 16.5L14.2497 19.5" stroke-width="2" stroke-linecap="round" stroke="#000000" /><path d="M15.8968 9.75001L8.10259 14.25M15.8968 9.75001L19.7939 7.50001M15.8968 9.75001L19.6199 10.1986M15.8968 9.75001L17.3699 6.30145M8.10259 14.25L4.20547 16.5M8.10259 14.25L4.37951 13.8015M8.10259 14.25L6.62951 17.6986" stroke-width="2" stroke-linecap="round" stroke="#000000" /><path d="M15.8968 14.25L8.10259 9.75001M15.8968 14.25L19.7939 16.5M15.8968 14.25L17.3699 17.6986M15.8968 14.25L19.6199 13.8015M8.10259 9.75001L4.20547 7.50001M8.10259 9.75001L6.62951 6.30145M8.10259 9.75001L4.37951 10.1986" stroke-width="2" stroke-linecap="round" stroke="#000000" /></svg>