<svg xmlns="http://www.w3.org/2000/svg" width="24" height="24" viewBox="0 0 24 24" fill="none"><path d="M11.9989 6V18M11.9989 6L8.99893 3M11.9989 6L14.9989 3M11.9989 18L8.99893 21M11.9989 18L14.9989 21" stroke-width="2" stroke-linecap="round" stroke="#000000" /><path d="M17.1951 8.99999L6.80277 15M17.1951 8.99999L18.2932 4.90192M17.1951 8.99999L21.2932 10.0981M6.80277 15L2.70469 13.9019M6.80277 15L5.70469 19.0981" stroke-width="2" stroke-linecap="round" stroke="#000000" /><path d="M17.1951 15L6.80279 8.99999M17.1951 15L21.2932 13.9019M17.1951 15L18.2932 19.0981M6.80279 8.99999L5.70471 4.90191M6.80279 8.99999L2.70471 10.0981" stroke-width="2" stroke-linecap="round" stroke="#000000" /></svg>