<svg xmlns="http://www.w3.org/2000/svg" width="24" height="24" viewBox="0 0 24 24" fill="none"><path d="M8 7H16C16.5523 7 17 7.44772 17 8V16C17 16.5523 16.5523 17 16 17H8C7.44772 17 7 16.5523 7 16V8C7 7.44772 7.44772 7 8 7Z" stroke-width="2" stroke-linecap="round" stroke-linejoin="round" stroke="#000000" /><path d="M3 9V11" stroke-width="2" stroke-linecap="round" stroke-linejoin="round" stroke="#000000" /><path d="M3 5V4C3 3.44772 3.44772 3 4 3H5" stroke-width="2" stroke-linecap="round" stroke-linejoin="round" stroke="#000000" /><path d="M3 15V16C3 16.5523 3.44772 17 4 17" stroke-width="2" stroke-linecap="round" stroke-linejoin="round" stroke="#000000" /><path d="M9 3H11" stroke-width="2" stroke-linecap="round" stroke-linejoin="round" stroke="#000000" /><path d="M15 3H16C16.5523 3 17 3.44772 17 4" stroke-width="2" stroke-linecap="round" stroke-linejoin="round" stroke="#000000" /><path d="M21 15V13" stroke-width="2" stroke-linecap="round" stroke-linejoin="round" stroke="#000000" /><path d="M21 19V20C21 20.5523 20.5523 21 20 21H19" stroke-width="2" stroke-linecap="round" stroke-linejoin="round" stroke="#000000" /><path d="M21 9V8C21 7.44772 20.5523 7 20 7" stroke-width="2" stroke-linecap="round" stroke-linejoin="round" stroke="#000000" /><path d="M15 21H13" stroke-width="2" stroke-linecap="round" stroke-linejoin="round" stroke="#000000" /><path d="M9 21H8C7.44772 21 7 20.5523 7 20" stroke-width="2" stroke-linecap="round" stroke-linejoin="round" stroke="#000000" /></svg>