<svg xmlns="http://www.w3.org/2000/svg" width="24" height="24" viewBox="0 0 24 24" fill="none"><path d="M15.0715 8.42443L12.4078 4.06556C12.2214 3.76064 11.7786 3.76064 11.5922 4.06556L8.92848 8.42443C8.85592 8.54317 8.73522 8.62438 8.5979 8.64685L3.3728 9.50186C2.9866 9.56506 2.83593 10.0403 3.11518 10.3145L7.04318 14.171C7.15477 14.2806 7.20569 14.4378 7.17952 14.592L6.32262 19.6399C6.25612 20.0316 6.66904 20.3287 7.01936 20.1411L11.7744 17.5946C11.9153 17.5191 12.0847 17.5191 12.2256 17.5946L16.9806 20.1411C17.331 20.3287 17.7439 20.0317 17.6774 19.6399L16.8205 14.592C16.7943 14.4378 16.8452 14.2806 16.9568 14.171L20.8848 10.3145C21.1641 10.0403 21.0134 9.56506 20.6272 9.50186L15.4021 8.64685C15.2648 8.62438 15.1441 8.54317 15.0715 8.42443Z" stroke-width="2" stroke="#000000" /></svg>