<svg xmlns="http://www.w3.org/2000/svg" width="24" height="24" viewBox="0 0 24 24" fill="none"><path d="M3 13C3 15.8003 3 17.2004 3.54497 18.27C4.02433 19.2108 4.78924 19.9757 5.73005 20.455C6.79961 21 8.19974 21 11 21C11.6403 21 12.2544 20.7456 12.7071 20.2929L20.2929 12.7071C20.7456 12.2544 21 11.6403 21 11C21 8.19974 21 6.79961 20.455 5.73005C19.9757 4.78924 19.2108 4.02433 18.27 3.54497C17.2004 3 15.8003 3 13 3H11C8.19974 3 6.79961 3 5.73005 3.54497C4.78924 4.02433 4.02434 4.78924 3.54497 5.73005C3 6.79961 3 8.19974 3 11L3 13Z" stroke-width="2" stroke="#000000" /><path d="M19.8881 11.4382C14.9916 9.56631 9.56628 14.9916 11.4382 19.8881C11.6666 20.4856 12.4291 20.5709 12.8815 20.1185L20.1185 12.8815C20.5709 12.4291 20.4856 11.6666 19.8881 11.4382Z" stroke-width="2" stroke="#000000" /></svg>