<svg xmlns="http://www.w3.org/2000/svg" width="24" height="24" viewBox="0 0 24 24" fill="none"><path d="M3 13C3 17.4183 6.58172 21 11 21C11.6403 21 12.2544 20.7456 12.7071 20.2929L20.2929 12.7071C20.7456 12.2544 21 11.6403 21 11C21 6.58172 17.4183 3 13 3H12C7.02944 3 3 7.02944 3 12L3 13Z" stroke-width="2" stroke="#000000" /><path d="M19.8881 11.4382C14.9916 9.56631 9.56628 14.9916 11.4382 19.8881C11.6666 20.4856 12.4291 20.5709 12.8815 20.1185L20.1185 12.8815C20.5709 12.4291 20.4856 11.6666 19.8881 11.4382Z" stroke-width="2" stroke="#000000" /></svg>