<svg xmlns="http://www.w3.org/2000/svg" width="24" height="24" viewBox="0 0 24 24" fill="none"><path d="M5 8V21H19V8" stroke-width="2" stroke-linecap="round" stroke="#000000" /><path d="M3 4C3 3.44772 3.44772 3 4 3H9V5C9 6.65685 7.65685 8 6 8C4.34315 8 3 6.65685 3 5V4Z" stroke-width="2" stroke-linecap="round" stroke="#000000" /><path d="M9 3H15V5C15 6.65685 13.6569 8 12 8C10.3431 8 9 6.65685 9 5V3Z" stroke-width="2" stroke-linecap="round" stroke="#000000" /><path d="M15 3H20C20.5523 3 21 3.44772 21 4V5C21 6.65685 19.6569 8 18 8C16.3431 8 15 6.65685 15 5V3Z" stroke-width="2" stroke-linecap="round" stroke="#000000" /><path d="M3 21H21" stroke-width="2" stroke-linecap="round" stroke="#000000" /><path d="M8 14L16 14" stroke-width="2" stroke-linecap="round" stroke="#000000" /><path d="M9 14H15V21H9V14Z" stroke-width="2" stroke-linecap="round" stroke="#000000" /></svg>