<svg xmlns="http://www.w3.org/2000/svg" width="24" height="24" viewBox="0 0 24 24" fill="none"><path d="M21 14H15" stroke-width="2" stroke-linecap="round" stroke-linejoin="round" stroke="#000000" /><path d="M18.1922 18L17.3756 18.8166C16.1875 20.0047 15.5935 20.5987 14.9085 20.8213C14.306 21.017 13.657 21.017 13.0544 20.8213C12.3694 20.5987 11.7754 20.0047 10.5874 18.8166L4.62166 12.8509C3.92491 12.1542 3.57653 11.8058 3.36269 11.3929C3.17345 11.0274 3.06141 10.627 3.03355 10.2164C3.00207 9.75243 3.11909 9.27385 3.35314 8.31669L3.64059 7.14111C3.89207 6.11266 4.01781 5.59843 4.28399 5.18054C4.51942 4.81095 4.83295 4.49741 5.20255 4.26199C5.62043 3.99581 6.13466 3.87007 7.16312 3.61859L8.3387 3.33114C9.29585 3.09709 9.77443 2.98007 10.2384 3.01155C10.649 3.03941 11.0494 3.15145 11.4149 3.34069C11.8278 3.55453 12.1762 3.90291 12.8729 4.59966L18.2733 10" stroke-width="2" stroke-linecap="round" stroke="#000000" /><path d="M10.1613 9.05322C10.1613 9.60551 9.71362 10.0532 9.16133 10.0532C8.60905 10.0532 8.16133 9.60551 8.16133 9.05322C8.16133 8.50094 8.60905 8.05322 9.16133 8.05322C9.71362 8.05322 10.1613 8.50094 10.1613 9.05322Z" stroke-width="2" stroke="#000000" /></svg>