<svg xmlns="http://www.w3.org/2000/svg" width="24" height="24" viewBox="0 0 24 24" fill="none"><path d="M12.8729 4.59966C12.1762 3.90291 11.8278 3.55453 11.4149 3.34069C11.0494 3.15145 10.649 3.03941 10.2384 3.01155C9.77443 2.98007 9.29585 3.09709 8.3387 3.33114L7.16312 3.61859C6.13466 3.87007 5.62043 3.99581 5.20255 4.26199C4.83295 4.49741 4.51942 4.81095 4.28399 5.18054C4.01781 5.59843 3.89207 6.11266 3.64059 7.14111L3.35314 8.31669C3.11909 9.27385 3.00207 9.75243 3.03355 10.2164C3.06141 10.627 3.17345 11.0274 3.36269 11.3929C3.57653 11.8058 3.92491 12.1542 4.62166 12.8509L10.5874 18.8166C11.7754 20.0047 12.3694 20.5987 13.0544 20.8213C13.657 21.017 14.306 21.017 14.9085 20.8213C15.5935 20.5987 16.1875 20.0047 17.3756 18.8166L18.8386 17.3536C20.0267 16.1655 20.6207 15.5715 20.8433 14.8865C21.039 14.284 21.039 13.635 20.8433 13.0324C20.6207 12.3474 20.0267 11.7534 18.8386 10.5654L12.8729 4.59966Z" stroke-width="2" stroke="#000000" /><path d="M10.1613 9.05322C10.1613 9.60551 9.71362 10.0532 9.16133 10.0532C8.60905 10.0532 8.16133 9.60551 8.16133 9.05322C8.16133 8.50094 8.60905 8.05322 9.16133 8.05322C9.71362 8.05322 10.1613 8.50094 10.1613 9.05322Z" stroke-width="2" stroke="#000000" /></svg>