<svg xmlns="http://www.w3.org/2000/svg" width="24" height="24" viewBox="0 0 24 24" fill="none"><path d="M3.14602 6.2583C2.90367 6.63877 2.78919 7.10697 2.56022 8.04335L2.29851 9.11369C2.08541 9.98516 1.97887 10.4209 2.00753 10.8433C2.03289 11.2171 2.1349 11.5817 2.3072 11.9145C2.5019 12.2904 2.81909 12.6076 3.45346 13.242L8.8851 18.6736C9.96679 19.7553 10.5076 20.2962 11.1313 20.4988" stroke-width="2" stroke-linecap="round" stroke-linejoin="round" stroke="#000000" /><path d="M14.6079 4.81966C13.9735 4.18529 13.6563 3.8681 13.2804 3.67341C12.9476 3.5011 12.583 3.3991 12.2092 3.37373C11.7868 3.34507 11.3511 3.45162 10.4796 3.66471L9.40925 3.92643C8.47286 4.15539 8.00467 4.26988 7.6242 4.51223C7.28769 4.72658 7.00223 5.01204 6.78788 5.34855C6.54553 5.72902 6.43104 6.19721 6.20208 7.1336L5.94036 8.20394C5.72727 9.0754 5.62072 9.51114 5.64938 9.93356C5.67475 10.3074 5.77675 10.672 5.94906 11.0047C6.14375 11.3807 6.46094 11.6979 7.09532 12.3322L12.527 17.7639C13.6086 18.8456 14.1495 19.3864 14.7732 19.5891C15.3217 19.7673 15.9127 19.7673 16.4613 19.5891C17.0849 19.3864 17.6258 18.8456 18.7075 17.7639L20.0395 16.4318C21.1212 15.3501 21.6621 14.8093 21.8647 14.1856C22.043 13.637 22.043 13.0461 21.8647 12.4975C21.6621 11.8738 21.1212 11.333 20.0395 10.2513L14.6079 4.81966Z" stroke-width="2" stroke-linejoin="round" stroke-linecap="round" stroke="#000000" /><path d="M12.364 9.08301C12.364 9.63529 11.9163 10.083 11.364 10.083C10.8118 10.083 10.364 9.63529 10.364 9.08301C10.364 8.53072 10.8118 8.08301 11.364 8.08301C11.9163 8.08301 12.364 8.53072 12.364 9.08301Z" stroke-width="2" stroke-linejoin="round" stroke-linecap="round" stroke="#000000" /></svg>