<svg xmlns="http://www.w3.org/2000/svg" width="24" height="24" viewBox="0 0 24 24" fill="none"><circle cx="12" cy="11.9999" r="1" transform="rotate(45 12 11.9999)" stroke-width="2" stroke="#000000" /><path d="M17.8284 6.17157L17.3045 3.55215C17.2262 3.16056 16.7431 3.01428 16.4607 3.29666L14.4821 5.27525C14.3639 5.39346 14.3126 5.56293 14.3454 5.72686L15 9L18.2731 9.65463C18.4371 9.68741 18.6065 9.6361 18.7247 9.51789L20.7033 7.5393C20.9857 7.25692 20.8394 6.77378 20.4478 6.69546L17.8284 6.17157Z" stroke-width="2" stroke-linecap="round" stroke="#000000" /><path d="M15 9L12 12" stroke-width="2" stroke-linecap="round" stroke-linejoin="round" stroke="#000000" /><path d="M10.5 3.12451C6.24343 3.83863 3 7.54058 3 12.0001C3 16.9706 7.02944 21.0001 12 21.0001C16.4595 21.0001 20.1615 17.7566 20.8756 13.5" stroke-width="2" stroke-linecap="round" stroke="#000000" /><path d="M10.5 7.229C8.47145 7.86614 7 9.76128 7 12.0001C7 14.7615 9.23858 17.0001 12 17.0001C14.2389 17.0001 16.134 15.5286 16.7711 13.5" stroke-width="2" stroke-linecap="round" stroke="#000000" /></svg>