<svg xmlns="http://www.w3.org/2000/svg" width="24" height="24" viewBox="0 0 24 24" fill="none"><path d="M14 13L10 16" stroke-width="2" stroke-linecap="round" stroke-linejoin="round" stroke="#000000" /><path d="M9 12H9.0001" stroke-width="2" stroke-linecap="round" stroke="#000000" /><path d="M15 17H15.0001" stroke-width="2" stroke-linecap="round" stroke="#000000" /><path d="M8.14094 8H15.8591C17.2808 8 18.5073 8.99793 18.7964 10.3899L20.2502 17.3899C20.637 19.2524 19.2151 21 17.3129 21H6.6871C4.78491 21 3.36297 19.2524 3.74978 17.3899L5.20363 10.3899C5.49274 8.99793 6.71922 8 8.14094 8Z" stroke-width="2" stroke-linecap="round" stroke-linejoin="round" stroke="#000000" /><path d="M14.5 5.5C14.5 6.88071 13.3807 8 12 8C10.6193 8 9.5 6.88071 9.5 5.5C9.5 4.11929 10.6193 3 12 3C13.3807 3 14.5 4.11929 14.5 5.5Z" stroke-width="2" stroke-linecap="round" stroke-linejoin="round" stroke="#000000" /></svg>