<svg xmlns="http://www.w3.org/2000/svg" width="24" height="24" viewBox="0 0 24 24" fill="none"><path d="M14.8996 5.00024H19.0002V9.10083L21.8996 12.0002L19.0002 14.8997V19.0002H14.8996L12.0002 21.8997L9.10074 19.0002H5.00015V14.8997L2.10074 12.0002L5.00015 9.10083V5.00024H9.10074L12.0002 2.10083L14.8996 5.00024Z" stroke-width="2" stroke-linecap="round" stroke-linejoin="round" stroke="#000000" /><path d="M9 15V13M15 15V13M15 13V11.4721C15 11.1616 14.9277 10.8554 14.7889 10.5777L14.5528 10.1056C14.214 9.428 13.5215 9 12.7639 9H11.2361C10.4785 9 9.786 9.428 9.44721 10.1056L9.21115 10.5777C9.07229 10.8554 9 11.1616 9 11.4721V13M15 13H9" stroke-width="2" stroke-linecap="round" stroke-linejoin="round" stroke="#000000" /></svg>