<svg xmlns="http://www.w3.org/2000/svg" width="24" height="24" viewBox="0 0 24 24" fill="none"><path d="M13 16C13 16.5523 12.5523 17 12 17C11.4477 17 11 16.5523 11 16C11 15.4477 11.4477 15 12 15C12.5523 15 13 15.4477 13 16Z" stroke-width="2" stroke="#000000" /><path d="M12 21C14.7614 21 17 18.7614 17 16C17 13.9497 15.7659 12.1876 14 11.416V5C14 3.89543 13.1046 3 12 3C10.8954 3 10 3.89543 10 5V11.416C8.2341 12.1876 7 13.9497 7 16C7 18.7614 9.23858 21 12 21Z" stroke-width="2" stroke-linecap="round" stroke-linejoin="round" stroke="#000000" /></svg>