<svg xmlns="http://www.w3.org/2000/svg" width="24" height="24" viewBox="0 0 24 24" fill="none"><path d="M20 7.47223L19.9838 7.47103C17.7079 7.30798 15.7259 5.56468 15.66 3L12.8251 3.01321C12.8036 6.02932 12.8176 9.04604 12.8106 12.07C12.8036 13.4132 12.8326 14.7486 12.7602 16.0918C12.6819 17.2253 11.6741 18.0956 10.4568 18.0956C6.64445 18.0956 7.20588 12.45 11.1966 13.1436C11.1966 12.0333 11.2401 10.9225 11.2256 9.81222C6.64967 9.81222 5 13.1871 5 15.2069C5 19.21 7.89233 21 10.5171 21C13.4225 20.909 15.6131 18.531 15.7685 15.6355C15.7899 13.4522 15.7829 9.07005 15.7829 9.07005C15.7829 9.07005 18.5218 10.4577 20 10.4961V7.47223Z" stroke-width="2" stroke-linejoin="round" stroke="#000000" /></svg>