<svg xmlns="http://www.w3.org/2000/svg" width="24" height="24" viewBox="0 0 24 24" fill="none"><path d="M4 7.8C4 6.11984 4 5.27976 4.32698 4.63803C4.6146 4.07354 5.07354 3.6146 5.63803 3.32698C6.27976 3 7.11984 3 8.8 3H15.2C16.8802 3 17.7202 3 18.362 3.32698C18.9265 3.6146 19.3854 4.07354 19.673 4.63803C20 5.27976 20 6.11984 20 7.8V14.4C20 14.9601 20 15.2401 19.891 15.454C19.7951 15.6422 19.6422 15.7951 19.454 15.891C19.2401 16 18.9601 16 18.4 16H5.6C5.03995 16 4.75992 16 4.54601 15.891C4.35785 15.7951 4.20487 15.6422 4.10899 15.454C4 15.2401 4 14.9601 4 14.4V7.8Z" stroke-width="2" stroke-linejoin="round" stroke="#000000" /><path d="M4 10H20" stroke-width="2" stroke-linecap="round" stroke-linejoin="round" stroke="#000000" /><path d="M3 21L8 16H16L21 21" stroke-width="2" stroke-linecap="round" stroke-linejoin="round" stroke="#000000" /><path d="M4 20L20 20" stroke-width="2" stroke-linecap="round" stroke-linejoin="round" stroke="#000000" /><path d="M8 13H9" stroke-width="2" stroke-linecap="round" stroke-linejoin="round" stroke="#000000" /><path d="M15 13H16" stroke-width="2" stroke-linecap="round" stroke-linejoin="round" stroke="#000000" /></svg>