<svg xmlns="http://www.w3.org/2000/svg" width="24" height="24" viewBox="0 0 24 24" fill="none"><circle cx="7" cy="18" r="2" stroke-width="2" stroke="#000000" /><circle cx="18" cy="18" r="2" stroke-width="2" stroke="#000000" /><path d="M14 7V6C14 4.89543 13.1046 4 12 4L4 4C2.89543 4 2 4.89543 2 6V16C2 17.1046 2.89543 18 4 18H5M14 7H15.4384C16.3562 7 17.1561 7.62459 17.3787 8.51493L17.8106 10.2425C17.9219 10.6877 18.3219 11 18.7808 11H20C21.1046 11 22 11.8954 22 13V17C22 17.5523 21.5523 18 21 18H20M14 7V18M14 18H16M14 18H9" stroke-width="2" stroke-linejoin="round" stroke="#000000" /></svg>