<svg xmlns="http://www.w3.org/2000/svg" width="24" height="24" viewBox="0 0 24 24" fill="none"><path d="M12 13V18C12 19.6569 13.3431 21 15 21C16.6569 21 18 19.6569 18 18" stroke-width="2" stroke-linecap="round" stroke="#000000" /><path d="M12 3C6.47715 3 2 7.47715 2 13V13.5C2 12.1193 3.11929 11 4.5 11C5.88071 11 7 12.1193 7 13.5C7 12.1193 8.11929 11 9.5 11C10.8807 11 12 12.1193 12 13.5C12 12.1193 13.1193 11 14.5 11C15.8807 11 17 12.1193 17 13.5C17 12.1193 18.1193 11 19.5 11C20.8807 11 22 12.1193 22 13.5V13C22 7.47715 17.5228 3 12 3Z" stroke-width="2" stroke-linecap="round" stroke-linejoin="round" stroke="#000000" /></svg>