<svg xmlns="http://www.w3.org/2000/svg" width="24" height="24" viewBox="0 0 24 24" fill="none"><path d="M16.711 8L15.7262 4.3246C15.2974 2.72421 13.6524 1.77446 12.052 2.20328L4.32457 4.27384C2.72417 4.70266 1.77442 6.34767 2.20325 7.94807L4.2738 15.6755C4.70262 17.2759 6.34763 18.2256 7.94803 17.7968L8 17.7829" stroke-width="2" stroke="#000000" /><path d="M19 8H11C9.34315 8 8 9.34315 8 11V19C8 20.6569 9.34315 22 11 22H19C20.6569 22 22 20.6569 22 19V11C22 9.34315 20.6569 8 19 8Z" stroke-width="2" stroke-linecap="round" stroke-linejoin="round" stroke="#000000" /><path d="M13 17.3355V12.6645C13 11.9937 13.7759 11.6208 14.2998 12.0398L17.2191 14.3753C17.6195 14.6956 17.6195 15.3044 17.2191 15.6247L14.2998 17.9602C13.7759 18.3792 13 18.0063 13 17.3355Z" stroke-width="2" stroke="#000000" /></svg>