<svg xmlns="http://www.w3.org/2000/svg" width="24" height="24" viewBox="0 0 24 24" fill="none"><circle cx="12" cy="12" r="5" stroke-width="2" stroke-linejoin="round" stroke-linecap="round" stroke="#000000" /><path d="M12 3V7M18.364 5.63604L15.5355 8.46447M21 12H17M18.364 18.364L15.5355 15.5355M12 21L12 17M5.63604 18.364L8.46447 15.5355M3 12H7M5.63604 5.63604L8.46447 8.46447" stroke-width="2" stroke-linecap="round" stroke-linejoin="round" stroke="#000000" /><path d="M10.2474 3.13796C11.2062 2.9335 12.9902 2.97293 13.7526 3.13813M17.0264 4.49405C17.849 5.02745 19.0826 6.31681 19.5048 6.97267M20.861 10.2464C21.0655 11.2053 21.0261 12.9892 20.8609 13.7516M19.5049 17.0255C18.9715 17.848 17.6822 19.0816 17.0263 19.5038M13.7526 20.8601C12.7937 21.0645 11.0097 21.0251 10.2474 20.8599M6.97352 19.504C6.15097 18.9706 4.91737 17.6812 4.49514 17.0253M3.13893 13.7516C2.93447 12.7928 2.9739 11.0088 3.1391 10.2464M4.49502 6.97255C5.02843 6.14999 6.31779 4.9164 6.97365 4.49416" stroke-width="2" stroke-linecap="round" stroke-linejoin="round" stroke="#000000" /></svg>