<svg xmlns="http://www.w3.org/2000/svg" width="24" height="24" viewBox="0 0 24 24" fill="none"><path d="M19 15.6075C19.6348 14.554 20 13.3196 20 11.9999C20 10.6803 19.6348 9.44588 19 8.39233" stroke-width="2" stroke-linecap="round" stroke="#000000" /><path d="M15 5.58886V18.4111C15 19.2684 15 19.697 14.8195 19.9551C14.6618 20.1805 14.4183 20.331 14.1462 20.3712C13.8345 20.4173 13.4512 20.2256 12.6845 19.8422L12.6845 19.8422L5.68328 16.3416C5.2274 16.1137 4.99945 15.9997 4.80172 15.8697C3.81615 15.2213 3.16703 14.171 3.02791 12.9996C3 12.7645 3 12.5097 3 12C3 11.4903 3 11.2355 3.02791 11.0004C3.16703 9.82897 3.81615 8.77867 4.80172 8.13035C4.99945 8.00027 5.22739 7.8863 5.68327 7.65836L5.68328 7.65836L12.6845 4.15777C13.4512 3.77441 13.8345 3.58273 14.1462 3.62877C14.4183 3.66898 14.6618 3.81949 14.8195 4.04489C15 4.30303 15 4.73164 15 5.58886Z" stroke-width="2" stroke-linejoin="round" stroke="#000000" /></svg>