<svg xmlns="http://www.w3.org/2000/svg" width="24" height="24" viewBox="0 0 24 24" fill="none"><path d="M14 5.58886V18.4111C14 19.2684 14 19.697 13.8195 19.9551C13.6618 20.1805 13.4183 20.331 13.1462 20.3712C12.8345 20.4173 12.4512 20.2256 11.6845 19.8422L11.6845 19.8422L4.68328 16.3416C4.2274 16.1137 3.99945 15.9997 3.80172 15.8697C2.81615 15.2213 2.16703 14.171 2.02791 12.9996C2 12.7645 2 12.5097 2 12C2 11.4903 2 11.2355 2.02791 11.0004C2.16703 9.82897 2.81615 8.77867 3.80172 8.13035C3.99945 8.00027 4.22739 7.8863 4.68327 7.65836L4.68328 7.65836L11.6845 4.15777C12.4512 3.77441 12.8345 3.58273 13.1462 3.62877C13.4183 3.66898 13.6618 3.81949 13.8195 4.04489C14 4.30303 14 4.73164 14 5.58886Z" stroke-width="2" stroke-linejoin="round" stroke="#000000" /><path d="M22 10L18 14M18 10L22 14" stroke-width="2" stroke-linecap="round" stroke-linejoin="round" stroke="#000000" /></svg>