<svg xmlns="http://www.w3.org/2000/svg" width="24" height="24" viewBox="0 0 24 24" fill="none"><path d="M20.2211 6C21.3462 7.72556 22 9.78642 22 12C22 14.2136 21.3462 16.2744 20.2211 18" stroke-width="2" stroke-linecap="round" stroke="#000000" /><path d="M17 15.6075C17.6348 14.554 18 13.3196 18 11.9999C18 10.6803 17.6348 9.44588 17 8.39233" stroke-width="2" stroke-linecap="round" stroke="#000000" /><path d="M13 5.69527V18.3047C13 19.1925 13 19.6364 12.8133 19.8973C12.6503 20.1251 12.3994 20.2741 12.1214 20.3081C11.8029 20.347 11.4132 20.1345 10.6338 19.7094L4.63369 16.4366L4.63367 16.4365C4.10217 16.1466 3.83641 16.0017 3.60974 15.8328C2.75487 15.1956 2.18971 14.2436 2.03976 13.1881C2 12.9082 2 12.6054 2 12C2 11.3946 2 11.0918 2.03976 10.812C2.18971 9.75638 2.75487 8.80435 3.60974 8.16725C3.83641 7.99832 4.10217 7.85336 4.63369 7.56344L10.6338 4.29063C11.4132 3.86553 11.8029 3.65298 12.1214 3.69194C12.3994 3.72593 12.6503 3.87492 12.8133 4.10266C13 4.36364 13 4.80752 13 5.69527Z" stroke-width="2" stroke-linejoin="round" stroke="#000000" /></svg>