<svg xmlns="http://www.w3.org/2000/svg" width="24" height="24" viewBox="0 0 24 24" fill="none"><path d="M7.35032 7.54638C6.19982 8.69414 5.49045 10.2661 5.49045 12C5.49045 13.7339 6.19982 15.3059 7.35032 16.4536M7.35032 7.54638C8.53182 6.3677 10.1785 5.63636 12 5.63636C13.8215 5.63636 15.4682 6.3677 16.6497 7.54638M7.35032 7.54638L8.78736 2.71491C8.91351 2.29079 9.30338 2 9.74586 2H14.2541C14.6966 2 15.0865 2.29079 15.2126 2.71491L16.6497 7.54638M16.6497 7.54638C17.8002 8.69414 18.5096 10.2661 18.5096 12C18.5096 13.7339 17.8002 15.3059 16.6497 16.4536M7.35032 16.4536C8.53182 17.6323 10.1785 18.3636 12 18.3636C13.8215 18.3636 15.4682 17.6323 16.6497 16.4536M7.35032 16.4536L8.78736 21.2851C8.91351 21.7092 9.30338 22 9.74586 22H14.2541C14.6966 22 15.0865 21.7092 15.2126 21.2851L16.6497 16.4536" stroke-width="2" stroke-linejoin="round" stroke="#000000" /><path d="M12 10V12H14" stroke-width="2" stroke-linecap="round" stroke-linejoin="round" stroke="#000000" /></svg>