<svg xmlns="http://www.w3.org/2000/svg" width="24" height="24" viewBox="0 0 24 24" fill="none"><path d="M13 20C13 20.5523 12.5523 21 12 21C11.4477 21 11 20.5523 11 20C11 19.4477 11.4477 19 12 19C12.5523 19 13 19.4477 13 20Z" stroke-width="2" stroke="#000000" /><path d="M8.5 14.7533C9.568 14.2693 10.7528 14 12 14C13.2472 14 14.432 14.2693 15.5 14.7533" stroke-width="2" stroke-linecap="round" stroke="#000000" /><path d="M5.5 10.7019C7.41105 9.61966 9.63137 9 12 9C14.3686 9 16.589 9.61966 18.5 10.7019" stroke-width="2" stroke-linecap="round" stroke="#000000" /><path d="M3 6.34279C5.62669 4.85432 8.6917 4 11.9651 4C15.2675 4 18.3579 4.86955 21 6.38257" stroke-width="2" stroke-linecap="round" stroke="#000000" /></svg>