<svg width="209" height="32" viewBox="0 0 209 32" fill="none" xmlns="http://www.w3.org/2000/svg">
<g clip-path="url(#clip0_166_2135)">
<path d="M132.543 9.38278H136.839V19.5185C136.839 20.7237 136.55 21.7666 135.974 22.6473C135.402 23.5228 134.604 24.2001 133.579 24.6791C132.554 25.1529 131.364 25.3898 130.01 25.3898C128.645 25.3898 127.45 25.1529 126.425 24.6791C125.4 24.2001 124.602 23.5228 124.03 22.6473C123.464 21.7666 123.18 20.7237 123.18 19.5185V9.38278H127.476V19.1477C127.476 19.6369 127.584 20.0747 127.8 20.461C128.016 20.8421 128.315 21.1408 128.696 21.3571C129.082 21.5734 129.52 21.6816 130.01 21.6816C130.504 21.6816 130.942 21.5734 131.323 21.3571C131.704 21.1408 132.003 20.8421 132.219 20.461C132.435 20.0747 132.543 19.6369 132.543 19.1477V9.38278ZM143.176 9.38278V25.2044H138.88V9.38278H143.176ZM153.84 9.38278V25.2044H149.545V9.38278H153.84ZM161.655 25.4207C160.367 25.4207 159.265 25.1658 158.348 24.6559C157.431 24.1409 156.728 23.425 156.239 22.5082C155.75 21.5863 155.505 20.5176 155.505 19.3022C155.505 18.0867 155.75 17.0206 156.239 16.1039C156.728 15.182 157.431 14.4661 158.348 13.9562C159.265 13.4412 160.367 13.1837 161.655 13.1837C162.819 13.1837 163.825 13.3948 164.675 13.8172C165.53 14.2343 166.192 14.8266 166.661 15.594C167.129 16.3562 167.366 17.2524 167.371 18.2824H163.416C163.359 17.6592 163.179 17.1854 162.875 16.861C162.577 16.5313 162.19 16.3665 161.716 16.3665C161.346 16.3665 161.021 16.4747 160.743 16.691C160.465 16.9022 160.249 17.224 160.094 17.6567C159.94 18.0841 159.862 18.6223 159.862 19.2713C159.862 19.9202 159.94 20.461 160.094 20.8936C160.249 21.3211 160.465 21.643 160.743 21.8593C161.021 22.0704 161.346 22.176 161.716 22.176C162.031 22.176 162.309 22.1039 162.551 21.9597C162.793 21.8104 162.989 21.594 163.138 21.3108C163.292 21.0224 163.385 20.6721 163.416 20.2601H167.371C167.356 21.3056 167.117 22.2172 166.653 22.9949C166.189 23.7675 165.533 24.3649 164.683 24.7872C163.838 25.2095 162.829 25.4207 161.655 25.4207ZM174.848 25.4207C173.56 25.4207 172.458 25.1658 171.541 24.6559C170.624 24.1409 169.921 23.425 169.432 22.5082C168.943 21.5863 168.698 20.5176 168.698 19.3022C168.698 18.0867 168.943 17.0206 169.432 16.1039C169.921 15.182 170.624 14.4661 171.541 13.9562C172.458 13.4412 173.56 13.1837 174.848 13.1837C176.135 13.1837 177.237 13.4412 178.154 13.9562C179.071 14.4661 179.774 15.182 180.263 16.1039C180.752 17.0206 180.997 18.0867 180.997 19.3022C180.997 20.5176 180.752 21.5863 180.263 22.5082C179.774 23.425 179.071 24.1409 178.154 24.6559C177.237 25.1658 176.135 25.4207 174.848 25.4207ZM174.879 22.2687C175.239 22.2687 175.551 22.1477 175.813 21.9056C176.076 21.6636 176.279 21.3185 176.424 20.8704C176.568 20.4224 176.64 19.8893 176.64 19.2713C176.64 18.6481 176.568 18.115 176.424 17.6721C176.279 17.224 176.076 16.879 175.813 16.6369C175.551 16.3949 175.239 16.2738 174.879 16.2738C174.497 16.2738 174.17 16.3949 173.897 16.6369C173.625 16.879 173.416 17.224 173.272 17.6721C173.128 18.115 173.055 18.6481 173.055 19.2713C173.055 19.8893 173.128 20.4224 173.272 20.8704C173.416 21.3185 173.625 21.6636 173.897 21.9056C174.17 22.1477 174.497 22.2687 174.879 22.2687ZM186.992 18.5296V25.2044H182.728V13.3382H186.776V15.594H186.899C187.157 14.8421 187.61 14.2523 188.259 13.8249C188.913 13.3974 189.675 13.1837 190.546 13.1837C191.385 13.1837 192.114 13.3768 192.732 13.7631C193.355 14.1442 193.837 14.6695 194.177 15.3391C194.522 16.0086 194.692 16.7734 194.687 17.6335V25.2044H190.422V18.5296C190.427 17.9425 190.278 17.4816 189.974 17.1468C189.675 16.812 189.258 16.6446 188.723 16.6446C188.372 16.6446 188.066 16.7219 187.803 16.8764C187.546 17.0258 187.347 17.2421 187.208 17.5253C187.069 17.8035 186.997 18.1382 186.992 18.5296ZM207.638 17.2009H203.714C203.693 16.9588 203.608 16.7502 203.459 16.5751C203.309 16.4 203.116 16.2661 202.879 16.1734C202.648 16.0755 202.39 16.0266 202.107 16.0266C201.741 16.0266 201.427 16.0936 201.164 16.2275C200.902 16.3614 200.773 16.5519 200.778 16.7992C200.773 16.9743 200.848 17.1365 201.002 17.2859C201.162 17.4352 201.468 17.5511 201.921 17.6335L204.332 18.0661C205.547 18.2876 206.451 18.661 207.043 19.1863C207.641 19.7065 207.942 20.4043 207.947 21.2799C207.942 22.1245 207.69 22.8584 207.19 23.4816C206.696 24.0996 206.018 24.5786 205.158 24.9185C204.303 25.2533 203.327 25.4207 202.23 25.4207C200.417 25.4207 198.999 25.0499 197.974 24.3082C196.954 23.5666 196.385 22.588 196.266 21.3726H200.5C200.557 21.7486 200.742 22.0395 201.056 22.2456C201.375 22.4464 201.777 22.5468 202.261 22.5468C202.653 22.5468 202.975 22.4799 203.227 22.346C203.484 22.2121 203.616 22.0215 203.621 21.7743C203.616 21.5477 203.502 21.3674 203.281 21.2335C203.065 21.0996 202.725 20.9915 202.261 20.9091L200.16 20.5382C198.95 20.3271 198.043 19.9254 197.441 19.3331C196.838 18.7408 196.539 17.9786 196.544 17.0464C196.539 16.2223 196.756 15.5245 197.193 14.9528C197.636 14.376 198.267 13.9382 199.086 13.6395C199.91 13.3356 200.886 13.1837 202.014 13.1837C203.729 13.1837 205.081 13.539 206.07 14.2498C207.064 14.9605 207.587 15.9442 207.638 17.2009Z" fill="#272525"/>
<path d="M109.263 6.56339C110.426 6.56339 111.709 7.0149 112.35 7.65617L110.451 11.3144L110.332 11.29C110.498 10.6013 110.569 9.93638 110.569 9.34269C110.569 7.82253 110.047 6.96671 109.168 6.96671C108.099 6.96681 107.267 8.03663 106.674 11.2431L106.317 13.0712H111.886C112.408 16.0878 112.812 19.5801 113.097 23.5468C114.07 22.0029 114.855 20.4826 115.473 18.9862C116.09 17.4898 116.398 16.3019 116.398 15.3993C116.398 14.1168 115.876 13.3805 114.807 13.1903L114.854 13.0712H118.37L118.393 13.1669C117.966 14.7583 117.182 16.7538 116.018 19.1288C114.855 21.5039 113.548 23.7363 112.099 25.8027C109.463 29.5555 107.182 31.4325 105.282 31.4325C104.356 31.4325 103.715 31.2423 103.406 30.8388L104.784 27.8935L104.902 27.8691C105.496 28.2966 106.28 28.5107 107.23 28.5107C108.56 28.5106 109.368 28.2017 110.603 26.8954C110.033 21.8124 109.51 18.2731 109.035 16.3017C108.667 14.8474 108.247 13.8981 107.775 13.4521H106.223L102.683 31.1474H99.287L102.826 13.4521H101.971L102.042 13.0712H102.921L103.277 11.2431C103.871 8.13163 105.866 6.56352 109.263 6.56339ZM51.1835 12.8105C53.1786 12.8105 54.4617 13.879 54.5331 15.4941C54.5568 16.6104 54.0339 17.5136 53.0126 18.1786C51.9675 18.8673 50.7084 19.2001 49.2596 19.2001C48.4047 19.2001 47.6209 19.0574 46.8846 18.7724C46.8609 18.8911 46.8612 19.0577 46.8612 19.2714C46.8613 22.0977 48.2627 23.7607 50.4716 23.7607C51.6116 23.7606 52.5852 23.2849 53.369 22.3349L53.4637 22.3593C52.4898 24.7579 50.2575 26.1112 48.0487 26.1112C46.5523 26.1112 45.4361 25.6362 44.6522 24.7099C43.8684 23.7835 43.4647 22.5959 43.4647 21.1708C43.4648 18.6057 44.7 15.8747 47.1464 14.1171C48.3576 13.2384 49.711 12.8105 51.1835 12.8105ZM69.288 12.8573C68.8604 13.5937 68.5037 14.6392 68.2186 15.9931L66.9598 22.0028C66.8174 22.6677 66.746 23.1668 66.746 23.4755C66.7461 24.2354 67.0788 24.7579 67.7675 25.0429V25.1376C66.5561 25.2089 64.8934 25.5412 62.7557 26.1112L62.6844 26.0878L63.1356 23.998L64.7743 16.1835C64.8455 15.8273 64.87 15.447 64.87 15.0907C64.87 13.8794 64.2996 13.2138 63.2782 13.2138C62.3994 13.2138 61.6154 13.6178 60.9266 14.4491C60.2142 15.2803 59.6921 16.278 59.3358 17.4179C58.9796 18.5817 58.8134 19.6984 58.8134 20.7909C58.8134 22.9047 59.644 24.2116 60.7128 24.2118C61.5441 24.2118 62.2808 23.6175 62.8983 22.4062L62.993 22.454C62.1379 24.8054 60.2614 26.1112 58.4325 26.1112C56.2712 26.1111 55.0126 24.4488 55.0126 21.8837C55.0126 19.1284 56.39 16.1592 59.0028 14.2353C60.3092 13.2852 61.7581 12.8105 63.3495 12.8105C64.4659 12.8105 65.4166 13.0718 66.1766 13.6181C67.1503 13.4518 68.148 13.1667 69.2167 12.8105L69.288 12.8573ZM76.1718 12.8573C75.9105 13.5936 75.5778 14.9717 75.1503 16.9667L74.3661 20.5058C74.2236 21.1708 74.1522 21.7648 74.1522 22.2636C74.1522 23.5225 74.7704 24.1874 75.6493 24.1874C76.4805 24.1872 77.4309 23.4751 78.0009 22.3114L78.119 22.3349C77.739 23.4988 77.0975 24.4257 76.2186 25.0907C75.34 25.7792 74.4377 26.1111 73.5116 26.1112C71.8015 26.1112 70.5663 25.0429 70.5663 23.0478C70.5663 22.644 70.637 22.1689 70.7557 21.5751L71.7294 17.0859C71.8956 16.3021 71.9676 15.637 71.9677 15.0907C71.9677 14.3309 71.7536 13.832 71.3026 13.6181L71.3495 13.5234C73.0596 13.4996 74.6513 13.2617 76.1239 12.8105L76.1718 12.8573ZM82.0858 22.0028C81.9671 22.5965 81.8954 23.0718 81.8954 23.4755C81.8955 24.2353 82.2283 24.7579 82.9169 25.0429L82.8934 25.1376C81.7296 25.2089 80.0431 25.5412 77.8817 26.1112L77.8339 26.0878L78.5468 22.6913L80.6132 13.0712H84.0096L82.0858 22.0028ZM91.368 10.5068L90.8221 13.0712H93.91L93.8143 13.4521H90.7509L89.0399 21.3378C88.945 21.789 88.8973 22.2405 88.8973 22.6679C88.8974 23.7841 89.5154 24.4726 90.5604 24.4726C91.2492 24.4726 91.8908 24.1167 92.4608 23.4042L92.5555 23.4277C91.7955 25.209 90.2993 26.1112 88.7079 26.1112C86.9264 26.1112 85.5721 25.0899 85.5721 23.1659C85.5722 22.7148 85.6204 22.2398 85.7391 21.7411L87.5204 13.4521H86.618L86.6649 13.2138C88.375 12.5962 89.895 11.6937 91.2489 10.4823L91.368 10.5068ZM99.6737 12.8573C99.4124 13.5461 99.0557 14.9954 98.6044 17.1806L96.7997 25.5653H93.4022L95.1844 17.2753C95.3744 16.3256 95.4686 15.5894 95.4686 15.0907C95.4686 14.3544 95.2549 13.8556 94.8036 13.6181L94.8514 13.5234C96.5616 13.4996 98.1532 13.2618 99.6259 12.8105L99.6737 12.8573ZM35.4901 8.29777C39.6942 8.29777 41.9275 9.86494 41.9276 12.1689C41.9276 13.2377 41.3574 14.2116 40.2411 15.0429C39.101 15.8979 37.5333 16.3964 35.5145 16.539L35.4901 16.5868C39.4093 16.7056 41.8563 18.345 41.8563 20.6015C41.8561 23.7366 38.5069 25.5653 32.4979 25.5653H31.1444C31.1946 25.4236 31.2432 25.2811 31.2899 25.1376H32.5927C34.2314 25.1376 35.5378 24.6868 36.5116 23.7607C37.4854 22.8581 37.9608 21.7412 37.9608 20.4111C37.9608 18.2496 36.4164 16.8241 33.8749 16.8241H32.8065L32.2089 20.0165C32.3926 16.2853 31.6362 12.2577 29.9833 8.29777H35.4901ZM50.8036 13.2138C49.7823 13.2139 48.9038 13.7371 48.1913 14.7821C47.4788 15.8272 47.0506 17.0625 46.9081 18.4638C47.3356 18.6063 47.7635 18.6776 48.2147 18.6777C49.3311 18.6777 50.305 18.3209 51.16 17.6083C51.9913 16.9195 52.4188 15.9932 52.4188 14.8769C52.4188 13.7605 51.8725 13.2138 50.8036 13.2138ZM33.7567 11.8368L32.9012 16.3974H33.994C35.2528 16.3974 36.2265 15.9218 36.9628 14.9482C37.6753 13.9982 38.032 12.9293 38.0321 11.7655C38.0321 9.74658 37.1055 8.72453 35.2528 8.72453H34.3505L33.7567 11.8368ZM98.8182 7.96476C99.8633 7.96478 100.386 8.51133 100.386 9.2714C100.385 10.2451 99.4596 11.2185 98.0585 11.2187C97.0135 11.2187 96.4902 10.6727 96.4901 9.93644C96.4901 8.96259 97.4168 7.96476 98.8182 7.96476Z" fill="#038573"/>
<path d="M2.81081 3.94825C6.25168 0.713384 11.9533 0.899665 16.9729 3.9668C16.9446 4.56882 17.0499 5.15643 17.2883 5.67872C17.7331 6.65244 18.5612 7.24277 19.6721 7.2334C18.5489 7.41067 17.3816 7.51147 16.1692 7.52832L16.1048 7.65528C16.7093 7.97344 16.9963 8.64165 16.9964 9.62793C16.9964 10.296 16.869 11.2823 16.6145 12.5547L14.2278 23.6592H18.7776L21.1956 12.4277C21.5293 10.8118 21.8252 9.4967 22.0813 8.48731C26.7854 14.3448 27.3812 21.7949 23.2473 25.6826C20.3363 28.4198 15.8065 28.7067 11.4407 26.8731C11.527 26.7855 11.6141 26.6971 11.6995 26.6055C12.977 25.2801 13.8986 23.6677 14.4436 21.7969C13.8269 22.9091 13.0103 23.8692 11.9964 24.6397C11.2472 25.2248 10.4544 25.6769 9.62428 25.9814H9.62331C8.82416 26.2745 7.98949 26.4306 7.12428 26.4307C5.55427 26.4306 4.01351 25.9327 2.85866 24.791C1.98694 23.9291 1.45569 22.82 1.2444 21.5742C1.20921 21.3666 1.1828 21.1552 1.1653 20.9404C1.14778 20.7257 1.13895 20.5078 1.13893 20.2871C1.13893 19.5337 1.26927 18.7311 1.43288 17.9131L1.43678 17.8975L1.56667 17.2959C-0.767871 12.3176 -0.456764 7.0208 2.81081 3.94825ZM6.01881 6.6377C5.63601 8.52158 5.13555 10.4292 4.73854 12.3008L3.43385 18.3145C3.27487 19.1094 3.17903 19.7455 3.17897 20.2861C3.17897 22.9587 4.83353 24.3906 7.12428 24.3906C8.36514 24.3906 9.57402 23.9452 10.7512 23.0225C11.9284 22.1316 12.7881 20.891 13.2971 19.332L13.138 19.2998C12.3744 20.8588 11.1012 21.8135 9.98756 21.8135C8.81052 21.8133 7.98366 20.9225 7.98366 19.2363C7.98369 18.5682 8.07892 17.7726 8.26979 16.8818L9.3196 12.1416C9.89221 9.46941 10.3378 7.62413 10.6878 6.6377L10.6243 6.57325L6.01881 6.6377Z" fill="#038573"/>
<path d="M21.9905 0.664158C19.9435 1.25787 19.0131 3.10748 19.4257 4.52994C19.7376 5.60547 20.7323 6.18205 22.2589 5.73928C24.3059 5.14557 25.2463 3.33065 24.8338 1.90819C24.5118 0.797973 23.517 0.22139 21.9905 0.664158Z" fill="#038573"/>
</g>
<defs>
<clipPath id="clip0_166_2135">
<rect width="208.584" height="32" fill="white"/>
</clipPath>
</defs>
</svg>
