<svg xmlns="http://www.w3.org/2000/svg" width="24" height="24" viewBox="0 0 24 24" fill="none"><path d="M3 8.8C3 7.11984 3 6.27976 3.32698 5.63803C3.6146 5.07354 4.07354 4.6146 4.63803 4.32698C5.27976 4 6.11984 4 7.8 4H16.2C17.8802 4 18.7202 4 19.362 4.32698C19.9265 4.6146 20.3854 5.07354 20.673 5.63803C21 6.27976 21 7.11984 21 8.8V14.1347C21 14.9391 21 15.3413 20.9234 15.6738C20.6656 16.7922 19.7922 17.6656 18.6738 17.9234C18.3413 18 17.9391 18 17.1347 18C16.665 18 16.4301 18 16.2048 18.0256C15.4595 18.1104 14.7531 18.403 14.1662 18.87C13.9888 19.0112 13.8227 19.1773 13.4905 19.5095L12 21L9.91806 18.9181C9.5911 18.5911 9.42763 18.4276 9.23843 18.3083C9.0463 18.1871 8.83493 18.0996 8.61339 18.0494C8.39525 18 8.16405 18 7.70167 18C6.11421 18 5.32048 18 4.70728 17.7072C4.08785 17.4114 3.58859 16.9121 3.29281 16.2927C3 15.6795 3 14.8858 3 13.2983V8.8Z" stroke-width="2" stroke-linejoin="round" stroke="#000000" /><path d="M7.64442 11H7.34565M8 11C8 11.2761 7.77614 11.5 7.5 11.5C7.22386 11.5 7 11.2761 7 11C7 10.7239 7.22386 10.5 7.5 10.5C7.77614 10.5 8 10.7239 8 11Z" stroke-width="2" stroke-linecap="round" stroke="#000000" /><path d="M12.1444 11H11.8456M12.5 11C12.5 11.2761 12.2761 11.5 12 11.5C11.7239 11.5 11.5 11.2761 11.5 11C11.5 10.7239 11.7239 10.5 12 10.5C12.2761 10.5 12.5 10.7239 12.5 11Z" stroke-width="2" stroke-linecap="round" stroke="#000000" /><path d="M16.6444 11H16.3456M17 11C17 11.2761 16.7761 11.5 16.5 11.5C16.2239 11.5 16 11.2761 16 11C16 10.7239 16.2239 10.5 16.5 10.5C16.7761 10.5 17 10.7239 17 11Z" stroke-width="2" stroke-linecap="round" stroke="#000000" /></svg>