<svg xmlns="http://www.w3.org/2000/svg" width="24" height="24" viewBox="0 0 24 24" fill="none"><path d="M7.55746 13.6351C8.73642 14.6903 10.2933 15.3319 12 15.3319C13.7067 15.3319 15.2636 14.6903 16.4425 13.6351C17.8058 12.4149 18.6638 10.6417 18.6638 8.66811C18.6638 4.98779 15.6803 2.0043 12 2.0043C8.31968 2.0043 5.3362 4.98779 5.3362 8.66811C5.3362 10.6417 6.19416 12.4149 7.55746 13.6351ZM16.4425 13.6351V21.9957L12 19.7744L7.55746 21.9957L7.55746 13.6351" stroke-width="2" stroke-linejoin="round" stroke="#000000" /><path d="M11.293 7.87943L12 6.44684L12.707 7.87943M12 6.44684V10.1673M13.144 9.29343L14.2213 8.14374L12.707 7.87943M12.707 7.87943L10.6272 10.8894M14.2213 8.14374L10.856 9.29343M12 10.1673L13.3728 10.8894L13.144 9.29343M13.144 9.29343L9.77873 8.14374M13.3728 10.8894L11.293 7.87943M10.856 9.29343L10.6272 10.8894L12 10.1673M11.293 7.87943L9.77873 8.14374L10.856 9.29343" stroke-width="2" stroke-linecap="round" stroke-linejoin="round" stroke="#000000" /></svg>