<svg xmlns="http://www.w3.org/2000/svg" width="24" height="24" viewBox="0 0 24 24" fill="none"><path d="M13.6168 3.43969C13.9959 2.99741 14.6713 2.97147 15.0832 3.38337L20.6271 8.92726C21.039 9.33916 21.013 10.0145 20.5707 10.3936L17.144 13.3308C16.7473 13.6709 16.1556 13.6482 15.7861 13.2787L10.7317 8.22433C10.3623 7.85484 10.3395 7.26317 10.6796 6.86643L13.6168 3.43969Z" stroke-width="2" stroke-linejoin="round" stroke="#000000" /><path d="M10.0786 9.09065C10.4594 8.6512 11.1335 8.62816 11.5435 9.04057L14.964 12.4815C15.3724 12.8923 15.3474 13.5631 14.9096 13.9423L11.1341 17.213C10.7376 17.5565 10.1431 17.5352 9.77223 17.1643L6.84625 14.2383C6.47527 13.8674 6.45406 13.2728 6.79767 12.8763L10.0786 9.09065Z" stroke-width="2" stroke-linejoin="round" stroke="#000000" /><path d="M6.89495 14.287L9.72338 17.1155L5.47673 20.7555C5.07999 21.0955 4.48832 21.0728 4.11883 20.7033L3.30711 19.8916C2.93762 19.5221 2.9149 18.9304 3.25496 18.5337L6.89495 14.287Z" stroke-width="2" stroke-linejoin="round" stroke="#000000" /></svg>