<svg xmlns="http://www.w3.org/2000/svg" width="24" height="24" viewBox="0 0 24 24" fill="none"><path d="M19 6C19 4.34315 17.6569 3 16 3H9.8C8.11984 3 7.27976 3 6.63803 3.32698C6.07354 3.6146 5.6146 4.07354 5.32698 4.63803C5 5.27976 5 6.11984 5 7.8V19C5 20.1046 5.89543 21 7 21" stroke-width="2" stroke-linecap="round" stroke="#000000" /><path d="M16.7742 10.7422C17.7505 9.76591 19.3334 9.76591 20.3097 10.7422C21.286 11.7185 21.286 13.3014 20.3097 14.2778L16.4763 18.1111C15.3332 19.2543 13.8676 20.0203 12.2764 20.3063L10.8746 20.5583C10.6496 20.5987 10.4533 20.4024 10.4937 20.1774L10.7457 18.7755C11.0316 17.1843 11.7976 15.7188 12.9408 14.5756L16.7742 10.7422Z" stroke-width="2" stroke="#000000" /><path d="M15.7135 11.8029L19.2491 15.3384" stroke-width="2" stroke-linecap="round" stroke="#000000" /><path d="M9 7H13" stroke-width="2" stroke-linecap="round" stroke="#000000" /><path d="M9 11H10" stroke-width="2" stroke-linecap="round" stroke="#000000" /></svg>