<svg xmlns="http://www.w3.org/2000/svg" width="24" height="24" viewBox="0 0 24 24" fill="none"><path d="M5 7.8C5 6.11984 5 5.27976 5.32698 4.63803C5.6146 4.07354 6.07354 3.6146 6.63803 3.32698C7.27976 3 8.11984 3 9.8 3H14.2C15.8802 3 16.7202 3 17.362 3.32698C17.9265 3.6146 18.3854 4.07354 18.673 4.63803C19 5.27976 19 6.11984 19 7.8V18.9028C19 19.8548 19 20.3308 18.801 20.597C18.6276 20.8291 18.362 20.9745 18.0731 20.9957C17.7416 21.02 17.3405 20.7636 16.5384 20.251L12.8616 17.9012C12.5494 17.7017 12.3934 17.6019 12.2255 17.5631C12.0771 17.5287 11.9229 17.5287 11.7745 17.5631C11.6066 17.6019 11.4506 17.7017 11.1384 17.9012L7.46162 20.251C6.65949 20.7636 6.25842 21.02 5.9269 20.9957C5.63798 20.9745 5.37244 20.8291 5.199 20.597C5 20.3308 5 19.8548 5 18.9028V7.8Z" stroke-width="2" stroke="#000000" /><path d="M12 13V7M9 10H15" stroke-width="2" stroke-linecap="round" stroke="#000000" /></svg>