<svg xmlns="http://www.w3.org/2000/svg" width="24" height="24" viewBox="0 0 24 24" fill="none"><path d="M18 3H6C5.44772 3 5 3.44772 5 4V17H7H18C18.5523 17 19 16.5523 19 16V4C19 3.44772 18.5523 3 18 3Z" stroke-width="2" stroke="#000000" /><path d="M5 16L5 19" stroke-width="2" stroke-linecap="round" stroke="#000000" /><path d="M18 17H7C5.89543 17 5 17.8954 5 19C5 20.1046 5.89543 21 7 21H18" stroke-width="2" stroke-linecap="round" stroke-linejoin="round" stroke="#000000" /><path d="M18 21C16.8954 21 16 20.1046 16 19C16 17.8954 16.8954 17 18 17" stroke-width="2" stroke-linecap="round" stroke-linejoin="round" stroke="#000000" /></svg>