<svg xmlns="http://www.w3.org/2000/svg" width="24" height="24" viewBox="0 0 24 24" fill="none"><path d="M7 7C7 5.89543 7.89543 5 9 5H15C16.1046 5 17 5.89543 17 7V21H7V7Z" stroke-width="2" stroke-linecap="round" stroke="#000000" /><path d="M11 9H13" stroke-width="2" stroke-linecap="round" stroke="#000000" /><path d="M11 13H13" stroke-width="2" stroke-linecap="round" stroke="#000000" /><path d="M12 5L12 2" stroke-width="2" stroke-linecap="round" stroke-linejoin="round" stroke="#000000" /><path d="M17 13H19C20.1046 13 21 13.8954 21 15V20C21 20.5523 20.5523 21 20 21H17V13Z" stroke-width="2" stroke-linecap="round" stroke="#000000" /><path d="M3 15C3 13.8954 3.89543 13 5 13H7V21H4C3.44772 21 3 20.5523 3 20V15Z" stroke-width="2" stroke-linecap="round" stroke="#000000" /></svg>