<svg xmlns="http://www.w3.org/2000/svg" width="24" height="24" viewBox="0 0 24 24" fill="none"><path d="M8 8.1406C8 7.40586 8.26964 6.69666 8.75777 6.14751L11.2526 3.34084C11.6504 2.89332 12.3496 2.89332 12.7474 3.34084L15.2422 6.14751C15.7304 6.69666 16 7.40586 16 8.1406V21H8V8.1406Z" stroke-width="2" stroke-linecap="round" stroke="#000000" /><path d="M3 13C3 11.8954 3.89543 11 5 11H8V21H4C3.44772 21 3 20.5523 3 20V13Z" stroke-width="2" stroke-linecap="round" stroke="#000000" /><path d="M16 12C16 11.4477 16.4477 11 17 11H19C20.1046 11 21 11.8954 21 13V20C21 20.5523 20.5523 21 20 21H16V12Z" stroke-width="2" stroke-linecap="round" stroke="#000000" /><path d="M12.1444 8.5H11.8456M12.5 8.5C12.5 8.77614 12.2761 9 12 9C11.7239 9 11.5 8.77614 11.5 8.5C11.5 8.22386 11.7239 8 12 8C12.2761 8 12.5 8.22386 12.5 8.5Z" stroke-width="2" stroke-linecap="round" stroke="#000000" /><path d="M12 17L12 21" stroke-width="2" stroke-linecap="round" stroke="#000000" /></svg>