<svg xmlns="http://www.w3.org/2000/svg" width="24" height="24" viewBox="0 0 24 24" fill="none"><path d="M12 3C8.13401 3 5 6.13401 5 10C5 12.7924 6.63505 14.8765 9 16H15C17.3649 14.8765 19 12.7924 19 10C19 6.13401 15.866 3 12 3Z" stroke-width="2" stroke-linejoin="round" stroke="#000000" /><path d="M12 16V11M12 11L14 9M12 11L10 9" stroke-width="2" stroke-linecap="round" stroke="#000000" /><path d="M9 16L9 20C9 20.5523 9.44772 21 10 21L14 21C14.5523 21 15 20.5523 15 20L15 16" stroke-width="2" stroke-linejoin="round" stroke="#000000" /></svg>