<svg xmlns="http://www.w3.org/2000/svg" width="24" height="24" viewBox="0 0 24 24" fill="none"><path d="M3 9.39445V15.2C3 16.8802 3 17.7202 3.32698 18.362C3.6146 18.9265 4.07354 19.3854 4.63803 19.673C5.27976 20 6.11984 20 7.8 20H16.2C17.8802 20 18.7202 20 19.362 19.673C19.9265 19.3854 20.3854 18.9265 20.673 18.362C21 17.7202 21 16.8802 21 15.2V9.39445C21 9.02812 21 8.84496 20.984 8.69075C20.8377 7.27857 19.7214 6.16233 18.3092 6.01598C18.155 6 17.9719 6 17.6056 6C17.5371 6 17.5029 6 17.4706 5.99791C17.1823 5.97926 16.9161 5.83681 16.7407 5.60726C16.7211 5.58159 16.7021 5.55311 16.6641 5.49615L15.475 3.71248C15.3013 3.45199 15.2145 3.32174 15.0998 3.22745C14.9982 3.14398 14.8812 3.08135 14.7554 3.04315C14.6133 3 14.4568 3 14.1437 3H9.85629C9.54322 3 9.38669 3 9.2446 3.04315C9.11881 3.08135 9.00179 3.14398 8.90022 3.22745C8.7855 3.32174 8.69867 3.45199 8.52501 3.71248L7.3359 5.49615C7.29793 5.55311 7.27894 5.58159 7.25932 5.60726C7.08386 5.83681 6.8177 5.97926 6.52938 5.99791C6.49713 6 6.4629 6 6.39445 6C6.02812 6 5.84496 6 5.69075 6.01598C4.27857 6.16233 3.16233 7.27857 3.01598 8.69075C3 8.84496 3 9.02812 3 9.39445Z" stroke-width="2" stroke-linecap="round" stroke="#000000" /><path d="M15 12.5C15 14.1569 13.6569 15.5 12 15.5C10.3431 15.5 9 14.1569 9 12.5C9 10.8431 10.3431 9.5 12 9.5C13.6569 9.5 15 10.8431 15 12.5Z" stroke-width="2" stroke="#000000" /></svg>