<svg xmlns="http://www.w3.org/2000/svg" width="24" height="24" viewBox="0 0 24 24" fill="none"><path d="M9 17H6C4.34315 17 3 15.6569 3 14V6C3 4.34315 4.34315 3 6 3H18C19.6569 3 21 4.34315 21 6V9" stroke-width="2" stroke-linecap="round" stroke="#000000" /><path d="M3 8H21" stroke-width="2" stroke-linecap="round" stroke="#000000" /><path d="M10 13L7 13" stroke-width="2" stroke-linecap="round" stroke-linejoin="round" stroke="#000000" /><path d="M19 17H15C14.535 17 14.3025 17 14.1118 17.0511C13.5941 17.1898 13.1898 17.5941 13.0511 18.1118C13 18.3025 13 18.535 13 19C13 19.465 13 19.6975 13.0511 19.8882C13.1898 20.4059 13.5941 20.8102 14.1118 20.9489C14.3025 21 14.535 21 15 21H19C19.465 21 19.6975 21 19.8882 20.9489C20.4059 20.8102 20.8102 20.4059 20.9489 19.8882C21 19.6975 21 19.465 21 19C21 18.535 21 18.3025 20.9489 18.1118C20.8102 17.5941 20.4059 17.1898 19.8882 17.0511C19.6975 17 19.465 17 19 17Z" stroke-width="2" stroke-linecap="round" stroke-linejoin="round" stroke="#000000" /><path d="M19 17V15C19 13.8954 18.1046 13 17 13C15.8954 13 15 13.8954 15 15V17" stroke-width="2" stroke-linecap="round" stroke-linejoin="round" stroke="#000000" /></svg>