<svg xmlns="http://www.w3.org/2000/svg" width="24" height="24" viewBox="0 0 24 24" fill="none"><path d="M14.8686 10.8686L12.7314 8.73137L12.7314 8.73137C11.8746 7.87462 11.4462 7.44624 11.0785 7.4173C10.7593 7.39218 10.4475 7.52136 10.2396 7.76477C10 8.04529 10 8.65111 10 9.86274V14.1373C10 15.3489 10 15.9547 10.2396 16.2352C10.4475 16.4786 10.7593 16.6078 11.0785 16.5827C11.4462 16.5538 11.8746 16.1254 12.7314 15.2686L14.8686 13.1314C15.2646 12.7354 15.4627 12.5373 15.5368 12.309C15.6021 12.1082 15.6021 11.8918 15.5368 11.691C15.4627 11.4627 15.2646 11.2646 14.8686 10.8686Z" stroke-width="2" stroke-linecap="round" stroke="#000000" /></svg>