<svg xmlns="http://www.w3.org/2000/svg" width="24" height="24" viewBox="0 0 24 24" fill="none"><path d="M13.8686 10.8686L12.7314 9.73137C11.8746 8.87462 11.4462 8.44624 11.0785 8.4173C10.7593 8.39218 10.4475 8.52136 10.2396 8.76477C10 9.04529 10 9.65111 10 10.8627V13.1373C10 14.3489 10 14.9547 10.2396 15.2352C10.4475 15.4786 10.7593 15.6078 11.0785 15.5827C11.4462 15.5538 11.8746 15.1254 12.7314 14.2686L13.8686 13.1314C14.2646 12.7354 14.4627 12.5373 14.5368 12.309C14.6021 12.1082 14.6021 11.8918 14.5368 11.691C14.4627 11.4627 14.2646 11.2646 13.8686 10.8686Z" stroke-width="2" stroke-linecap="round" stroke="#000000" /></svg>