<svg xmlns="http://www.w3.org/2000/svg" width="24" height="24" viewBox="0 0 24 24" fill="none"><path d="M11 19H6C4.34315 19 3 17.6569 3 16V8C3 6.34315 4.34315 5 6 5H19C20.1046 5 21 5.89543 21 7" stroke-width="2" stroke-linecap="round" stroke="#000000" /><path d="M20 15.9495C20.6186 15.3182 21 14.4537 21 13.5C21 11.567 19.433 10 17.5 10C15.567 10 14 11.567 14 13.5C14 14.4537 14.3814 15.3182 15 15.9495C15.6353 16.5978 16.5207 17 17.5 17C18.4793 17 19.3647 16.5978 20 15.9495ZM15 15.9495V21L17.1286 20.1486C17.367 20.0532 17.633 20.0532 17.8714 20.1486L20 21V15.9495" stroke-width="2" stroke-linejoin="round" stroke="#000000" /><path d="M7 10L11 10" stroke-width="2" stroke-linecap="round" stroke="#000000" /><path d="M7 14L9 14" stroke-width="2" stroke-linecap="round" stroke="#000000" /></svg>