<svg xmlns="http://www.w3.org/2000/svg" width="24" height="24" viewBox="0 0 24 24" fill="none"><path d="M9 5H8.2C7.07989 5 6.51984 5 6.09202 5.21799C5.71569 5.40973 5.40973 5.71569 5.21799 6.09202C5 6.51984 5 7.07989 5 8.2V16.2C5 17.8802 5 18.7202 5.32698 19.362C5.6146 19.9265 6.07354 20.3854 6.63803 20.673C7.27976 21 8.11984 21 9.8 21H11M15 5H15.8C16.9201 5 17.4802 5 17.908 5.21799C18.2843 5.40973 18.5903 5.71569 18.782 6.09202C19 6.51984 19 7.07989 19 8.2V13" stroke-width="2" stroke-linecap="round" stroke-linejoin="round" stroke="#000000" /><path d="M15 19L17 21L21 17" stroke-width="2" stroke-linecap="round" stroke-linejoin="round" stroke="#000000" /><rect x="9" y="3" width="6" height="4" rx="1" stroke-width="2" stroke="#000000" /></svg>