<svg xmlns="http://www.w3.org/2000/svg" width="24" height="24" viewBox="0 0 24 24" fill="none"><path d="M3 9.75C3 10.9926 5.21619 12 7.95 12C9.14667 12 10.2442 11.807 11.1 11.4857M3 9.75V13.35M3 9.75V5.7M3 13.35C3 14.5926 5.21619 15.6 7.95 15.6C9.14667 15.6 10.2442 15.407 11.1 15.0857M3 13.35V16.95C3 18.1926 5.21619 19.2 7.95 19.2C9.14667 19.2 10.2442 19.007 11.1 18.6857M12.9 5.7C12.9 7.19117 10.6838 8.4 7.95 8.4C5.21619 8.4 3 7.19117 3 5.7M12.9 5.7C12.9 4.20883 10.6838 3 7.95 3C5.21619 3 3 4.20883 3 5.7M12.9 5.7V8.85" stroke-width="2" stroke-linecap="round" stroke="#000000" /><path d="M21 15.15C21 16.3927 18.7838 17.4 16.05 17.4C13.3162 17.4 11.1 16.3927 11.1 15.15M21 15.15V18.75C21 19.9927 18.7838 21 16.05 21C13.3162 21 11.1 19.9927 11.1 18.75V15.15M21 15.15V11.1M11.1 15.15V11.1M21 11.1C21 12.5912 18.7838 13.8 16.05 13.8C13.3162 13.8 11.1 12.5912 11.1 11.1M21 11.1C21 9.60886 18.7838 8.40002 16.05 8.40002C13.3162 8.40002 11.1 9.60886 11.1 11.1" stroke-width="2" stroke-linecap="round" stroke="#000000" /></svg>