<svg xmlns="http://www.w3.org/2000/svg" width="24" height="24" viewBox="0 0 24 24" fill="none"><circle cx="12" cy="12" r="9" stroke-width="2" stroke="#000000" /><path d="M10.3795 9.87351L14.4821 8.50596C14.9707 8.34311 15.2149 8.26169 15.3774 8.31962C15.5187 8.37002 15.63 8.48127 15.6804 8.62263C15.7383 8.78507 15.6569 9.02934 15.494 9.51789L14.1265 13.6205C14.0801 13.7597 14.0569 13.8292 14.0174 13.887C13.9824 13.9382 13.9382 13.9824 13.887 14.0174C13.8292 14.0569 13.7597 14.0801 13.6205 14.1265L9.5179 15.494C9.02935 15.6569 8.78508 15.7383 8.62263 15.6804C8.48127 15.63 8.37003 15.5187 8.31962 15.3774C8.2617 15.2149 8.34312 14.9706 8.50597 14.4821L9.87351 10.3795C9.91989 10.2403 9.94308 10.1708 9.9826 10.113C10.0176 10.0618 10.0618 10.0176 10.113 9.9826C10.1708 9.94308 10.2403 9.91989 10.3795 9.87351Z" stroke-width="2" stroke-linecap="round" stroke-linejoin="round" stroke="#000000" /></svg>