<svg xmlns="http://www.w3.org/2000/svg" width="24" height="24" viewBox="0 0 24 24" fill="none"><path d="M5 4L11 4C12.1046 4 13 4.89543 13 6V7M2 18H5H13M13 7H14.4384C15.3562 7 16.1561 7.62459 16.3787 8.51493L16.8106 10.2425C16.9219 10.6877 17.3219 11 17.7808 11H20C21.1046 11 22 11.8954 22 13V17C22 17.5523 21.5523 18 21 18H20M13 7V18M13 18H16" stroke-width="2" stroke-linecap="round" stroke="#000000" /><path d="M6 13L9 13" stroke-width="2" stroke-linecap="round" stroke-linejoin="round" stroke="#000000" /><path d="M3 9L8 9" stroke-width="2" stroke-linecap="round" stroke-linejoin="round" stroke="#000000" /><circle cx="18" cy="18" r="2" stroke-width="2" stroke="#000000" /></svg>