<svg xmlns="http://www.w3.org/2000/svg" width="24" height="24" viewBox="0 0 24 24" fill="none"><path d="M10.5883 2.40679C11.3687 1.62904 12.6313 1.62904 13.4117 2.40679L15.0866 4.0758C15.4058 4.39392 15.8232 4.59489 16.2709 4.64614L18.6201 4.91499C19.7148 5.04028 20.5019 6.02735 20.3805 7.12247L20.1199 9.47255C20.0702 9.92048 20.1733 10.3721 20.4124 10.7541L21.6668 12.7584C22.2514 13.6923 21.9705 14.9232 21.0386 15.511L19.0387 16.7725C18.6575 17.013 18.3687 17.3751 18.2191 17.8002L17.4343 20.0307C17.0685 21.07 15.931 21.6178 14.8904 21.2557L12.6572 20.4787C12.2316 20.3306 11.7684 20.3306 11.3428 20.4787L9.10959 21.2557C8.06895 21.6178 6.93147 21.07 6.56574 20.0307L5.78088 17.8002C5.63129 17.3751 5.34249 17.013 4.96131 16.7725L2.96145 15.511C2.02953 14.9232 1.7486 13.6923 2.33317 12.7584L3.58764 10.7541C3.82675 10.3721 3.92982 9.92048 3.88014 9.47255L3.61952 7.12247C3.49808 6.02735 4.28524 5.04028 5.37992 4.91499L7.72908 4.64614C8.17683 4.59489 8.59416 4.39392 8.91339 4.0758L10.5883 2.40679Z" stroke-width="2" stroke="#000000" /><path d="M15 9L9 15" stroke-width="2" stroke-linecap="round" stroke-linejoin="round" stroke="#000000" /><path d="M9 9H9.0001" stroke-width="2" stroke-linecap="round" stroke="#000000" /><path d="M15 15H15.0001" stroke-width="2" stroke-linecap="round" stroke="#000000" /></svg>