<svg xmlns="http://www.w3.org/2000/svg" width="24" height="24" viewBox="0 0 24 24" fill="none"><path d="M21 12C21 16.9706 16.9706 21 12 21C7.02944 21 3 16.9706 3 12C3 7.02944 7.02944 3 12 3C16.9706 3 21 7.02944 21 12Z" stroke-width="2" stroke="#000000" /><path d="M14.7 12C14.7 13.4912 13.4912 14.7 12 14.7C10.5088 14.7 9.3 13.4912 9.3 12C9.3 10.5088 10.5088 9.29999 12 9.29999C13.4912 9.29999 14.7 10.5088 14.7 12Z" stroke-width="2" stroke="#000000" /><path d="M13.8 5.96088C15.832 6.56563 17.4344 8.16798 18.0391 10.2M10.2 18.0391C8.168 17.4343 6.56564 15.832 5.96089 13.8" stroke-width="2" stroke-linecap="round" stroke="#000000" /></svg>