<svg xmlns="http://www.w3.org/2000/svg" width="24" height="24" viewBox="0 0 24 24" fill="none"><path d="M8 6C7.07003 6 6.60504 6 6.22354 6.10222C5.18827 6.37962 4.37962 7.18827 4.10222 8.22354C4 8.60504 4 9.07003 4 10V17.2C4 18.8802 4 19.7202 4.32698 20.362C4.6146 20.9265 5.07354 21.3854 5.63803 21.673C6.27976 22 7.11984 22 8.8 22H11C11.93 22 12.395 22 12.7765 21.8978C13.8117 21.6204 14.6204 20.8117 14.8978 19.7765C15 19.395 15 18.93 15 18" stroke-width="2" stroke="#000000" /><path d="M8 6.8C8 5.11984 8 4.27976 8.32698 3.63803C8.6146 3.07354 9.07354 2.6146 9.63803 2.32698C10.2798 2 11.1198 2 12.8 2H15.2C16.8802 2 17.7202 2 18.362 2.32698C18.9265 2.6146 19.3854 3.07354 19.673 3.63803C20 4.27976 20 5.11984 20 6.8V13.2C20 14.8802 20 15.7202 19.673 16.362C19.3854 16.9265 18.9265 17.3854 18.362 17.673C17.7202 18 16.8802 18 15.2 18H12.8C11.1198 18 10.2798 18 9.63803 17.673C9.07354 17.3854 8.6146 16.9265 8.32698 16.362C8 15.7202 8 14.8802 8 13.2V6.8Z" stroke-width="2" stroke="#000000" /><path d="M12 10H16" stroke-width="2" stroke-linecap="round" stroke="#000000" /><path d="M12 6H16" stroke-width="2" stroke-linecap="round" stroke="#000000" /><path d="M12 14H14" stroke-width="2" stroke-linecap="round" stroke="#000000" /></svg>