<svg xmlns="http://www.w3.org/2000/svg" width="24" height="24" viewBox="0 0 24 24" fill="none"><path d="M3.07644 10.8217C6.60311 11.0782 9.8295 10.6982 12.6809 9.61781M5.8621 18.5823C3.75096 16.6128 2.70285 13.6788 3.07644 10.8217C3.50801 7.52127 5.72775 4.78325 8.73134 3.61195M12.6809 9.61781C13.157 10.5411 13.591 11.4849 13.9803 12.4428M12.6809 9.61781C14.8769 8.78579 16.8504 7.53835 18.5675 5.84629M12.6809 9.61781C11.5789 7.48014 10.2514 5.45204 8.73134 3.61195M13.9803 12.4428C10.741 13.2284 7.91806 15.3194 5.8621 18.5823M13.9803 12.4428C14.9855 14.916 15.6928 17.4833 16.0571 20.0359M13.9803 12.4428C16.1592 11.9143 18.5265 11.9765 20.9754 12.67M5.8621 18.5823C8.5896 21.1267 12.7354 21.7162 16.0571 20.0359M16.0571 20.0359C18.8013 18.6476 20.7381 15.895 20.9754 12.67M8.73134 3.61195C12.111 2.29397 16.0793 3.19182 18.5675 5.84629C20.2791 7.67221 21.1589 10.1767 20.9754 12.67" stroke-width="2" stroke="#000000" /></svg>