<svg xmlns="http://www.w3.org/2000/svg" width="24" height="24" viewBox="0 0 24 24" fill="none"><path d="M10 14C10 16.2091 11.7909 18 14 18C16.2091 18 18 16.2091 18 14C18 11.7909 16.2091 10 14 10" stroke-width="2" stroke-linecap="round" stroke="#000000" /><path d="M6 9.2C6 8.07989 6 7.51984 6.21799 7.09202C6.40973 6.71569 6.71569 6.40973 7.09202 6.21799C7.51984 6 8.07989 6 9.2 6H10.8C11.9201 6 12.4802 6 12.908 6.21799C13.2843 6.40973 13.5903 6.71569 13.782 7.09202C14 7.51984 14 8.07989 14 9.2V10.8C14 11.9201 14 12.4802 13.782 12.908C13.5903 13.2843 13.2843 13.5903 12.908 13.782C12.4802 14 11.9201 14 10.8 14H9.2C8.07989 14 7.51984 14 7.09202 13.782C6.71569 13.5903 6.40973 13.2843 6.21799 12.908C6 12.4802 6 11.9201 6 10.8V9.2Z" stroke-width="2" stroke-linecap="round" stroke="#000000" /><path d="M2 13C2 16.2716 3.57111 19.1763 6 21.0007H3" stroke-width="2" stroke-linecap="round" stroke-linejoin="round" stroke="#000000" /><path d="M22 11.001C22 7.72934 20.4289 4.82466 18 3.00024H21" stroke-width="2" stroke-linecap="round" stroke-linejoin="round" stroke="#000000" /></svg>