<svg xmlns="http://www.w3.org/2000/svg" width="24" height="24" viewBox="0 0 24 24" fill="none"><path d="M2 10.8C2 9.11984 2 8.27976 2.32698 7.63803C2.6146 7.07354 3.07354 6.6146 3.63803 6.32698C4.27976 6 5.11984 6 6.8 6L17.2 6C18.8802 6 19.7202 6 20.362 6.32698C20.9265 6.6146 21.3854 7.07354 21.673 7.63803C22 8.27976 22 9.11984 22 10.8V13.2C22 14.8802 22 15.7202 21.673 16.362C21.3854 16.9265 20.9265 17.3854 20.362 17.673C19.7202 18 18.8802 18 17.2 18L6.8 18C5.11984 18 4.27976 18 3.63803 17.673C3.07354 17.3854 2.6146 16.9265 2.32698 16.362C2 15.7202 2 14.8802 2 13.2V10.8Z" stroke-width="2" stroke-linecap="round" stroke-linejoin="round" stroke="#000000" /><path d="M5.5 10V14M11.5 10.2676C11.2058 10.0974 10.8643 10 10.5 10C9.39543 10 8.5 10.8954 8.5 12C8.5 13.1046 9.39543 14 10.5 14C10.8643 14 11.2058 13.9026 11.5 13.7324M18.5 12C18.5 13.1046 17.6046 14 16.5 14C15.3954 14 14.5 13.1046 14.5 12C14.5 10.8954 15.3954 10 16.5 10C17.6046 10 18.5 10.8954 18.5 12Z" stroke-width="2" stroke-linecap="round" stroke-linejoin="round" stroke="#000000" /></svg>