<svg xmlns="http://www.w3.org/2000/svg" width="24" height="24" viewBox="0 0 24 24" fill="none"><path d="M8 6C7.07003 6 6.60504 6 6.22354 6.10222C5.18827 6.37962 4.37962 7.18827 4.10222 8.22354C4 8.60504 4 9.07003 4 10V17.2C4 18.8802 4 19.7202 4.32698 20.362C4.6146 20.9265 5.07354 21.3854 5.63803 21.673C6.27976 22 7.11984 22 8.8 22H12C12.93 22 13.395 22 13.7765 21.8978C14.8117 21.6204 15.6204 20.8117 15.8978 19.7765C16 19.395 16 18.93 16 18" stroke-width="2" stroke-linecap="round" stroke-linejoin="round" stroke="#000000" /><path d="M8 6.8C8 5.11984 8 4.27976 8.32698 3.63803C8.6146 3.07354 9.07354 2.6146 9.63803 2.32698C10.2798 2 11.1198 2 12.8 2H14.2506C14.5261 2 14.6638 2 14.7914 2.03434C14.9045 2.06476 15.0114 2.11481 15.1071 2.18221C15.2152 2.25828 15.3034 2.36409 15.4798 2.5757L19.6292 7.55499C19.7665 7.7198 19.8352 7.80221 19.8841 7.89468C19.9274 7.9767 19.9592 8.06436 19.9784 8.15513C20 8.25746 20 8.36473 20 8.57928V13.2C20 14.8802 20 15.7202 19.673 16.362C19.3854 16.9265 18.9265 17.3854 18.362 17.673C17.7202 18 16.8802 18 15.2 18H12.8C11.1198 18 10.2798 18 9.63803 17.673C9.07354 17.3854 8.6146 16.9265 8.32698 16.362C8 15.7202 8 14.8802 8 13.2V6.8Z" stroke-width="2" stroke-linejoin="round" stroke-linecap="round" stroke="#000000" /><path d="M15 2V7C15 7.55228 15.4477 8 16 8H20" stroke-width="2" stroke-linejoin="round" stroke-linecap="round" stroke="#000000" /></svg>