<svg xmlns="http://www.w3.org/2000/svg" width="24" height="24" viewBox="0 0 24 24" fill="none"><path d="M13 20H14.2C15.8802 20 16.7202 20 17.362 19.673C17.9265 19.3854 18.3854 18.9265 18.673 18.362C19 17.7202 19 16.8802 19 15.2V8.56125C19 8.35323 19 8.24922 18.9796 8.14974C18.9615 8.06148 18.9315 7.97607 18.8905 7.89583C18.8443 7.80539 18.7793 7.72417 18.6494 7.56174L15.4804 3.60049C15.304 3.37997 15.2158 3.26971 15.1063 3.19035C15.0093 3.12004 14.9005 3.06773 14.785 3.03591C14.6546 3 14.5134 3 14.231 3H9.8C8.11984 3 7.27976 3 6.63803 3.32698C6.07354 3.6146 5.6146 4.07354 5.32698 4.63803C5 5.27976 5 6.11984 5 7.8L5 16C5 16.93 5 17.395 5.10222 17.7765C5.37962 18.8117 6.18827 19.6204 7.22354 19.8978C7.60504 20 8.07003 20 9 20" stroke-width="2" stroke-linecap="round" stroke="#000000" /><path d="M10 8L9 8" stroke-width="2" stroke-linecap="round" stroke="#000000" /><path d="M10 12L9 12" stroke-width="2" stroke-linecap="round" stroke="#000000" /><path d="M13 10L12 10" stroke-width="2" stroke-linecap="round" stroke="#000000" /><path d="M13 6L12 6" stroke-width="2" stroke-linecap="round" stroke="#000000" /><path d="M13 17L13 20C13 20.5523 12.5523 21 12 21H10C9.44772 21 9 20.5523 9 20L9 17C9 16.4477 9.44772 16 10 16H12C12.5523 16 13 16.4477 13 17Z" stroke-width="2" stroke-linecap="round" stroke="#000000" /></svg>