<svg xmlns="http://www.w3.org/2000/svg" width="24" height="24" viewBox="0 0 24 24" fill="none"><path d="M20.382 3H3.61803C2.87465 3 2.39116 3.78231 2.72361 4.44721L3.04657 5.09313C4.32236 7.64472 6.29932 9.77959 8.74554 11.2473L10 12V21L14 19V12L15.2545 11.2473C17.7007 9.77959 19.6776 7.64472 20.9534 5.09313L21.2764 4.44721C21.6088 3.78231 21.1253 3 20.382 3Z" stroke-width="2" stroke-linecap="round" stroke-linejoin="round" stroke="#000000" /><path d="M20.382 3H3.61803C2.87465 3 2.39116 3.78231 2.72361 4.44721L3.04657 5.09313C4.32236 7.64472 6.29932 9.77959 8.74554 11.2473L10 12V21L14 19V12L15.2545 11.2473C17.7007 9.77959 19.6776 7.64472 20.9534 5.09313L21.2764 4.44721C21.6088 3.78231 21.1253 3 20.382 3Z" stroke-width="2" stroke-linecap="round" stroke-linejoin="round" stroke="#000000" /></svg>