<svg xmlns="http://www.w3.org/2000/svg" width="24" height="24" viewBox="0 0 24 24" fill="none"><path d="M12 21C15.866 21 19 18.0309 19 14.3684C19 11.3643 16.8915 8.82672 14 8.01146V6H14.5C15.3284 6 16 5.32843 16 4.5C16 3.67157 15.3284 3 14.5 3H9.5C8.67157 3 8 3.67157 8 4.5C8 5.32843 8.67157 6 9.5 6H10V8.01146C7.10851 8.82672 5 11.3643 5 14.3684C5 18.0309 8.13401 21 12 21Z" stroke-width="2" stroke-linecap="round" stroke-linejoin="round" stroke="#000000" /><path d="M5 13H19" stroke-width="2" stroke="#000000" /></svg>