<svg xmlns="http://www.w3.org/2000/svg" width="24" height="24" viewBox="0 0 24 24" fill="none"><path d="M12 3L12 4" stroke-width="2" stroke-linecap="round" stroke="#000000" /><path d="M12 8V10" stroke-width="2" stroke-linecap="round" stroke="#000000" /><path d="M12 14V16" stroke-width="2" stroke-linecap="round" stroke="#000000" /><path d="M12 20V21" stroke-width="2" stroke-linecap="round" stroke="#000000" /><path d="M17.1314 10.8686L18.2686 9.73137C19.1254 8.87462 19.5538 8.44624 19.9215 8.4173C20.2407 8.39218 20.5525 8.52136 20.7604 8.76477C21 9.04529 21 9.65111 21 10.8627V13.1373C21 14.3489 21 14.9547 20.7604 15.2352C20.5525 15.4786 20.2407 15.6078 19.9215 15.5827C19.5538 15.5538 19.1254 15.1254 18.2686 14.2686L17.1314 13.1314C16.7354 12.7354 16.5373 12.5373 16.4632 12.309C16.3979 12.1082 16.3979 11.8918 16.4632 11.691C16.5373 11.4627 16.7354 11.2646 17.1314 10.8686Z" stroke-width="2" stroke-linecap="round" stroke="#000000" /><path d="M6.86863 10.8686L5.73137 9.73137C4.87462 8.87462 4.44624 8.44624 4.07846 8.4173C3.75934 8.39218 3.44749 8.52136 3.23959 8.76477C3 9.04529 3 9.65111 3 10.8627V13.1373C3 14.3489 3 14.9547 3.23959 15.2352C3.44749 15.4786 3.75934 15.6078 4.07846 15.5827C4.44624 15.5538 4.87462 15.1254 5.73137 14.2686L6.86863 13.1314C7.26465 12.7354 7.46265 12.5373 7.53684 12.309C7.6021 12.1082 7.6021 11.8918 7.53684 11.691C7.46265 11.4627 7.26465 11.2646 6.86863 10.8686Z" stroke-width="2" stroke-linecap="round" stroke="#000000" /></svg>