<svg xmlns="http://www.w3.org/2000/svg" width="24" height="24" viewBox="0 0 24 24" fill="none"><path d="M21.005 11.995L20.005 11.995" stroke-width="2" stroke-linecap="round" stroke="#000000" /><path d="M16.005 11.995L14.005 11.995" stroke-width="2" stroke-linecap="round" stroke="#000000" /><path d="M10.005 11.995L8.005 11.995" stroke-width="2" stroke-linecap="round" stroke="#000000" /><path d="M4.005 11.995L3.005 11.995" stroke-width="2" stroke-linecap="round" stroke="#000000" /><path d="M13.1314 17.1314L14.2686 18.2686C15.1254 19.1254 15.5538 19.5538 15.5827 19.9215C15.6078 20.2407 15.4786 20.5525 15.2352 20.7604C14.9547 21 14.3489 21 13.1373 21L10.8627 21C9.65111 21 9.04529 21 8.76477 20.7604C8.52136 20.5525 8.39218 20.2407 8.4173 19.9215C8.44624 19.5538 8.87462 19.1254 9.73137 18.2686L10.8686 17.1314C11.2646 16.7354 11.4627 16.5373 11.691 16.4632C11.8918 16.3979 12.1082 16.3979 12.309 16.4632C12.5373 16.5373 12.7354 16.7354 13.1314 17.1314Z" stroke-width="2" stroke-linecap="round" stroke="#000000" /><path d="M13.1314 6.86863L14.2686 5.73137C15.1254 4.87462 15.5538 4.44624 15.5827 4.07846C15.6078 3.75934 15.4786 3.44749 15.2352 3.23959C14.9547 3 14.3489 3 13.1373 3L10.8627 3C9.65111 3 9.04529 3 8.76477 3.23959C8.52136 3.44749 8.39218 3.75934 8.4173 4.07846C8.44624 4.44624 8.87462 4.87462 9.73137 5.73137L10.8686 6.86863C11.2646 7.26465 11.4627 7.46265 11.691 7.53684C11.8918 7.6021 12.1082 7.6021 12.309 7.53684C12.5373 7.46265 12.7354 7.26465 13.1314 6.86863Z" stroke-width="2" stroke-linecap="round" stroke="#000000" /></svg>