<svg xmlns="http://www.w3.org/2000/svg" width="24" height="24" viewBox="0 0 24 24" fill="none"><path d="M5.96976 12.3974C6.192 11.5396 6.30312 11.1108 6.54503 10.7917C6.75848 10.5101 7.04272 10.2902 7.36881 10.1541C7.73836 10 8.1814 10 9.06748 10H17.4733C18.8813 10 19.5853 10 20.0646 10.2921C20.4847 10.5481 20.7957 10.95 20.9382 11.4209C21.1007 11.9582 20.9242 12.6397 20.5711 14.0026L19.6383 17.6026C19.4161 18.4603 19.305 18.8892 19.0631 19.2083C18.8496 19.4899 18.5654 19.7098 18.2393 19.8459C17.8697 20 17.4267 20 16.5406 20H8.13475C6.72681 20 6.02284 20 5.54346 19.7079C5.12337 19.4519 4.81236 19.05 4.66991 18.5791C4.50735 18.0418 4.68391 17.3603 5.03703 15.9974L5.96976 12.3974Z" stroke-width="2" stroke="#000000" /><path d="M12.6 20H9.4C7.15979 20 6.03968 20 5.18404 19.564C4.43139 19.1805 3.81947 18.5686 3.43597 17.816C3 16.9603 3 15.8402 3 13.6V8V5.6C3 5.03995 3 4.75992 3.10899 4.54601C3.20487 4.35785 3.35785 4.20487 3.54601 4.10899C3.75992 4 4.03995 4 4.6 4H6.02229C6.74021 4 7.09916 4 7.41607 4.10931C7.69632 4.20597 7.95158 4.36373 8.16337 4.57116C8.40287 4.80573 8.42538 5.47338 8.88446 5.76892C9.25854 6.00974 9.5 6 10 6C10.5 6 12.6 6 12.6 6C14.8402 6 15.9603 6 16.816 6.43597C17.5686 6.81947 18.1805 7.43139 18.564 8.18404C18.8061 8.65905 18.9616 9.5 18.9616 10" stroke-width="2" stroke="#000000" /></svg>