<svg xmlns="http://www.w3.org/2000/svg" width="24" height="24" viewBox="0 0 24 24" fill="none"><path d="M3 10.2C3 9.07989 3 8.51984 3.21799 8.09202C3.40973 7.71569 3.71569 7.40973 4.09202 7.21799C4.51984 7 5.07989 7 6.2 7H8.89182C9.53016 7 9.84933 7 10.1281 7.08284C10.5613 7.21154 10.9381 7.48311 11.1971 7.85332C11.3639 8.09162 11.4648 8.39441 11.6667 9C11.7676 9.30279 11.8181 9.45419 11.9014 9.57334C12.031 9.75844 12.2194 9.89423 12.4359 9.95858C12.5753 10 12.7349 10 13.0541 10H16.2C17.8802 10 18.7202 10 19.362 10.327C19.9265 10.6146 20.3854 11.0735 20.673 11.638C21 12.2798 21 13.1198 21 14.8V16.2C21 17.8802 21 18.7202 20.673 19.362C20.3854 19.9265 19.9265 20.3854 19.362 20.673C18.7202 21 17.8802 21 16.2 21H7.8C6.11984 21 5.27976 21 4.63803 20.673C4.07354 20.3854 3.6146 19.9265 3.32698 19.362C3 18.7202 3 17.8802 3 16.2V10.2Z" stroke-width="2" stroke="#000000" /><path d="M5 7V6.2C5 5.07989 5 4.51984 5.21799 4.09202C5.40973 3.71569 5.71569 3.40973 6.09202 3.21799C6.51984 3 7.07989 3 8.2 3H11.2635C11.6589 3 11.8566 3 12.0334 3.03205C12.6242 3.1391 13.1355 3.50585 13.4264 4.03102C13.5135 4.18827 13.5769 4.37551 13.7037 4.75C13.7671 4.93724 13.7988 5.03086 13.8424 5.10949C13.9878 5.37208 14.2435 5.55545 14.5388 5.60897C14.6273 5.625 14.7261 5.625 14.9238 5.625H16.2C17.8802 5.625 18.7202 5.625 19.362 5.95198C19.9265 6.2396 20.3854 6.69854 20.673 7.26303C21 7.90476 21 8.74484 21 10.425V15" stroke-width="2" stroke="#000000" /></svg>