<svg xmlns="http://www.w3.org/2000/svg" width="24" height="24" viewBox="0 0 24 24" fill="none"><path d="M21 11C21 9.34315 19.6569 8 18 8H3V15.2C3 16.8802 3 17.7202 3.32698 18.362C3.6146 18.9265 4.07354 19.3854 4.63803 19.673C5.27976 20 6.11984 20 7.8 20H11" stroke-width="2" stroke-linecap="round" stroke="#000000" /><path d="M3 5.6C3 5.03995 3 4.75992 3.10899 4.54601C3.20487 4.35785 3.35785 4.20487 3.54601 4.10899C3.75992 4 4.03995 4 4.6 4H9.02229C9.74021 4 10.0992 4 10.4161 4.10931C10.6963 4.20597 10.9516 4.36373 11.1634 4.57116C11.4029 4.80573 11.5634 5.12679 11.8845 5.76892L13 8H4.6C4.03995 8 3.75992 8 3.54601 7.89101C3.35785 7.79513 3.20487 7.64215 3.10899 7.45399C3 7.24008 3 6.96005 3 6.4V5.6Z" stroke-width="2" stroke="#000000" /><path d="M18 21V15M15 18H21" stroke-width="2" stroke-linecap="round" stroke="#000000" /></svg>