<svg xmlns="http://www.w3.org/2000/svg" width="24" height="24" viewBox="0 0 24 24" fill="none"><path d="M21.9344 16.8419L21.2069 10.6318C20.9626 8.54582 19.4448 6.80277 17.3758 6.4418C13.5067 5.76676 10.4404 5.77364 6.62398 6.44091C4.55502 6.80265 3.03742 8.54595 2.79304 10.632L2.06558 16.8419C1.75315 19.5088 5.11103 20.9379 6.81637 18.8638C8.00893 17.4133 9.78814 16.5728 11.6659 16.5728H12.3341C14.2119 16.5728 15.9911 17.4133 17.1836 18.8638C18.889 20.9379 22.2468 19.5088 21.9344 16.8419Z" stroke-width="2" stroke-linecap="round" stroke-linejoin="round" stroke="#000000" /><path d="M12 3L12 5.74136" stroke-width="2" stroke-linecap="round" stroke-linejoin="round" stroke="#000000" /><path d="M18 12H18.0001" stroke-width="2" stroke-linecap="round" stroke="#000000" /><path d="M14 12H14.0001" stroke-width="2" stroke-linecap="round" stroke="#000000" /><path d="M16 10H16.0001" stroke-width="2" stroke-linecap="round" stroke="#000000" /><path d="M16 14H16.0001" stroke-width="2" stroke-linecap="round" stroke="#000000" /><path d="M6 12H10" stroke-width="2" stroke-linecap="round" stroke-linejoin="round" stroke="#000000" /><path d="M8 10L8 14" stroke-width="2" stroke-linecap="round" stroke-linejoin="round" stroke="#000000" /></svg>