<svg xmlns="http://www.w3.org/2000/svg" width="24" height="24" viewBox="0 0 24 24" fill="none"><path d="M5 7L5 17" stroke-width="2" stroke-linecap="round" stroke-linejoin="round" stroke="#000000" /><rect x="3" y="17" width="4" height="4" rx="2" stroke-width="2" stroke-linecap="round" stroke-linejoin="round" stroke="#000000" /><rect x="3" y="3" width="4" height="4" rx="2" stroke-width="2" stroke-linecap="round" stroke-linejoin="round" stroke="#000000" /><rect x="17" y="17" width="4" height="4" rx="2" stroke-width="2" stroke-linecap="round" stroke-linejoin="round" stroke="#000000" /><path d="M19.1444 4H18.8456M19.5 4C19.5 4.27614 19.2761 4.5 19 4.5C18.7239 4.5 18.5 4.27614 18.5 4C18.5 3.72386 18.7239 3.5 19 3.5C19.2761 3.5 19.5 3.72386 19.5 4Z" stroke-width="2" stroke-linecap="round" stroke="#000000" /><path d="M19.1444 11H18.8456M19.5 11C19.5 11.2761 19.2761 11.5 19 11.5C18.7239 11.5 18.5 11.2761 18.5 11C18.5 10.7239 18.7239 10.5 19 10.5C19.2761 10.5 19.5 10.7239 19.5 11Z" stroke-width="2" stroke-linecap="round" stroke="#000000" /></svg>