<svg xmlns="http://www.w3.org/2000/svg" width="24" height="24" viewBox="0 0 24 24" fill="none"><path d="M3 13H21M21 13L16.8845 4.76892C16.5634 4.12679 16.4029 3.80573 16.1634 3.57116C15.9516 3.36373 15.6963 3.20597 15.4161 3.10931C15.0992 3 14.7402 3 14.0223 3H9.97771C9.25979 3 8.90084 3 8.58393 3.10931C8.30368 3.20597 8.04842 3.36373 7.83663 3.57116C7.59713 3.80573 7.4366 4.12679 7.11554 4.76892L3 13V17.8C3 18.9201 3 19.4802 3.21799 19.908C3.40973 20.2843 3.71569 20.5903 4.09202 20.782C4.51984 21 5.07989 21 6.2 21H17.8C18.9201 21 19.4802 21 19.908 20.782C20.2843 20.5903 20.5903 20.2843 20.782 19.908C21 19.4802 21 18.9201 21 17.8V13Z" stroke-width="2" stroke-linecap="round" stroke-linejoin="round" stroke="#000000" /><path d="M16 17L17 17" stroke-width="2" stroke-linecap="round" stroke-linejoin="round" stroke="#000000" /><path d="M7 17L11 17" stroke-width="2" stroke-linecap="round" stroke-linejoin="round" stroke="#000000" /></svg>