<svg xmlns="http://www.w3.org/2000/svg" width="24" height="24" viewBox="0 0 24 24" fill="none"><path d="M4 8V16.2C4 17.8802 4 18.7202 4.32698 19.362C4.6146 19.9265 5.07354 20.3854 5.63803 20.673C6.27976 21 7.11984 21 8.8 21H15.2C16.8802 21 17.7202 21 18.362 20.673C18.9265 20.3854 19.3854 19.9265 19.673 19.362C20 18.7202 20 17.8802 20 16.2V8" stroke-width="2" stroke-linecap="round" stroke="#000000" /><path d="M2 9L9.53042 4.48175C10.4283 3.94301 10.8773 3.67364 11.3565 3.56839C11.7805 3.4753 12.2195 3.4753 12.6435 3.56839C13.1227 3.67364 13.5717 3.94301 14.4696 4.48175L22 9" stroke-width="2" stroke-linecap="round" stroke="#000000" /><path d="M12 21L12 17" stroke-width="2" stroke-linecap="round" stroke-linejoin="round" stroke="#000000" /></svg>