<svg xmlns="http://www.w3.org/2000/svg" width="24" height="24" viewBox="0 0 24 24" fill="none"><path d="M8.5 4C8.32261 4.04566 8.15475 4.11504 8 4.20456C7.4022 4.55037 7 5.19671 7 5.93699V21H17.8C18.9201 21 19.4802 21 19.908 20.782C20.2843 20.5903 20.5903 20.2843 20.782 19.908C21 19.4802 21 18.9201 21 17.8V5.93699C21 5.00507 20.3626 4.22202 19.5 4" stroke-width="2" stroke-linecap="round" stroke="#000000" /><path d="M11 12H12" stroke-width="2" stroke-linecap="round" stroke-linejoin="round" stroke="#000000" /><path d="M11 16H12" stroke-width="2" stroke-linecap="round" stroke-linejoin="round" stroke="#000000" /><path d="M16 12H17" stroke-width="2" stroke-linecap="round" stroke-linejoin="round" stroke="#000000" /><path d="M16 16H17" stroke-width="2" stroke-linecap="round" stroke-linejoin="round" stroke="#000000" /><path d="M12 4H16" stroke-width="2" stroke-linecap="round" stroke-linejoin="round" stroke="#000000" /><path d="M14 6L14 2" stroke-width="2" stroke-linecap="round" stroke-linejoin="round" stroke="#000000" /><path d="M3 12.2C3 11.0799 3 10.5198 3.21799 10.092C3.40973 9.71569 3.71569 9.40973 4.09202 9.21799C4.51984 9 5.07989 9 6.2 9H7V21H4.6C4.03995 21 3.75992 21 3.54601 20.891C3.35785 20.7951 3.20487 20.6422 3.10899 20.454C3 20.2401 3 19.9601 3 19.4V12.2Z" stroke-width="2" stroke-linecap="round" stroke="#000000" /></svg>