<svg xmlns="http://www.w3.org/2000/svg" width="24" height="24" viewBox="0 0 24 24" fill="none"><path d="M11 3H7.8C6.11984 3 5.27976 3 4.63803 3.32698C4.07354 3.6146 3.6146 4.07354 3.32698 4.63803C3 5.27976 3 6.11984 3 7.8V16.2C3 17.8802 3 18.7202 3.32698 19.362C3.6146 19.9265 4.07354 20.3854 4.63803 20.673C5.27976 21 6.11984 21 7.8 21H17.5C17.9644 21 18.1966 21 18.3916 20.9743C19.7378 20.7971 20.7971 19.7378 20.9743 18.3916C21 18.1966 21 17.9644 21 17.5" stroke-width="2" stroke-linecap="round" stroke="#000000" /><path d="M20.6569 16.6569L17.0734 13.0734C16.6958 12.6958 16.507 12.507 16.2877 12.4319C16.0947 12.3658 15.8862 12.3603 15.69 12.4162C15.4671 12.4796 15.2686 12.6583 14.8717 13.0155L6 21H17.4853C17.9634 21 18.2024 21 18.403 20.9728C19.74 20.7915 20.7915 19.74 20.9728 18.403C21 18.2024 21 17.9634 21 17.4853C21 17.4154 21 17.3805 20.9977 17.3469C20.983 17.1286 20.8971 16.9211 20.7531 16.7563C20.7309 16.7309 20.7063 16.7063 20.6569 16.6569L20.6569 16.6569Z" stroke-width="2" stroke-linejoin="round" stroke="#000000" /><path d="M9 9C9 9.55228 8.55228 10 8 10C7.44772 10 7 9.55228 7 9C7 8.44772 7.44772 8 8 8C8.55228 8 9 8.44772 9 9Z" stroke-width="2" stroke="#000000" /><path d="M15 7H21" stroke-width="2" stroke-linecap="round" stroke="#000000" /></svg>