<svg xmlns="http://www.w3.org/2000/svg" width="24" height="24" viewBox="0 0 24 24" fill="none"><path d="M16.711 8L15.7262 4.3246C15.2974 2.72421 13.6524 1.77446 12.052 2.20328L4.32457 4.27384C2.72417 4.70266 1.77442 6.34767 2.20325 7.94807L4.2738 15.6755C4.70262 17.2759 6.34763 18.2256 7.94803 17.7968L8 17.7829" stroke-width="2" stroke="#000000" /><path d="M21.8888 19.812C21.5347 21.0743 20.3755 22 19 22H11C10.1023 22 9.29675 21.6057 8.74697 20.9809C8.282 20.4525 8 19.7592 8 19V11C8 9.34315 9.34315 8 11 8H19C20.6569 8 22 9.34315 22 11V19C22 19.2814 21.9613 19.5537 21.8888 19.812ZM8.74697 20.9809L18.1468 15.4977C18.6197 15.2218 19.2265 15.3775 19.5082 15.847L21.8888 19.812" stroke-width="2" stroke-linecap="round" stroke-linejoin="round" stroke="#000000" /><path d="M14 13C14 13.5523 13.5523 14 13 14C12.4477 14 12 13.5523 12 13C12 12.4477 12.4477 12 13 12C13.5523 12 14 12.4477 14 13Z" stroke-width="2" stroke="#000000" /></svg>