<svg xmlns="http://www.w3.org/2000/svg" width="24" height="24" viewBox="0 0 24 24" fill="none"><path d="M3.14094 13.4832L5.3971 5.21065C5.75306 3.90546 6.93853 3 8.29139 3H15.7086C17.0615 3 18.2469 3.90546 18.6029 5.21065L20.8591 13.4832C20.9526 13.8262 21 14.1801 21 14.5357V18C21 19.6569 19.6569 21 18 21H6C4.34315 21 3 19.6569 3 18V14.5357C3 14.1801 3.0474 13.8262 3.14094 13.4832Z" stroke-width="2" stroke-linecap="round" stroke-linejoin="round" stroke="#000000" /><path d="M3.14453 14H6.58579C6.851 14 7.10536 14.1054 7.29289 14.2929L8.70711 15.7071C8.89464 15.8946 9.149 16 9.41421 16H14.5858C14.851 16 15.1054 15.8946 15.2929 15.7071L16.7071 14.2929C16.8946 14.1054 17.149 14 17.4142 14H20.8047" stroke-width="2" stroke-linecap="round" stroke-linejoin="round" stroke="#000000" /></svg>