<svg xmlns="http://www.w3.org/2000/svg" width="24" height="24" viewBox="0 0 24 24" fill="none"><path d="M3 10.2C3 9.07989 3 8.51984 3.21799 8.09202C3.40973 7.71569 3.71569 7.40973 4.09202 7.21799C4.51984 7 5.0799 7 6.2 7H17.8C18.9201 7 19.4802 7 19.908 7.21799C20.2843 7.40973 20.5903 7.71569 20.782 8.09202C21 8.51984 21 9.07989 21 10.2V16.2C21 17.8802 21 18.7202 20.673 19.362C20.3854 19.9265 19.9265 20.3854 19.362 20.673C18.7202 21 17.8802 21 16.2 21H7.8C6.11984 21 5.27976 21 4.63803 20.673C4.07354 20.3854 3.6146 19.9265 3.32698 19.362C3 18.7202 3 17.8802 3 16.2V10.2Z" stroke-width="2" stroke-linecap="round" stroke-linejoin="round" stroke="#000000" /><path d="M14 7L14 4.6C14 4.03995 14 3.75992 14.109 3.54601C14.2049 3.35785 14.3578 3.20487 14.546 3.10899C14.7599 3 15.0399 3 15.6 3L16.4 3C16.9601 3 17.2401 3 17.454 3.10899C17.6422 3.20487 17.7951 3.35785 17.891 3.54601C18 3.75992 18 4.03995 18 4.6L18 7" stroke-width="2" stroke-linecap="round" stroke-linejoin="round" stroke="#000000" /><path d="M6 7L6 4.6C6 4.03995 6 3.75992 6.10899 3.54601C6.20487 3.35785 6.35785 3.20487 6.54601 3.10899C6.75992 3 7.03995 3 7.6 3L8.4 3C8.96005 3 9.24008 3 9.45399 3.10899C9.64215 3.20487 9.79513 3.35785 9.89101 3.54601C10 3.75992 10 4.03995 10 4.6L10 7" stroke-width="2" stroke-linecap="round" stroke-linejoin="round" stroke="#000000" /></svg>