<svg xmlns="http://www.w3.org/2000/svg" width="24" height="24" viewBox="0 0 24 24" fill="none"><path d="M3 9L3 15C3 16.6569 4.34315 18 6 18L8 18C9.65685 18 11 16.6569 11 15L11 14L15 14L15 16C15 16.5523 15.4477 17 16 17L18 17C18.5523 17 19 16.5523 19 16L19 14L21 14L21 12C21 10.8954 20.1046 10 19 10L11 10L11 9C11 7.34315 9.65685 6 8 6L6 6C4.34315 6 3 7.34315 3 9Z" stroke-width="2" stroke-linecap="round" stroke-linejoin="round" stroke="#000000" /><path d="M7 14L7 10" stroke-width="2" stroke-linecap="round" stroke="#000000" /></svg>