<svg xmlns="http://www.w3.org/2000/svg" width="24" height="24" viewBox="0 0 24 24" fill="none"><path d="M9.94215 5H17.2C18.8802 5 19.7202 5 20.362 5.32698C20.9265 5.6146 21.3854 6.07354 21.673 6.63803C22 7.27976 22 8.11984 22 9.8V14.2C22 15.5103 22 16.3096 21.8449 16.9024M5 5.02878C4.41168 5.06471 3.99429 5.14546 3.63803 5.32698C3.07354 5.6146 2.6146 6.07354 2.32698 6.63803C2 7.27976 2 8.11984 2 9.8V14.2C2 15.8802 2 16.7202 2.32698 17.362C2.6146 17.9265 3.07354 18.3854 3.63803 18.673C4.27976 19 5.11984 19 6.8 19H17.2C17.9551 19 18.5405 19 19.0145 18.9703" stroke-width="2" stroke-linecap="round" stroke-linejoin="round" stroke="#000000" /><path d="M6 10H6.0001" stroke-width="2" stroke-linecap="round" stroke="#000000" /><path d="M6 14H6.0001" stroke-width="2" stroke-linecap="round" stroke="#000000" /><path d="M18 10H18.0001" stroke-width="2" stroke-linecap="round" stroke="#000000" /><path d="M18 14H18.0001" stroke-width="2" stroke-linecap="round" stroke="#000000" /><path d="M14 10H14.0001" stroke-width="2" stroke-linecap="round" stroke="#000000" /><path d="M10 14H14" stroke-width="2" stroke-linecap="round" stroke="#000000" /><path d="M3 3L21 21" stroke-width="2" stroke-linecap="round" stroke="#000000" /></svg>