<svg xmlns="http://www.w3.org/2000/svg" width="24" height="24" viewBox="0 0 24 24" fill="none"><path d="M5 7.2C5 6.07989 5 5.51984 5.21799 5.09202C5.40973 4.71569 5.71569 4.40973 6.09202 4.21799C6.51984 4 7.07989 4 8.2 4H15.8C16.9201 4 17.4802 4 17.908 4.21799C18.2843 4.40973 18.5903 4.71569 18.782 5.09202C19 5.51984 19 6.0799 19 7.2V16H5V7.2Z" stroke-width="2" stroke="#000000" /><path d="M3 16.8C3 16.52 3 16.38 3.0545 16.273C3.10243 16.1789 3.17892 16.1024 3.273 16.0545C3.37996 16 3.51997 16 3.8 16H20.2C20.48 16 20.62 16 20.727 16.0545C20.8211 16.1024 20.8976 16.1789 20.9455 16.273C21 16.38 21 16.52 21 16.8C21 17.9201 21 18.4802 20.782 18.908C20.5903 19.2843 20.2843 19.5903 19.908 19.782C19.4802 20 18.9201 20 17.8 20H6.2C5.07989 20 4.51984 20 4.09202 19.782C3.71569 19.5903 3.40973 19.2843 3.21799 18.908C3 18.4802 3 17.9201 3 16.8Z" stroke-width="2" stroke="#000000" /></svg>