<svg xmlns="http://www.w3.org/2000/svg" width="24" height="24" viewBox="0 0 24 24" fill="none"><path d="M18.1214 9.5H15.9234C14.9839 9.5 14.3262 8.57175 14.6377 7.68542L14.7606 7.33572C15.4191 5.46173 14.2883 3.43419 12.3479 3.00969C12.1479 2.96596 11.9461 3.07512 11.8733 3.26638L9.99052 8.21162C9.69519 8.98733 8.95143 9.5 8.1214 9.5H7V17.313C7 18.6791 7.9209 19.8839 9.25456 20.1798C12.2226 20.8383 14.5341 21.0648 17.5106 21.0005C18.9537 20.9693 20.129 19.8557 20.3092 18.4236L21.0188 12.7848C21.2382 11.0411 19.8789 9.5 18.1214 9.5Z" stroke-width="2" stroke-linejoin="round" stroke="#000000" /><rect x="3" y="8" width="4" height="13" rx="1" stroke-width="2" stroke-linejoin="round" stroke="#000000" /></svg>