<svg xmlns="http://www.w3.org/2000/svg" width="24" height="24" viewBox="0 0 24 24" fill="none"><path d="M13 12C13 12.5523 12.5523 13 12 13C11.4477 13 11 12.5523 11 12C11 11.4477 11.4477 11 12 11C12.5523 11 13 11.4477 13 12Z" stroke-width="2" stroke="#000000" /><path d="M8.99951 8C7.78534 8.91223 7 10.3644 7 12C7 13.6356 7.78534 15.0878 8.99951 16M15.0005 8C16.2147 8.91223 17 10.3644 17 12C17 13.6356 16.2147 15.0878 15.0005 16" stroke-width="2" stroke-linecap="round" stroke="#000000" /><path d="M6.59912 4.79999C4.41362 6.442 3 9.05591 3 12C3 14.9441 4.41362 17.558 6.59912 19.2M17.4009 4.79999C19.5864 6.442 21 9.05591 21 12C21 14.9441 19.5864 17.558 17.4009 19.2" stroke-width="2" stroke-linecap="round" stroke="#000000" /></svg>