<svg xmlns="http://www.w3.org/2000/svg" width="24" height="24" viewBox="0 0 24 24" fill="none"><path d="M6.09377 6.3336C5.40127 7.45048 5 8.77695 5 10.1998C5 13.1864 8.94884 17.7792 10.9147 19.8806C11.2656 20.2556 11.441 20.4431 11.6783 20.5237C11.875 20.5905 12.125 20.5905 12.3216 20.5237C12.559 20.4431 12.7343 20.2557 13.085 19.8809C13.895 19.015 15.0419 17.726 16.1104 16.3006M8.75457 3.81877C9.72466 3.2957 10.8287 2.99982 12 2.99982C15.866 2.99982 19 6.22337 19 10.1998C19 11.08 18.657 12.0997 18.1229 13.1541" stroke-width="2" stroke-linecap="round" stroke-linejoin="round" stroke="#000000" /><path d="M12 11.9998C10.8954 11.9998 10 11.1044 10 9.99983M12.5541 8.07758C13.2312 8.27239 13.7609 8.81525 13.937 9.50002" stroke-width="2" stroke-linecap="round" stroke="#000000" /><path d="M3 3L21 21" stroke-width="2" stroke-linecap="round" stroke="#000000" /></svg>