<svg xmlns="http://www.w3.org/2000/svg" width="24" height="24" viewBox="0 0 24 24" fill="none"><circle cx="10" cy="10.0001" r="2" stroke-width="2" stroke="#000000" /><path d="M17 10.2C17 13.1866 13.0512 17.7794 11.0853 19.8808C10.7344 20.2558 10.559 20.4433 10.3217 20.5239C10.125 20.5907 9.875 20.5907 9.67834 20.5239C9.44099 20.4433 9.26557 20.2558 8.91474 19.8808C6.94884 17.7794 3 13.1866 3 10.2C3 6.22355 6.13401 3 10 3C13.866 3 17 6.22355 17 10.2Z" stroke-width="2" stroke-linejoin="round" stroke="#000000" /><path d="M15 20.8401C15 20.8401 21 13.8772 21 9.81962C21 7.3544 20.0084 5.17276 18.487 3.84009" stroke-width="2" stroke-linecap="round" stroke-linejoin="round" stroke="#000000" /></svg>