<svg xmlns="http://www.w3.org/2000/svg" width="24" height="24" viewBox="0 0 24 24" fill="none"><path d="M16.2 9.93506H7.8C6.11984 9.93506 5.27976 9.93506 4.63803 10.262C4.07354 10.5497 3.6146 11.0086 3.32698 11.5731C3 12.2148 3 13.0549 3 14.7351V17.1351C3 18.8152 3 19.6553 3.32698 20.297C3.6146 20.8615 4.07354 21.3205 4.63803 21.6081C5.27976 21.9351 6.11984 21.9351 7.8 21.9351H16.2C17.8802 21.9351 18.7202 21.9351 19.362 21.6081C19.9265 21.3205 20.3854 20.8615 20.673 20.297C21 19.6553 21 18.8152 21 17.1351V14.7351C21 13.0549 21 12.2148 20.673 11.5731C20.3854 11.0086 19.9265 10.5497 19.362 10.262C18.7202 9.93506 17.8802 9.93506 16.2 9.93506Z" stroke-width="2" stroke-linecap="round" stroke-linejoin="round" stroke="#000000" /><path d="M16.4224 9.88018L16.8448 8.69197C17.7856 6.0452 16.4027 3.13687 13.7559 2.19603C11.1734 1.27805 8.32794 2.57145 7.3215 5.12078L7 5.93516" stroke-width="2" stroke-linecap="round" stroke-linejoin="round" stroke="#000000" /><path d="M12 14.9351V16.9351" stroke-width="2" stroke-linecap="round" stroke-linejoin="round" stroke="#000000" /></svg>