<svg xmlns="http://www.w3.org/2000/svg" width="24" height="24" viewBox="0 0 24 24" fill="none"><path d="M13.5 21C11.0463 21 8.86776 19.8217 7.49945 18H10.5C14.6421 18 18 14.6422 18 10.5C18 9.20039 17.6694 7.97796 17.0878 6.91223C19.4187 8.18436 21 10.6575 21 13.5V21H13.5Z" stroke-width="2" stroke-linecap="round" stroke-linejoin="round" stroke="#000000" /><path d="M3 10.5C3 12.4209 3 18 3 18C3 18 8.27875 18 10.5 18C14.6421 18 18 14.6421 18 10.5C18 6.35786 14.6421 3 10.5 3C6.35786 3 3 6.35786 3 10.5Z" stroke-width="2" stroke-linecap="round" stroke-linejoin="round" stroke="#000000" /><path d="M8 13L10 13" stroke-width="2" stroke-linecap="round" stroke="#000000" /><path d="M8 9H12" stroke-width="2" stroke-linecap="round" stroke="#000000" /></svg>