<svg xmlns="http://www.w3.org/2000/svg" width="24" height="24" viewBox="0 0 24 24" fill="none"><path d="M2.99753 13.9977C2.99753 12.9584 2.94594 11.2336 3.13667 10.43M4.62603 6.82432C5.05638 6.18385 5.827 5.33316 6.83782 4.63261M10.4275 3.14152C11.4972 2.97631 12.4627 2.90675 13.5586 3.14157M17.1762 4.63258C18.0469 5.18306 19.0477 6.344 19.368 6.8344M20.859 10.4425C21.0197 11.0274 21.0531 12.4061 20.859 13.5573M19.366 17.173C18.9044 17.8457 18.0603 18.7557 17.1635 19.3756M9.98872 20.9979C11.0306 20.9979 12.6133 21.0769 13.5629 20.8659M3 19V21H5" stroke-width="2" stroke-linecap="round" stroke-linejoin="round" stroke="#000000" /></svg>