<svg xmlns="http://www.w3.org/2000/svg" width="24" height="24" viewBox="0 0 24 24" fill="none"><path d="M21 9V7.8C21 6.11984 21 5.27976 20.673 4.63803C20.3854 4.07354 19.9265 3.6146 19.362 3.32698C18.7202 3 17.8802 3 16.2 3H7.8C6.11984 3 5.27976 3 4.63803 3.32698C4.07354 3.6146 3.6146 4.07354 3.32698 4.63803C3 5.27976 3 6.11984 3 7.8V12.2C3 13.8802 3 14.7202 3.32698 15.362C3.6146 15.9265 4.07354 16.3854 4.63803 16.673C5.27976 17 6.11984 17 7.8 17H8" stroke-width="2" stroke-linecap="round" stroke="#000000" /><path d="M7 4C7 5.65685 5.65685 7 4 7C3.64936 7 3.31278 6.93985 3 6.82929C3 6.05847 3 5.67305 3.07043 5.35378C3.32206 4.21301 4.21301 3.32206 5.35378 3.07043C5.67305 3 6.05847 3 6.82929 3C6.93985 3.31278 7 3.64936 7 4Z" stroke-width="2" stroke="#000000" /><path d="M7 16C7 14.3431 5.65685 13 4 13C3.64936 13 3.31278 13.0602 3 13.1707C3 13.9415 3 14.3269 3.07043 14.6462C3.32206 15.787 4.21301 16.6779 5.35378 16.9296C5.67305 17 6.05847 17 6.82929 17C6.93985 16.6872 7 16.3506 7 16Z" stroke-width="2" stroke="#000000" /><path d="M17 4C17 5.65685 18.3431 7 20 7C20.3506 7 20.6872 6.93985 21 6.82929C21 6.05847 21 5.67305 20.9296 5.35378C20.6779 4.21301 19.787 3.32206 18.6462 3.07043C18.3269 3 17.9415 3 17.1707 3C17.0602 3.31278 17 3.64936 17 4Z" stroke-width="2" stroke="#000000" /><path d="M9.40135 11.5C9.14609 11.0587 9 10.5464 9 10C9 8.34315 10.3431 7 12 7C13.3062 7 14.4175 7.83481 14.8293 9" stroke-width="2" stroke-linecap="round" stroke="#000000" /><path d="M21 15.4C21 16.7255 18.9853 17.8 16.5 17.8C14.0147 17.8 12 16.7255 12 15.4M21 15.4C21 14.0745 18.9853 13 16.5 13C14.0147 13 12 14.0745 12 15.4M21 15.4V19C21 20.1046 18.9853 21 16.5 21C14.0147 21 12 20.1046 12 19V15.4" stroke-width="2" stroke-linecap="round" stroke="#000000" /></svg>