<svg xmlns="http://www.w3.org/2000/svg" width="24" height="24" viewBox="0 0 24 24" fill="none"><path d="M2 13H22M2 21H22" stroke-width="2" stroke-linecap="round" stroke="#000000" /><path d="M11.47 5.33125L4.47 9.70625C4.17762 9.88899 4 10.2095 4 10.5542V13H20V10.5542C20 10.2095 19.8224 9.88899 19.53 9.70625L12.53 5.33125C12.2057 5.12858 11.7943 5.12858 11.47 5.33125Z" stroke-width="2" stroke-linecap="round" stroke="#000000" /><path d="M12 5L12 3" stroke-width="2" stroke-linecap="round" stroke="#000000" /><path d="M4.19141 10L19.8008 10" stroke-width="2" stroke-linecap="round" stroke="#000000" /><path d="M20 13L20 21" stroke-width="2" stroke-linecap="round" stroke="#000000" /><path d="M16 13L16 21" stroke-width="2" stroke-linecap="round" stroke="#000000" /><path d="M12 13L12 21" stroke-width="2" stroke-linecap="round" stroke="#000000" /><path d="M8 13L8 21" stroke-width="2" stroke-linecap="round" stroke="#000000" /><path d="M4 13L4 21" stroke-width="2" stroke-linecap="round" stroke="#000000" /></svg>