<svg xmlns="http://www.w3.org/2000/svg" width="24" height="24" viewBox="0 0 24 24" fill="none"><path d="M3 8.8C3 7.11984 3 6.27976 3.32698 5.63803C3.6146 5.07354 4.07354 4.6146 4.63803 4.32698C5.27976 4 6.11984 4 7.8 4H15.2506C15.5261 4 15.6638 4 15.7914 4.03434C15.9045 4.06476 16.0114 4.11481 16.1071 4.18221C16.2152 4.25828 16.3034 4.36409 16.4798 4.5757L20.6292 9.55499C20.7665 9.7198 20.8352 9.80221 20.8841 9.89468C20.9274 9.9767 20.9592 10.0644 20.9784 10.1551C21 10.2575 21 10.3647 21 10.5793V15.2C21 16.8802 21 17.7202 20.673 18.362C20.3854 18.9265 19.9265 19.3854 19.362 19.673C18.7202 20 17.8802 20 16.2 20H7.8C6.11984 20 5.27976 20 4.63803 19.673C4.07354 19.3854 3.6146 18.9265 3.32698 18.362C3 17.7202 3 16.8802 3 15.2V8.8Z" stroke-width="2" stroke="#000000" /><path d="M16 4V9C16 9.55228 16.4477 10 17 10H21" stroke-width="2" stroke="#000000" /><path d="M7 12L12 12" stroke-width="2" stroke-linecap="round" stroke="#000000" /><path d="M7 8L10 8" stroke-width="2" stroke-linecap="round" stroke="#000000" /><path d="M7 16L15 16" stroke-width="2" stroke-linecap="round" stroke="#000000" /></svg>