<svg xmlns="http://www.w3.org/2000/svg" width="24" height="24" viewBox="0 0 24 24" fill="none"><path d="M4 8H20V16.2C20 17.8802 20 18.7202 19.673 19.362C19.3854 19.9265 18.9265 20.3854 18.362 20.673C17.7202 21 16.8802 21 15.2 21H8.8C7.11984 21 6.27976 21 5.63803 20.673C5.07354 20.3854 4.6146 19.9265 4.32698 19.362C4 18.7202 4 17.8802 4 16.2V8Z" stroke-width="2" stroke="#000000" /><path d="M3 5C3 3.89543 3.89543 3 5 3H19C20.1046 3 21 3.89543 21 5V7C21 7.55228 20.5523 8 20 8H4C3.44772 8 3 7.55228 3 7V5Z" stroke-width="2" stroke="#000000" /><path d="M9 15V8H15V15L12 13L9 15Z" stroke-width="2" stroke-linecap="round" stroke-linejoin="round" stroke="#000000" /><path d="M17 3V8" stroke-width="2" stroke-linecap="round" stroke-linejoin="round" stroke="#000000" /><path d="M7 3V8" stroke-width="2" stroke-linecap="round" stroke-linejoin="round" stroke="#000000" /></svg>