<svg xmlns="http://www.w3.org/2000/svg" width="24" height="24" viewBox="0 0 24 24" fill="none"><path d="M6.72727 7C6.05145 7 5.71354 7 5.43225 7.05421C4.22802 7.28631 3.28631 8.22802 3.05421 9.43225C3 9.71354 3 10.0514 3 10.7273V16.2C3 17.8802 3 18.7202 3.32698 19.362C3.6146 19.9265 4.07354 20.3854 4.63803 20.673C5.27976 21 6.11984 21 7.8 21H16.2C17.8802 21 18.7202 21 19.362 20.673C19.9265 20.3854 20.3854 19.9265 20.673 19.362C21 18.7202 21 17.8802 21 16.2V13" stroke-width="2" stroke-linecap="round" stroke="#000000" /><path d="M7 17L9 17" stroke-width="2" stroke-linecap="round" stroke="#000000" /><path d="M13 17L17 17" stroke-width="2" stroke-linecap="round" stroke="#000000" /><path d="M17.8941 9.03117L20.4922 7.53117C20.9705 7.25503 21.1343 6.64344 20.8582 6.16515L19.8582 4.4331C19.582 3.9548 18.9705 3.79093 18.4922 4.06707L10.499 8.68191C10.0583 8.93634 9.67023 9.27254 9.35554 9.67245L6.50178 13.2991L11.0694 12.641C11.5731 12.5685 12.0583 12.4004 12.499 12.146L17.8941 9.03117ZM17.8941 9.03117L14.8941 3.83502C14.6179 3.35673 14.0064 3.19285 13.5281 3.46899L10.93 4.96899" stroke-width="2" stroke-linecap="round" stroke-linejoin="round" stroke="#000000" /></svg>