<svg xmlns="http://www.w3.org/2000/svg" width="24" height="24" viewBox="0 0 24 24" fill="none"><path d="M7 16V6C7 4.34315 8.34315 3 10 3H18C19.6569 3 21 4.34315 21 6V18C21 19.6569 19.6569 21 18 21H10" stroke-width="2" stroke-linecap="round" stroke="#000000" /><path d="M11 7L17 7" stroke-width="2" stroke-linecap="round" stroke="#000000" /><path d="M11 11H14" stroke-width="2" stroke-linecap="round" stroke="#000000" /><path d="M14.5 18.5C14.5 19.8807 15.6193 21 17 21H5.5C4.11929 21 3 19.8807 3 18.5C3 17.1193 4.11929 16 5.5 16H17C15.6193 16 14.5 17.1193 14.5 18.5Z" stroke-width="2" stroke-linecap="round" stroke-linejoin="round" stroke="#000000" /></svg>