<svg xmlns="http://www.w3.org/2000/svg" width="24" height="24" viewBox="0 0 24 24" fill="none"><path d="M20 17.4V6.6C20 6.03995 20 5.75992 19.891 5.54601C19.7951 5.35785 19.6422 5.20487 19.454 5.10899C19.2401 5 18.9601 5 18.4 5H16.6C16.0399 5 15.7599 5 15.546 5.10899C15.3578 5.20487 15.2049 5.35785 15.109 5.54601C15 5.75992 15 6.03995 15 6.6V17.4C15 17.9601 15 18.2401 15.109 18.454C15.2049 18.6422 15.3578 18.7951 15.546 18.891C15.7599 19 16.0399 19 16.6 19H18.4C18.9601 19 19.2401 19 19.454 18.891C19.6422 18.7951 19.7951 18.6422 19.891 18.454C20 18.2401 20 17.9601 20 17.4Z" stroke-width="2" stroke-linecap="round" stroke="#000000" /><path d="M9 17.4V6.6C9 6.03995 9 5.75992 8.89101 5.54601C8.79513 5.35785 8.64215 5.20487 8.45399 5.10899C8.24008 5 7.96005 5 7.4 5H5.6C5.03995 5 4.75992 5 4.54601 5.10899C4.35785 5.20487 4.20487 5.35785 4.10899 5.54601C4 5.75992 4 6.03995 4 6.6V17.4C4 17.9601 4 18.2401 4.10899 18.454C4.20487 18.6422 4.35785 18.7951 4.54601 18.891C4.75992 19 5.03995 19 5.6 19H7.4C7.96005 19 8.24008 19 8.45399 18.891C8.64215 18.7951 8.79513 18.6422 8.89101 18.454C9 18.2401 9 17.9601 9 17.4Z" stroke-width="2" stroke-linecap="round" stroke="#000000" /></svg>