<svg xmlns="http://www.w3.org/2000/svg" width="24" height="24" viewBox="0 0 24 24" fill="none"><path d="M19 3L21.0591 12.8838C21.3405 14.2342 21.0514 15.6408 20.2604 16.7709L18.3615 19.4835C18.1262 19.8197 18 20.2201 18 20.6304V21" stroke-width="2" stroke-linecap="round" stroke-linejoin="round" stroke="#000000" /><path d="M17.5 15V10C15.567 10 14 11.567 14 13.5V15.7686C14 15.9068 13.9116 16.0295 13.7805 16.0732C12.12 16.6267 11 18.1806 11 19.9309V21" stroke-width="2" stroke-linecap="round" stroke-linejoin="round" stroke="#000000" /><path d="M6 21C6 21 6 21 6 21ZM6 21C4.34315 21 3 19.6569 3 18M16 6.78947C16 6.05573 16 5.68886 15.9362 5.38435C15.6918 4.21885 14.7812 3.30823 13.6156 3.06385C13.3111 3 12.9443 3 12.2105 3L7.8 3C6.11984 3 5.27976 3 4.63803 3.32698C4.07354 3.6146 3.6146 4.07354 3.32698 4.63803C3 5.27976 3 6.11984 3 7.8L3 18M3 18C3 18 3 18 3 18Z" stroke-width="2" stroke-linecap="round" stroke="#000000" /><path d="M9.5 14.5C8.11929 14.5 7 13.3807 7 12C7 10.6193 8.11929 9.5 9.5 9.5C10.0628 9.5 10.5822 9.68597 11 9.99982" stroke-width="2" stroke-linecap="round" stroke="#000000" /><path d="M15 7C13.3431 7 12 5.65685 12 4C12 3.64936 12.0602 3.31278 12.1707 3C12.9415 3 13.3269 3 13.6462 3.07043C14.787 3.32206 15.6779 4.21301 15.9296 5.35378C16 5.67305 16 6.05847 16 6.82929C15.6872 6.93985 15.3506 7 15 7Z" stroke-width="2" stroke="#000000" /><path d="M4 7C5.65685 7 7 5.65685 7 4C7 3.64936 6.93985 3.31278 6.82929 3C6.05847 3 5.67305 3 5.35378 3.07043C4.21301 3.32206 3.32206 4.21301 3.07043 5.35378C3 5.67305 3 6.05847 3 6.82929C3.31278 6.93985 3.64936 7 4 7Z" stroke-width="2" stroke="#000000" /><path d="M4 17C5.65685 17 7 18.3431 7 20C7 20.3506 6.93985 20.6872 6.82929 21C6.05847 21 5.67305 21 5.35378 20.9296C4.21301 20.6779 3.32206 19.787 3.07043 18.6462C3 18.3269 3 17.9415 3 17.1707C3.31278 17.0602 3.64936 17 4 17Z" stroke-width="2" stroke="#000000" /></svg>