<svg xmlns="http://www.w3.org/2000/svg" width="24" height="24" viewBox="0 0 24 24" fill="none"><path d="M9.64675 4.00882C10.5051 3.52598 10.9343 3.28455 11.3894 3.18995C11.7922 3.10623 12.2078 3.10623 12.6106 3.18995C13.0657 3.28455 13.4949 3.52598 14.3533 4.00882L18.3578 6.26138C19.4225 6.8603 19.9549 7.15976 20.3111 7.59204C20.6258 7.97385 20.8411 8.42754 20.9379 8.91271C21.0475 9.46203 20.9429 10.0638 20.7336 11.2674L19.6779 17.3373C19.432 18.7513 19.3091 19.4582 18.9527 19.9884C18.6386 20.4557 18.1993 20.8253 17.685 21.0547C17.1016 21.3149 16.3841 21.3149 14.9489 21.3149H12H9.05111C7.61594 21.3149 6.89836 21.3149 6.315 21.0547C5.80072 20.8253 5.3614 20.4557 5.04727 19.9884C4.69094 19.4582 4.56799 18.7513 4.32209 17.3373L3.26645 11.2674C3.05713 10.0638 2.95247 9.46203 3.0621 8.91271C3.15893 8.42754 3.37425 7.97385 3.68887 7.59204C4.04509 7.15976 4.57746 6.8603 5.64221 6.26138L9.64675 4.00882Z" stroke-width="2" stroke-linejoin="round" stroke="#000000" /></svg>