<svg xmlns="http://www.w3.org/2000/svg" width="24" height="24" viewBox="0 0 24 24" fill="none"><path d="M9 3.99992L5.53529 3.0375C4.2609 2.6835 3 3.64189 3 4.96454L3 11.9999M9 3.99992L9 20M9 20L15 18.3333L19.5353 17.0735C20.4009 16.8331 21 16.0449 21 15.1465V11.9999L21 8.85342C21 7.95501 20.4009 7.16684 19.5353 6.92639L15 5.66658L9 3.99992M9 20L5.53529 20.9624C4.2609 21.3164 3 20.358 3 19.0354V11.9999M15 18.3333L15 5.66658M21 11.9999H3" stroke-width="2" stroke-linejoin="round" stroke="#000000" /></svg>