<svg xmlns="http://www.w3.org/2000/svg" width="24" height="24" viewBox="0 0 24 24" fill="none"><path d="M15.3988 15.8484C15.2665 16.9829 14.7552 18.0395 13.9475 18.8472L13.3543 19.4404C13.1919 19.6029 13.1106 19.6841 13.0298 19.7384C12.6926 19.9647 12.2522 19.9647 11.915 19.7384C11.8342 19.6841 11.7529 19.6029 11.5905 19.4404L4.55962 12.4095C4.39714 12.2471 4.31591 12.1658 4.26162 12.085C4.03531 11.7478 4.03531 11.3073 4.26162 10.9702C4.31591 10.8894 4.39714 10.8081 4.55962 10.6457L5.15912 10.0461C5.96267 9.2426 7.01396 8.73384 8.14271 8.60226C8.28593 8.58557 8.42768 8.56284 8.56763 8.53429M17.3593 12.4041C17.5238 12.2786 17.697 12.1624 17.878 12.0566L19.8595 10.8992C20.4691 10.5431 20.7739 10.365 20.9072 10.1174C21.024 9.90046 21.0566 9.648 20.9987 9.40847C20.9327 9.13514 20.683 8.88552 20.1838 8.38628L15.5873 3.78977C15.0868 3.2893 14.8366 3.03906 14.5633 2.973C14.3214 2.91455 14.0665 2.94835 13.8482 3.06779C13.6015 3.2028 13.4252 3.50959 13.0724 4.12318L11.9327 6.10547C11.8236 6.29524 11.7031 6.47639 11.5722 6.6482" stroke-width="2" stroke-linecap="round" stroke-linejoin="round" stroke="#000000" /><path d="M8.05856 15.9414L2.99995 21" stroke-width="2" stroke-linecap="round" stroke="#000000" /><path d="M4 4L20 20" stroke-width="2" stroke-linecap="round" stroke="#000000" /></svg>