<svg xmlns="http://www.w3.org/2000/svg" width="24" height="24" viewBox="0 0 24 24" fill="none"><path d="M13.0724 4.12317C13.4252 3.50958 13.6015 3.20278 13.8482 3.06778C14.0665 2.94833 14.3214 2.91453 14.5632 2.97298C14.8366 3.03905 15.0868 3.28928 15.5873 3.78975L20.1838 8.38626C20.683 8.8855 20.9327 9.13512 20.9987 9.40846C21.0566 9.64798 21.024 9.90044 20.9072 10.1174C20.7739 10.365 20.4691 10.5431 19.8594 10.8992L17.878 12.0566C16.5016 12.8607 15.5833 14.2651 15.3988 15.8484C15.2665 16.9829 14.7552 18.0395 13.9475 18.8472L13.3543 19.4404C13.1919 19.6028 13.1106 19.6841 13.0298 19.7384C12.6926 19.9647 12.2521 19.9647 11.915 19.7384C11.8342 19.6841 11.7529 19.6028 11.5904 19.4404L4.55961 12.4095C4.39714 12.247 4.3159 12.1658 4.26161 12.0849C4.0353 11.7478 4.0353 11.3073 4.26161 10.9702C4.3159 10.8893 4.39714 10.8081 4.55961 10.6456L5.15911 10.0461C5.96267 9.24258 7.01395 8.73382 8.1427 8.60225C9.73017 8.41721 11.1361 7.491 11.9327 6.10546L13.0724 4.12317Z" stroke-width="2" stroke-linejoin="round" stroke="#000000" /><path d="M8.05856 15.9414L2.99995 21" stroke-width="2" stroke-linecap="round" stroke="#000000" /></svg>