<svg xmlns="http://www.w3.org/2000/svg" width="24" height="24" viewBox="0 0 24 24" fill="none"><path d="M8.24888 16.6787C7.96471 17.8239 7.89138 19.0242 8.01055 20.2793L8.24888 21.3736L8.82638 20.5634C9.52305 19.5464 10.0272 18.4012 10.3114 17.2009L10.8797 14.9105C11.5489 15.7808 12.5847 16.2848 13.6847 16.2664C16.5264 16.2664 19.1664 13.4171 19.1664 9.71567C19.1664 6.01426 16.453 3 12.1447 3C8.03805 3 5.10471 5.90432 5.10471 9.56908C5.10471 11.6855 6.14971 13.2338 7.24971 13.2338C7.59805 13.2338 7.83638 13.1697 8.05638 12.7941C7.38721 12.0794 7.03888 11.035 7.03888 9.91723C7.03888 7.12285 8.99138 5.1164 12.0714 5.1164C14.8305 5.1164 16.7005 6.94878 16.7005 9.80729C16.7005 12.3726 15.3439 14.3516 13.428 14.3516C11.008 14.3516 11.5672 12.1069 11.6589 11.7954C11.6589 11.7954 12.3464 9.44081 12.3464 9.04685C12.3464 7.96575 11.7505 7.39771 10.9439 7.39771C9.77055 7.39771 9.02805 8.49714 9.02805 10.0363C9.03721 10.6777 9.14721 11.319 9.34888 11.9328L8.24888 16.6787Z" fill="#000000" /></svg>