<svg xmlns="http://www.w3.org/2000/svg" width="24" height="24" viewBox="0 0 24 24" fill="none"><path d="M16.4383 10.7506L10.5995 6.07961C9.76734 5.41387 9.35125 5.081 9.00108 5.08063C8.69654 5.0803 8.40845 5.21876 8.21846 5.45677C8 5.73045 8 6.2633 8 7.329V16.671C8 17.7367 8 18.2696 8.21846 18.5432C8.40845 18.7812 8.69654 18.9197 9.00108 18.9194C9.35125 18.919 9.76734 18.5861 10.5995 17.9204L10.5995 17.9204L16.4383 13.2494C16.9721 12.8223 17.239 12.6088 17.3357 12.3508C17.4204 12.1246 17.4204 11.8754 17.3357 11.6492C17.239 11.3912 16.9721 11.1777 16.4383 10.7506Z" stroke-width="2" stroke-linecap="round" stroke="#000000" /></svg>