<svg xmlns="http://www.w3.org/2000/svg" width="24" height="24" viewBox="0 0 24 24" fill="none"><path d="M13.1961 20.0194L13.6078 17.9612C13.8107 16.9466 13.0347 16 12 16C10.9653 16 10.1893 16.9466 10.3922 17.9612L10.8039 20.0194C10.8373 20.1866 10.8541 20.2703 10.8799 20.3413C11.0048 20.6853 11.3076 20.9336 11.6694 20.9886C11.7442 21 11.8295 21 12 21C12.1705 21 12.2558 21 12.3306 20.9886C12.6924 20.9336 12.9952 20.6853 13.1201 20.3413C13.1459 20.2703 13.1627 20.1866 13.1961 20.0194Z" stroke-width="2" stroke-linecap="round" stroke="#000000" /><path d="M13 12C13 12.5523 12.5523 13 12 13C11.4477 13 11 12.5523 11 12C11 11.4477 11.4477 11 12 11C12.5523 11 13 11.4477 13 12Z" stroke-width="2" stroke="#000000" /><path d="M7.41604 14C7.14845 13.3875 7 12.7111 7 12C7 9.23858 9.23858 7 12 7C14.7614 7 17 9.23858 17 12C17 12.7111 16.8516 13.3875 16.584 14" stroke-width="2" stroke-linecap="round" stroke="#000000" /><path d="M18.7083 18C20.1334 16.4077 21 14.3051 21 12C21 7.02944 16.9706 3 12 3C7.02944 3 3 7.02944 3 12C3 14.3051 3.86656 16.4077 5.29168 18" stroke-width="2" stroke-linecap="round" stroke="#000000" /></svg>