<svg xmlns="http://www.w3.org/2000/svg" width="24" height="24" viewBox="0 0 24 24" fill="none"><path d="M16.2 7H7.8C6.11984 7 5.27976 7 4.63803 7.32698C4.07354 7.6146 3.6146 8.07354 3.32698 8.63803C3 9.27976 3 10.1198 3 11.8V13.2C3 14.8802 3 15.7202 3.32698 16.362C3.6146 16.9265 4.07354 17.3854 4.63803 17.673C5.27976 18 6.11984 18 7.8 18H8V15H16V18H16.2C17.8802 18 18.7202 18 19.362 17.673C19.9265 17.3854 20.3854 16.9265 20.673 16.362C21 15.7202 21 14.8802 21 13.2V11.8C21 10.1198 21 9.27976 20.673 8.63803C20.3854 8.07354 19.9265 7.6146 19.362 7.32698C18.7202 7 17.8802 7 16.2 7Z" stroke-width="2" stroke="#000000" /><path d="M7 15L17 15" stroke-width="2" stroke-linecap="round" stroke-linejoin="round" stroke="#000000" /><path d="M8 15H16V17.8C16 18.9201 16 19.4802 15.782 19.908C15.5903 20.2843 15.2843 20.5903 14.908 20.782C14.4802 21 13.9201 21 12.8 21H11.2C10.0799 21 9.51984 21 9.09202 20.782C8.71569 20.5903 8.40973 20.2843 8.21799 19.908C8 19.4802 8 18.9201 8 17.8V15Z" stroke-width="2" stroke="#000000" /><path d="M7 11H8" stroke-width="2" stroke-linecap="round" stroke="#000000" /><path d="M14.8 3H9.2C8.0799 3 7.51984 3 7.09202 3.21799C6.71569 3.40973 6.40973 3.71569 6.21799 4.09202C6 4.51984 6 5.0799 6 6.2V7H18V6.2C18 5.0799 18 4.51984 17.782 4.09202C17.5903 3.71569 17.2843 3.40973 16.908 3.21799C16.4802 3 15.9201 3 14.8 3Z" stroke-width="2" stroke="#000000" /></svg>