<svg xmlns="http://www.w3.org/2000/svg" width="24" height="24" viewBox="0 0 24 24" fill="none"><path d="M3 9.8C3 8.11984 3 7.27976 3.32698 6.63803C3.6146 6.07354 4.07354 5.6146 4.63803 5.32698C5.27976 5 6.11984 5 7.8 5H16.2C17.8802 5 18.7202 5 19.362 5.32698C19.9265 5.6146 20.3854 6.07354 20.673 6.63803C21 7.27976 21 8.11984 21 9.8V10.2C21 11.8802 21 12.7202 20.673 13.362C20.3854 13.9265 19.9265 14.3854 19.362 14.673C18.7202 15 17.8802 15 16.2 15H7.8C6.11984 15 5.27976 15 4.63803 14.673C4.07354 14.3854 3.6146 13.9265 3.32698 13.362C3 12.7202 3 11.8802 3 10.2V9.8Z" stroke-width="2" stroke="#000000" /><circle cx="16" cy="10" r="1" stroke-width="2" stroke="#000000" /><path d="M12 15L6 20" stroke-width="2" stroke-linecap="round" stroke="#000000" /><path d="M12 15V20" stroke-width="2" stroke-linecap="round" stroke="#000000" /><path d="M12 15L18 20" stroke-width="2" stroke-linecap="round" stroke="#000000" /></svg>