<svg xmlns="http://www.w3.org/2000/svg" width="24" height="24" viewBox="0 0 24 24" fill="none"><path d="M5 1H4.2C3.07989 1 2.51984 1 2.09202 1.21799C1.71569 1.40973 1.40973 1.71569 1.21799 2.09202C1 2.51984 1 3.07989 1 4.2V5" stroke-width="2" stroke-linecap="round" stroke-linejoin="round" stroke="#000000" /><path d="M19 1H19.8C20.9201 1 21.4802 1 21.908 1.21799C22.2843 1.40973 22.5903 1.71569 22.782 2.09202C23 2.51984 23 3.07989 23 4.2V5" stroke-width="2" stroke-linecap="round" stroke-linejoin="round" stroke="#000000" /><path d="M23 19V19.8C23 20.9201 23 21.4802 22.782 21.908C22.5903 22.2843 22.2843 22.5903 21.908 22.782C21.4802 23 20.9201 23 19.8 23H19" stroke-width="2" stroke-linecap="round" stroke-linejoin="round" stroke="#000000" /><path d="M1 19V19.8C1 20.9201 1 21.4802 1.21799 21.908C1.40973 22.2843 1.71569 22.5903 2.09202 22.782C2.51984 23 3.07989 23 4.2 23H5" stroke-width="2" stroke-linecap="round" stroke-linejoin="round" stroke="#000000" /><rect x="5" y="5" width="5" height="5" rx="1" stroke-width="2" stroke-linecap="round" stroke-linejoin="round" stroke="#000000" /><rect x="5" y="14" width="5" height="5" rx="1" stroke-width="2" stroke-linecap="round" stroke-linejoin="round" stroke="#000000" /><rect x="14" y="5" width="5" height="5" rx="1" stroke-width="2" stroke-linecap="round" stroke-linejoin="round" stroke="#000000" /><path d="M14.0001 14H14" stroke-width="2" stroke-linecap="round" stroke-linejoin="round" stroke="#000000" /><path d="M14.0001 19H14" stroke-width="2" stroke-linecap="round" stroke-linejoin="round" stroke="#000000" /><path d="M17 17L16 16" stroke-width="2" stroke-linecap="round" stroke-linejoin="round" stroke="#000000" /><path d="M19.0001 14H19" stroke-width="2" stroke-linecap="round" stroke-linejoin="round" stroke="#000000" /><path d="M19.0001 19H19" stroke-width="2" stroke-linecap="round" stroke-linejoin="round" stroke="#000000" /></svg>