<svg xmlns="http://www.w3.org/2000/svg" width="24" height="24" viewBox="0 0 24 24" fill="none"><rect x="2" y="2" width="8" height="8" rx="2" stroke-width="2" stroke-linecap="round" stroke-linejoin="round" stroke="#000000" /><rect x="2" y="14" width="8" height="8" rx="2" stroke-width="2" stroke-linecap="round" stroke-linejoin="round" stroke="#000000" /><rect x="14" y="2" width="8" height="8" rx="2" stroke-width="2" stroke-linecap="round" stroke-linejoin="round" stroke="#000000" /><path d="M18.0001 18H18" stroke-width="2" stroke-linecap="round" stroke-linejoin="round" stroke="#000000" /><rect x="5" y="17" width="2" height="2" stroke-width="2" stroke-linecap="round" stroke-linejoin="round" stroke="#000000" /><rect x="5" y="5" width="2" height="2" stroke-width="2" stroke-linecap="round" stroke-linejoin="round" stroke="#000000" /><rect x="17" y="5" width="2" height="2" stroke-width="2" stroke-linecap="round" stroke-linejoin="round" stroke="#000000" /><path d="M14.3711 14.4805H14.6016M14 14H15V15H14V14Z" stroke-width="2" stroke-linecap="round" stroke-linejoin="round" stroke="#000000" /><path d="M14.3711 21.4805H14.6016M14 21H15V22H14V21Z" stroke-width="2" stroke-linecap="round" stroke-linejoin="round" stroke="#000000" /><path d="M21.3711 14.4805H21.6016M21 14H22V15H21V14Z" stroke-width="2" stroke-linecap="round" stroke-linejoin="round" stroke="#000000" /><path d="M21.3711 21.4805H21.6016M21 21H22V22H21V21Z" stroke-width="2" stroke-linecap="round" stroke-linejoin="round" stroke="#000000" /></svg>