<svg xmlns="http://www.w3.org/2000/svg" width="24" height="24" viewBox="0 0 24 24" fill="none"><path d="M6.99411 4.40589C7.51297 3.88703 7.7724 3.62761 8.07514 3.44208C8.34356 3.27759 8.6362 3.15638 8.9423 3.08289C9.28757 3 9.65445 3 10.3882 3H13.6118C14.3455 3 14.7124 3 15.0577 3.08289C15.3638 3.15638 15.6564 3.27759 15.9249 3.44208C16.2276 3.62761 16.487 3.88703 17.0059 4.40589L19.5941 6.99411C20.113 7.51297 20.3724 7.7724 20.5579 8.07515C20.7224 8.34356 20.8436 8.6362 20.9171 8.9423C21 9.28757 21 9.65445 21 10.3882V13.6118C21 14.3455 21 14.7124 20.9171 15.0577C20.8436 15.3638 20.7224 15.6564 20.5579 15.9249C20.3724 16.2276 20.113 16.487 19.5941 17.0059L17.0059 19.5941C16.487 20.113 16.2276 20.3724 15.9249 20.5579C15.6564 20.7224 15.3638 20.8436 15.0577 20.9171C14.7124 21 14.3455 21 13.6118 21H10.3882C9.65445 21 9.28757 21 8.9423 20.9171C8.6362 20.8436 8.34356 20.7224 8.07514 20.5579C7.7724 20.3724 7.51297 20.113 6.99411 19.5941L4.40589 17.0059C3.88703 16.487 3.6276 16.2276 3.44208 15.9249C3.27759 15.6564 3.15638 15.3638 3.08289 15.0577C3 14.7124 3 14.3455 3 13.6118V10.3882C3 9.65445 3 9.28757 3.08289 8.9423C3.15638 8.6362 3.27759 8.34356 3.44208 8.07514C3.6276 7.7724 3.88703 7.51297 4.40589 6.99411L6.99411 4.40589Z" stroke-width="2" stroke-linejoin="round" stroke="#000000" /><path d="M10 10C10 8.99157 10.9019 8 12 8C13.0981 8 14 8.99157 14 10C14 10.5284 13.7524 10.9345 13.3587 11.2014C12.7056 11.6441 12 12.211 12 13" stroke-width="2" stroke-linecap="round" stroke-linejoin="round" stroke="#000000" /><path d="M12 16H12.0001" stroke-width="2" stroke-linecap="round" stroke="#000000" /></svg>