<svg xmlns="http://www.w3.org/2000/svg" width="24" height="24" viewBox="0 0 24 24" fill="none"><path d="M17 3L21 3" stroke-width="2" stroke-linecap="round" stroke="#000000" /><path d="M17 9L21 9" stroke-width="2" stroke-linecap="round" stroke="#000000" /><path d="M3 15L21 15" stroke-width="2" stroke-linecap="round" stroke="#000000" /><path d="M3 21L21 21" stroke-width="2" stroke-linecap="round" stroke="#000000" /><path d="M5.66667 7H4.5V4L3.03519 6.92965C3.01205 6.97593 3 7.02697 3 7.07872V8.66677C3 8.85087 3.14924 9.00011 3.33334 9.00011L5.66667 9.00008C5.85076 9.00008 6 8.85084 6 8.66675V7.33333C6 7.14924 5.85076 7 5.66667 7Z" stroke-width="2" stroke-linecap="round" stroke-linejoin="round" stroke="#000000" /><path d="M12.6667 7H11.5V4L10.0352 6.92965C10.012 6.97593 10 7.02697 10 7.07872V8.66677C10 8.85087 10.1492 9.00011 10.3333 9.00011L12.6667 9.00008C12.8508 9.00008 13 8.85084 13 8.66675V7.33333C13 7.14924 12.8508 7 12.6667 7Z" stroke-width="2" stroke-linecap="round" stroke-linejoin="round" stroke="#000000" /></svg>