<svg xmlns="http://www.w3.org/2000/svg" width="24" height="24" viewBox="0 0 24 24" fill="none"><path d="M9 12H7V5L3.13176 11.7694C3.04542 11.9205 3 12.0915 3 12.2656V18C3 18.5523 3.44772 19 4 19H9C9.55228 19 10 18.5523 10 18V13C10 12.4477 9.55228 12 9 12Z" stroke-width="2" stroke-linecap="round" stroke-linejoin="round" stroke="#000000" /><path d="M20 12H18V5L14.1318 11.7694C14.0454 11.9205 14 12.0915 14 12.2656V18C14 18.5523 14.4477 19 15 19H20C20.5523 19 21 18.5523 21 18V13C21 12.4477 20.5523 12 20 12Z" stroke-width="2" stroke-linecap="round" stroke-linejoin="round" stroke="#000000" /></svg>