<svg xmlns="http://www.w3.org/2000/svg" width="24" height="24" viewBox="0 0 24 24" fill="none"><path d="M10.5 14.3355V9.6645C10.5 8.99369 11.2759 8.62076 11.7998 9.03981L14.7191 11.3753C15.1195 11.6956 15.1195 12.3044 14.7191 12.6247L11.7998 14.9602C11.2759 15.3792 10.5 15.0063 10.5 14.3355Z" stroke-width="2" stroke="#000000" /><path d="M3.63749 8.53129C4.1588 7.28427 4.95271 6.17957 5.94473 5.29168C7.537 3.86656 9.63967 3 11.9447 3C16.9153 3 20.9447 7.02944 20.9447 12C20.9447 16.9706 16.9153 21 11.9447 21C7.31321 21 3.4988 17.5015 2.99999 13.003M3.23406 6.10275L3.63749 8.53129L6.08972 7.97966" stroke-width="2" stroke-linecap="round" stroke-linejoin="round" stroke="#000000" /></svg>