<svg xmlns="http://www.w3.org/2000/svg" width="24" height="24" viewBox="0 0 24 24" fill="none"><path d="M14.8812 7.85755L12.4287 3.77012C12.2345 3.44645 11.7655 3.44645 11.5713 3.77012L9.11879 7.85755C9.04342 7.98317 8.91675 8.06942 8.77225 8.0935L3.95838 8.89581C3.55722 8.96267 3.39945 9.45499 3.68702 9.74256L7.31806 13.3736C7.43224 13.4878 7.48425 13.6501 7.4577 13.8094L6.66881 18.5427C6.60027 18.9539 7.03546 19.2635 7.40143 19.0639L11.7606 16.6861C11.9098 16.6047 12.0902 16.6047 12.2394 16.6861L16.5986 19.0639C16.9645 19.2635 17.3997 18.9539 17.3312 18.5427L16.5423 13.8094C16.5158 13.6501 16.5678 13.4878 16.6819 13.3736L20.313 9.74256C20.6005 9.45499 20.4428 8.96267 20.0416 8.89581L15.2278 8.0935C15.0832 8.06942 14.9566 7.98317 14.8812 7.85755Z" stroke-width="2" stroke="#000000" /><path d="M18.5 5.13883L17.5105 4.97391C17.3981 4.95518 17.2995 4.8881 17.2409 4.7904L16.75 3.97217" stroke-width="2" stroke-linecap="round" stroke="#000000" /><path d="M7.25002 3.97217L6.75908 4.7904C6.70045 4.8881 6.60193 4.95518 6.48954 4.97391L5.50002 5.13883" stroke-width="2" stroke-linecap="round" stroke="#000000" /><path d="M3.15828 13.8834L3.79532 14.5938C3.87139 14.6787 3.90643 14.7926 3.89118 14.9055L3.75693 15.8997" stroke-width="2" stroke-linecap="round" stroke="#000000" /><path d="M20.8417 13.8834L20.2047 14.5938C20.1286 14.6787 20.0936 14.7926 20.1088 14.9055L20.2431 15.8997" stroke-width="2" stroke-linecap="round" stroke="#000000" /><path d="M13.0682 21.0035L12.1974 20.6132C12.0935 20.5666 11.9743 20.568 11.8714 20.6169L10.9654 21.0477" stroke-width="2" stroke-linecap="round" stroke="#000000" /></svg>