<svg xmlns="http://www.w3.org/2000/svg" width="24" height="24" viewBox="0 0 24 24" fill="none"><path d="M14.1454 16.9755L18.1905 20.944L18.8301 17.7955L22.0446 17.169L18.0228 13.2194M9.94678 16.9663L5.88979 20.9352L5.24786 17.7984L2.04465 17.1658L6.03533 13.254" stroke-width="2" stroke-linecap="round" stroke-linejoin="round" stroke="#000000" /><path d="M11.2351 9.2162L11.999 7.66833L12.7629 9.2162M11.999 7.66833V11.6882M13.235 10.744L14.399 9.50177L12.7629 9.2162M12.7629 9.2162L10.5157 12.4683M14.399 9.50177L10.763 10.744M11.999 11.6882L13.4823 12.4683L13.235 10.744M13.235 10.744L9.59903 9.50177M13.4823 12.4683L11.2351 9.2162M10.763 10.744L10.5157 12.4683L11.999 11.6882M11.2351 9.2162L9.59903 9.50177L10.763 10.744" stroke-width="2" stroke-linecap="round" stroke-linejoin="round" stroke="#000000" /><path d="M10.626 3.45025C11.3967 2.72258 12.6013 2.72258 13.372 3.45025L14.2014 4.23324C14.5022 4.5173 14.8838 4.70105 15.2935 4.75917L16.4227 4.91936C17.4721 5.06824 18.2232 6.01002 18.1348 7.06629L18.0397 8.20287C18.0052 8.6152 18.0995 9.02808 18.3094 9.38461L18.8883 10.3674C19.4262 11.2807 19.1581 12.4551 18.2772 13.0445L17.3293 13.6788C16.9854 13.909 16.7214 14.2401 16.5736 14.6265L16.1661 15.6918C15.7874 16.6818 14.7021 17.2045 13.692 16.8833L12.6051 16.5376C12.2108 16.4122 11.7873 16.4122 11.393 16.5376L10.306 16.8833C9.29593 17.2045 8.21064 16.6818 7.83196 15.6918L7.4245 14.6265C7.27668 14.2401 7.01263 13.909 6.66875 13.6788L5.72085 13.0445C4.83992 12.4551 4.57187 11.2807 5.1098 10.3674L5.68862 9.38461C5.8986 9.02808 5.99284 8.6152 5.95834 8.20287L5.86325 7.06629C5.77487 6.01002 6.52591 5.06824 7.57537 4.91936L8.7046 4.75917C9.11427 4.70105 9.49584 4.5173 9.7967 4.23324L10.626 3.45025Z" stroke-width="2" stroke-linejoin="round" stroke-linecap="round" stroke="#000000" /></svg>