<svg xmlns="http://www.w3.org/2000/svg" width="24" height="24" viewBox="0 0 24 24" fill="none"><path d="M6 19C6 19.5523 5.55228 20 5 20C4.44772 20 4 19.5523 4 19C4 18.4477 4.44772 18 5 18C5.55228 18 6 18.4477 6 19Z" stroke-width="2" stroke="#000000" /><path d="M4 13.083C4.32521 13.0284 4.65929 13 5 13C8.31371 13 11 15.6863 11 19C11 19.3407 10.9716 19.6748 10.917 20" stroke-width="2" stroke-linecap="round" stroke="#000000" /><path d="M4 8.04484C4.32936 8.01516 4.66291 8 5 8C11.0751 8 16 12.9249 16 19C16 19.3371 15.9848 19.6706 15.9552 20" stroke-width="2" stroke-linecap="round" stroke="#000000" /><path d="M4 3.03074C4.33072 3.01035 4.66415 3 5 3C13.8366 3 21 10.1634 21 19C21 19.3359 20.9897 19.6693 20.9693 20" stroke-width="2" stroke-linecap="round" stroke="#000000" /></svg>