<svg xmlns="http://www.w3.org/2000/svg" width="24" height="24" viewBox="0 0 24 24" fill="none"><path d="M17 21H7" stroke-width="2" stroke-linecap="round" stroke-linejoin="round" stroke="#000000" /><path d="M12 21L12 7" stroke-width="2" stroke-linecap="round" stroke-linejoin="round" stroke="#000000" /><path d="M6 5C8 5.5 8.5 5.5 10 5" stroke-width="2" stroke-linecap="round" stroke-linejoin="round" stroke="#000000" /><path d="M18 5C16 5.5 15.5 5.5 14 5" stroke-width="2" stroke-linecap="round" stroke-linejoin="round" stroke="#000000" /><path d="M6 16C7.65685 16 9 14.6569 9 13L6 5L3 13C3 14.6569 4.34315 16 6 16Z" stroke-width="2" stroke-linecap="round" stroke-linejoin="round" stroke="#000000" /><path d="M18 16C19.6569 16 21 14.6569 21 13L18 5L15 13C15 14.6569 16.3431 16 18 16Z" stroke-width="2" stroke-linecap="round" stroke-linejoin="round" stroke="#000000" /><circle cx="12" cy="5" r="2" stroke-width="2" stroke-linecap="round" stroke-linejoin="round" stroke="#000000" /></svg>