<svg xmlns="http://www.w3.org/2000/svg" width="24" height="24" viewBox="0 0 24 24" fill="none"><path d="M6 3C5.06812 3 4.60218 3 4.23463 3.15224C3.74458 3.35523 3.35523 3.74458 3.15224 4.23463C3 4.60218 3 5.06812 3 6" stroke-width="2" stroke-linecap="round" stroke-linejoin="round" stroke="#000000" /><path d="M18 3C18.9319 3 19.3978 3 19.7654 3.15224C20.2554 3.35523 20.6448 3.74458 20.8478 4.23463C21 4.60218 21 5.06812 21 6" stroke-width="2" stroke-linecap="round" stroke-linejoin="round" stroke="#000000" /><path d="M21 18C21 18.9319 21 19.3978 20.8478 19.7654C20.6448 20.2554 20.2554 20.6448 19.7654 20.8478C19.3978 21 18.9319 21 18 21" stroke-width="2" stroke-linecap="round" stroke-linejoin="round" stroke="#000000" /><path d="M3 18C3 18.9319 3 19.3978 3.15224 19.7654C3.35523 20.2554 3.74458 20.6448 4.23463 20.8478C4.60218 21 5.06812 21 6 21" stroke-width="2" stroke-linecap="round" stroke-linejoin="round" stroke="#000000" /><path d="M3 12L21 12" stroke-width="2" stroke-linecap="round" stroke-linejoin="round" stroke="#000000" /></svg>