<svg xmlns="http://www.w3.org/2000/svg" width="24" height="24" viewBox="0 0 24 24" fill="none"><path d="M3 8.8C3 7.11984 3 6.27976 3.32698 5.63803C3.6146 5.07354 4.07354 4.6146 4.63803 4.32698C5.27976 4 6.11984 4 7.8 4H16.2C17.8802 4 18.7202 4 19.362 4.32698C19.9265 4.6146 20.3854 5.07354 20.673 5.63803C21 6.27976 21 7.11984 21 8.8V12H3V8.8Z" stroke-width="2" stroke-linecap="round" stroke="#000000" /><path d="M11 8L17 8" stroke-width="2" stroke-linecap="round" stroke-linejoin="round" stroke="#000000" /><path d="M7.0001 8H7" stroke-width="2" stroke-linecap="round" stroke-linejoin="round" stroke="#000000" /><path d="M3 12H21V15.2C21 16.8802 21 17.7202 20.673 18.362C20.3854 18.9265 19.9265 19.3854 19.362 19.673C18.7202 20 17.8802 20 16.2 20H7.8C6.11984 20 5.27976 20 4.63803 19.673C4.07354 19.3854 3.6146 18.9265 3.32698 18.362C3 17.7202 3 16.8802 3 15.2V12Z" stroke-width="2" stroke-linecap="round" stroke="#000000" /><path d="M11 16L17 16" stroke-width="2" stroke-linecap="round" stroke-linejoin="round" stroke="#000000" /><path d="M7.0001 16H7" stroke-width="2" stroke-linecap="round" stroke-linejoin="round" stroke="#000000" /></svg>