<svg xmlns="http://www.w3.org/2000/svg" width="24" height="24" viewBox="0 0 24 24" fill="none"><path fill-rule="evenodd" clip-rule="evenodd" d="M20.8159 8.20153C20.8838 7.77819 20.9178 7.56651 20.8715 7.37264C20.831 7.20323 20.7442 7.04301 20.6243 6.91666C20.4871 6.77205 20.288 6.68355 19.8897 6.50654L12.6498 3.28881C12.4105 3.18246 12.2909 3.12928 12.1665 3.10828C12.0563 3.08966 11.9437 3.08966 11.8335 3.10828C11.7091 3.12928 11.5895 3.18246 11.3502 3.28881L4.11028 6.50654C3.71202 6.68355 3.51289 6.77205 3.3757 6.91666C3.25583 7.04301 3.16898 7.20323 3.12853 7.37264C3.08223 7.56651 3.11619 7.77819 3.18411 8.20153C4.10902 13.9662 5.31878 16.9861 11.2089 20.536C11.4859 20.703 11.6244 20.7865 11.7847 20.8218C11.9204 20.8517 12.0796 20.8517 12.2153 20.8218C12.3756 20.7865 12.5141 20.703 12.7911 20.536C18.6812 16.9861 19.891 13.9662 20.8159 8.20153Z" stroke-width="2" stroke-linejoin="round" stroke="#000000" /></svg>