<svg xmlns="http://www.w3.org/2000/svg" width="24" height="24" viewBox="0 0 24 24" fill="none"><path d="M13 12L13 7M10.5 9.5L13 7L15.5 9.5" stroke-width="2" stroke-linecap="round" stroke-linejoin="round" stroke="#000000" /><path d="M10.6444 20.5H10.3456M11 20.5C11 20.7761 10.7761 21 10.5 21C10.2239 21 10 20.7761 10 20.5C10 20.2239 10.2239 20 10.5 20C10.7761 20 11 20.2239 11 20.5Z" stroke-width="2" stroke-linecap="round" stroke="#000000" /><path d="M16.6444 20.5H16.3456M17 20.5C17 20.7761 16.7761 21 16.5 21C16.2239 21 16 20.7761 16 20.5C16 20.2239 16.2239 20 16.5 20C16.7761 20 17 20.2239 17 20.5Z" stroke-width="2" stroke-linecap="round" stroke="#000000" /><path d="M2.00001 2L3.68265 3.00959C4.19969 3.31981 4.54918 3.84675 4.63384 4.44375L4.85455 6L5.59396 12.4552C5.82532 14.475 7.53496 16 9.56797 16H16.3801C18.4351 16 20.1557 14.4428 20.3602 12.398L21 6" stroke-width="2" stroke-linecap="round" stroke-linejoin="round" stroke="#000000" /></svg>