<svg xmlns="http://www.w3.org/2000/svg" width="24" height="24" viewBox="0 0 24 24" fill="none"><path d="M4.89505 4.88906C4.95393 3.82923 5.83051 3 6.89197 3H17.108C18.1695 3 19.0461 3.82923 19.1049 4.88906L19.8827 18.8891C19.9464 20.0355 19.034 21 17.8858 21H6.11419C4.96602 21 4.05359 20.0355 4.11727 18.8891L4.89505 4.88906Z" stroke-width="2" stroke="#000000" /><path d="M14.8292 7C14.6975 7.37262 14.4943 7.71145 14.2361 8C13.6867 8.61375 12.8884 9 11.9999 9C11.1114 9 10.3132 8.61375 9.76384 8C9.50558 7.71145 9.30236 7.37262 9.17065 7" stroke-width="2" stroke-linecap="round" stroke="#000000" /></svg>