<svg xmlns="http://www.w3.org/2000/svg" width="24" height="24" viewBox="0 0 24 24" fill="none"><path d="M16.5 14C17.1383 12.8069 17.5 11.4454 17.5 10C17.5 8.55459 17.1383 7.1931 16.5 6" stroke-width="2" stroke-linecap="round" stroke="#000000" /><path d="M7.5 14C6.86167 12.8069 6.5 11.4454 6.5 10C6.5 8.55459 6.86167 7.1931 7.5 6" stroke-width="2" stroke-linecap="round" stroke="#000000" /><path d="M20 17C21.2658 14.9808 22 12.5783 22 10C22 7.42174 21.2658 5.01922 20 3" stroke-width="2" stroke-linecap="round" stroke="#000000" /><path d="M4 17C2.73419 14.9808 2 12.5783 2 10C2 7.42174 2.73419 5.01922 4 3" stroke-width="2" stroke-linecap="round" stroke="#000000" /><path d="M12 10V21" stroke-width="2" stroke-linecap="round" stroke="#000000" /><path d="M13 10C13 10.5523 12.5523 11 12 11C11.4477 11 11 10.5523 11 10C11 9.44772 11.4477 9 12 9C12.5523 9 13 9.44772 13 10Z" stroke-width="2" stroke="#000000" /></svg>