<svg xmlns="http://www.w3.org/2000/svg" width="24" height="24" viewBox="0 0 24 24" fill="none"><path d="M11.6314 10.8686L14.2686 8.23137L14.2686 8.23137C15.1254 7.37462 15.5538 6.94624 15.9215 6.9173C16.2407 6.89218 16.5525 7.02136 16.7604 7.26477C17 7.54529 17 8.15111 17 9.36274L17 14.6373C17 15.8489 17 16.4547 16.7604 16.7352C16.5525 16.9786 16.2407 17.1078 15.9215 17.0827C15.5538 17.0538 15.1254 16.6254 14.2686 15.7686L11.6314 13.1314C11.2354 12.7354 11.0373 12.5373 10.9632 12.309C10.8979 12.1082 10.8979 11.8918 10.9632 11.691C11.0373 11.4627 11.2354 11.2646 11.6314 10.8686Z" stroke-width="2" stroke-linecap="round" stroke="#000000" /><path d="M7 7L7 17" stroke-width="2" stroke-linecap="round" stroke-linejoin="round" stroke="#000000" /></svg>