<svg xmlns="http://www.w3.org/2000/svg" width="24" height="24" viewBox="0 0 24 24" fill="none"><path d="M17.7006 9.34619V7.75079C17.7006 4.57472 15.1314 2 11.9891 2C8.84679 2 6.29944 4.57472 6.29944 7.75079V9.34619C6.29944 9.36996 6.27679 9.38701 6.25426 9.38022L5.3216 9.09882C4.58734 8.87728 3.82887 9.3632 3.71372 10.1289C3.64161 10.6084 3.84586 11.087 4.2372 11.3677C5.13378 12.0108 5.67903 12.4353 6.08741 12.8586C6.16649 14.5754 2.24201 16.5348 2.0056 17.3711C1.86375 17.9924 4.46431 19.0438 4.46431 19.0438C4.46431 19.0438 4.97421 19.8774 5.08023 20.1096C5.18624 20.3418 7.65262 20.0854 8.41242 20.6926C8.89551 21.0787 10.2102 21.5684 11.1037 21.8739C11.6887 22.0739 12.2929 22.0068 12.8963 21.8739C13.7898 21.5684 15.1045 21.0787 15.5876 20.6926C16.3474 20.0854 18.8138 20.3418 18.9198 20.1096C19.0258 19.8774 19.5357 19.0438 19.5357 19.0438C19.5357 19.0438 22.1362 17.9924 21.9944 17.3711C21.758 16.5348 17.8335 14.5754 17.9126 12.8586C18.321 12.4353 18.8662 12.0108 19.7628 11.3677C20.1541 11.087 20.3584 10.6084 20.2863 10.1289C20.1711 9.3632 19.4127 8.87728 18.6784 9.09882L17.7457 9.38022C17.7232 9.38701 17.7006 9.36996 17.7006 9.34619Z" stroke-width="2" stroke-linejoin="round" stroke="#000000" /></svg>