<svg xmlns="http://www.w3.org/2000/svg" width="24" height="24" viewBox="0 0 24 24" fill="none"><path d="M16 3H4C3.44772 3 3 3.44772 3 4V16C3 16.5523 3.44772 17 4 17H7V20C7 20.5523 7.44772 21 8 21H20C20.5523 21 21 20.5523 21 20V8C21 7.44772 20.5523 7 20 7H17V4C17 3.44772 16.5523 3 16 3Z" stroke-width="2" stroke-linejoin="round" stroke-linecap="round" stroke="#000000" /><path d="M7 10V8C7 7.44772 7.44772 7 8 7H10" stroke-width="2" stroke-linecap="round" stroke-linejoin="round" stroke="#000000" /><path d="M14 7H16C16.5523 7 17 7.44772 17 8V10" stroke-width="2" stroke-linecap="round" stroke-linejoin="round" stroke="#000000" /><path d="M17 14V16C17 16.5523 16.5523 17 16 17H14" stroke-width="2" stroke-linecap="round" stroke-linejoin="round" stroke="#000000" /><path d="M7 14V16C7 16.5523 7.44772 17 8 17H10" stroke-width="2" stroke-linecap="round" stroke-linejoin="round" stroke="#000000" /></svg>