<svg xmlns="http://www.w3.org/2000/svg" width="24" height="24" viewBox="0 0 24 24" fill="none"><path d="M19 7H20C20.5523 7 21 7.44772 21 8V20C21 20.5523 20.5523 21 20 21H8C7.44772 21 7 20.5523 7 20V18.5" stroke-width="2" stroke-linecap="round" stroke-linejoin="round" stroke="#000000" /><path d="M3 5V4C3 3.44772 3.44772 3 4 3H5" stroke-width="2" stroke-linecap="round" stroke-linejoin="round" stroke="#000000" /><path d="M9 3H11" stroke-width="2" stroke-linecap="round" stroke-linejoin="round" stroke="#000000" /><path d="M15 3H16C16.5523 3 17 3.44772 17 4V5" stroke-width="2" stroke-linecap="round" stroke-linejoin="round" stroke="#000000" /><path d="M17 9V11" stroke-width="2" stroke-linecap="round" stroke-linejoin="round" stroke="#000000" /><path d="M17 15V16C17 16.5523 16.5523 17 16 17H15" stroke-width="2" stroke-linecap="round" stroke-linejoin="round" stroke="#000000" /><path d="M11 17H9" stroke-width="2" stroke-linecap="round" stroke-linejoin="round" stroke="#000000" /><path d="M5 17H4C3.44772 17 3 16.5523 3 16V15" stroke-width="2" stroke-linecap="round" stroke-linejoin="round" stroke="#000000" /><path d="M3 9V11" stroke-width="2" stroke-linecap="round" stroke-linejoin="round" stroke="#000000" /></svg>