<svg xmlns="http://www.w3.org/2000/svg" width="24" height="24" viewBox="0 0 24 24" fill="none"><path d="M3 6C3 5.44772 3.44772 5 4 5H16.2C17.8802 5 18.7202 5 19.362 5.32698C19.9265 5.6146 20.3854 6.07354 20.673 6.63803C21 7.27976 21 8.11984 21 9.8V16C21 16.93 21 17.395 20.8978 17.7765C20.6204 18.8117 19.8117 19.6204 18.7765 19.8978C18.395 20 17.93 20 17 20" stroke-width="2" stroke-linecap="round" stroke="#000000" /><path d="M5 19C5 19.5523 4.55228 20 4 20C3.44772 20 3 19.5523 3 19C3 18.4477 3.44772 18 4 18C4.55228 18 5 18.4477 5 19Z" stroke-width="2" stroke="#000000" /><path d="M8.89998 20C8.96557 19.6769 9 19.3425 9 19C9 16.2386 6.76142 14 4 14C3.65753 14 3.32311 14.0344 3 14.1" stroke-width="2" stroke-linecap="round" stroke="#000000" /><path d="M12.9451 20C12.9814 19.6717 13 19.338 13 19C13 14.0294 8.97056 10 4 10C3.66199 10 3.32833 10.0186 3 10.0549" stroke-width="2" stroke-linecap="round" stroke="#000000" /></svg>