<svg xmlns="http://www.w3.org/2000/svg" width="24" height="24" viewBox="0 0 24 24" fill="none"><path d="M15.209 5.0012L16.7619 10.7968L4.8563 13.0251C4.34268 13.1212 3.84164 12.8057 3.7064 12.301L3.15047 10.2262C3.01523 9.72152 3.29139 9.19775 3.78426 9.0242L15.209 5.0012Z" stroke-width="2" stroke-linecap="round" stroke-linejoin="round" stroke="#000000" /><path d="M15.209 5.0012C15.0661 4.46774 15.3826 3.9194 15.9161 3.77646L17.848 3.25882C18.3814 3.11588 18.9298 3.43246 19.0727 3.96593L20.6256 9.76148C20.7686 10.2949 20.452 10.8433 19.9185 10.9862L17.9867 11.5039C17.4532 11.6468 16.9049 11.3302 16.7619 10.7968L15.209 5.0012Z" stroke-width="2" stroke-linecap="round" stroke-linejoin="round" stroke="#000000" /><path d="M6 20.9999L10.4827 15.0231M18 20.9999L13.5173 15.0231" stroke-width="2" stroke-linecap="round" stroke-linejoin="round" stroke="#000000" /><circle cx="12" cy="13.722" r="2" stroke-width="2" stroke-linecap="round" stroke-linejoin="round" stroke="#000000" /><path d="M12 16V20" stroke-width="2" stroke-linecap="round" stroke-linejoin="round" stroke="#000000" /></svg>