<svg xmlns="http://www.w3.org/2000/svg" width="24" height="24" viewBox="0 0 24 24" fill="none"><path d="M21 16.5V7.5C21 6.10218 21 5.40326 20.7716 4.85195C20.4672 4.11687 19.8831 3.53284 19.1481 3.22836C18.5967 3 17.8978 3 16.5 3H7.8C6.11984 3 5.27976 3 4.63803 3.32698C4.07354 3.6146 3.6146 4.07354 3.32698 4.63803C3 5.27976 3 6.11984 3 7.8V16.2C3 17.8802 3 18.7202 3.32698 19.362C3.6146 19.9265 4.07354 20.3854 4.63803 20.673C5.27976 21 6.11984 21 7.8 21H16.5C17.8978 21 18.5967 21 19.1481 20.7716C19.8831 20.4672 20.4672 19.8831 20.7716 19.1481C21 18.5967 21 17.8978 21 16.5Z" stroke-width="2" stroke-linecap="round" stroke-linejoin="round" stroke="#000000" /><path d="M8 15L11 12L8 9" stroke-width="2" stroke-linecap="round" stroke-linejoin="round" stroke="#000000" /><path d="M13 15L16 15" stroke-width="2" stroke-linecap="round" stroke-linejoin="round" stroke="#000000" /></svg>