<svg xmlns="http://www.w3.org/2000/svg" width="24" height="24" viewBox="0 0 24 24" fill="none"><path d="M21 9.17065C19.8348 9.58249 19 10.6937 19 11.9999C19 13.3062 19.8348 14.4174 21 14.8292V17.4C21 17.9601 21 18.2401 20.891 18.454C20.7951 18.6422 20.6422 18.7951 20.454 18.891C20.2401 19 19.9601 19 19.4 19H4.6C4.03995 19 3.75992 19 3.54601 18.891C3.35785 18.7951 3.20487 18.6422 3.10899 18.454C3 18.2401 3 17.9601 3 17.4V14.8292C4.16519 14.4174 5 13.3061 5 11.9999C5 10.6937 4.16519 9.58244 3 9.1706V6.6C3 6.03995 3 5.75992 3.10899 5.54601C3.20487 5.35785 3.35785 5.20487 3.54601 5.10899C3.75992 5 4.03995 5 4.6 5H19.4C19.9601 5 20.2401 5 20.454 5.10899C20.6422 5.20487 20.7951 5.35785 20.891 5.54601C21 5.75992 21 6.03995 21 6.6V9.17065Z" stroke-width="2" stroke-linejoin="round" stroke="#000000" /><path d="M15 5V7" stroke-width="2" stroke-linecap="round" stroke-linejoin="round" stroke="#000000" /><path d="M15 11V13" stroke-width="2" stroke-linecap="round" stroke-linejoin="round" stroke="#000000" /><path d="M15 17V19" stroke-width="2" stroke-linecap="round" stroke-linejoin="round" stroke="#000000" /></svg>