<svg xmlns="http://www.w3.org/2000/svg" width="24" height="24" viewBox="0 0 24 24" fill="none"><path d="M4 7H20L18.3717 16.9734C18.1382 18.4036 18.0214 19.1186 17.6663 19.6554C17.3532 20.1286 16.9124 20.5032 16.395 20.736C15.808 21 15.0835 21 13.6344 21H10.3656C8.91653 21 8.192 21 7.605 20.736C7.08759 20.5032 6.64678 20.1286 6.33372 19.6554C5.97855 19.1186 5.86181 18.4036 5.62832 16.9734L4 7Z" stroke-width="2" stroke="#000000" /><path d="M3 7H21" stroke-width="2" stroke-linecap="round" stroke="#000000" /><path d="M10 12V16" stroke-width="2" stroke-linecap="round" stroke-linejoin="round" stroke="#000000" /><path d="M14 12V16" stroke-width="2" stroke-linecap="round" stroke-linejoin="round" stroke="#000000" /><path d="M7 5C7 3.89543 7.89543 3 9 3H15C16.1046 3 17 3.89543 17 5V7H7V5Z" stroke-width="2" stroke-linejoin="round" stroke="#000000" /></svg>