<svg xmlns="http://www.w3.org/2000/svg" width="24" height="24" viewBox="0 0 24 24" fill="none"><path d="M10.7094 4.68203C11.1733 3.81276 11.4053 3.37812 11.7127 3.23763C11.9804 3.11527 12.2884 3.11706 12.5546 3.24252C12.8603 3.38657 13.0873 3.82387 13.5411 4.69847L20.7874 18.6631C21.188 19.4352 21.3883 19.8212 21.3452 20.1358C21.3076 20.4103 21.1577 20.657 20.9313 20.8169C20.672 21 20.237 21 19.3672 21H4.6676C3.78776 21 3.34785 21 3.08758 20.8149C2.86043 20.6533 2.71104 20.4042 2.67544 20.1277C2.63465 19.8109 2.84179 19.4228 3.25606 18.6466L10.7094 4.68203Z" stroke-width="2" stroke-linejoin="round" stroke="#000000" /></svg>