<svg xmlns="http://www.w3.org/2000/svg" width="24" height="24" viewBox="0 0 24 24" fill="none"><path d="M9.89105 4.61036C10.1677 4.12043 10.306 3.87546 10.4316 3.72712C11.2525 2.75763 12.7475 2.75763 13.5684 3.72712C13.694 3.87546 13.8323 4.12043 14.1089 4.61036C14.2292 4.82333 14.2893 4.92982 14.3544 5.02049C14.7619 5.58834 15.4301 5.91013 16.1282 5.87471C16.2396 5.86905 16.3604 5.84966 16.6018 5.81089C17.1574 5.72168 17.4351 5.67708 17.6294 5.68279C18.8992 5.72012 19.8314 6.889 19.5852 8.13526C19.5475 8.32595 19.4422 8.58682 19.2316 9.10856C19.1401 9.33535 19.0943 9.44875 19.064 9.55616C18.8742 10.2288 19.0392 10.9519 19.5021 11.4756C19.576 11.5592 19.6665 11.6415 19.8473 11.8061C20.2634 12.1848 20.4715 12.3742 20.5882 12.5296C21.3507 13.5457 21.018 15.0032 19.8902 15.5878C19.7176 15.6772 19.448 15.7576 18.9088 15.9182C18.6744 15.9881 18.5572 16.023 18.4543 16.0663C17.81 16.3372 17.3476 16.9171 17.2268 17.6055C17.2075 17.7154 17.1996 17.8375 17.1836 18.0815C17.147 18.6429 17.1287 18.9237 17.0799 19.1118C16.7609 20.3415 15.4139 20.9901 14.2537 20.4728C14.0762 20.3937 13.8453 20.233 13.3835 19.9116C13.1827 19.7719 13.0823 19.702 12.9844 19.6486C12.3708 19.3138 11.6292 19.3138 11.0156 19.6486C10.9176 19.702 10.8173 19.7719 10.6165 19.9116C10.1547 20.233 9.92383 20.3937 9.7463 20.4728C8.58607 20.9901 7.23907 20.3415 6.92013 19.1118C6.87133 18.9237 6.853 18.6429 6.81635 18.0815C6.80042 17.8375 6.79246 17.7154 6.77317 17.6055C6.65238 16.9171 6.18996 16.3372 5.54566 16.0663C5.44278 16.023 5.32559 15.9881 5.09121 15.9182C4.552 15.7576 4.28239 15.6772 4.10982 15.5878C2.98198 15.0032 2.6493 13.5457 3.41182 12.5296C3.52849 12.3742 3.73654 12.1848 4.15264 11.8061C4.33351 11.6415 4.42395 11.5592 4.49787 11.4756C4.9608 10.9519 5.12583 10.2288 4.93596 9.55616C4.90564 9.44875 4.85987 9.33535 4.76834 9.10856C4.55776 8.58682 4.45247 8.32595 4.4148 8.13526C4.16863 6.889 5.10079 5.72012 6.37058 5.68279C6.56486 5.67708 6.84262 5.72168 7.39814 5.81089C7.63962 5.84966 7.76036 5.86905 7.87182 5.87471C8.56988 5.91013 9.23808 5.58834 9.64562 5.02049C9.71069 4.92982 9.77081 4.82333 9.89105 4.61036Z" stroke-width="2.05511" stroke="#000000" /><path d="M9 12L11 14L15 10" stroke-width="2" stroke-linecap="round" stroke-linejoin="round" stroke="#000000" /></svg>