<svg xmlns="http://www.w3.org/2000/svg" width="24" height="24" viewBox="0 0 24 24" fill="none"><path d="M18.3716 4C15.0279 4 13.4448 8.25207 13.4448 8.25207L13.7036 8.62135C14.0005 8.44663 14.3557 8.25207 14.7666 8.25207C15.2131 8.25207 15.5836 8.57653 15.5836 9.43238C15.5836 10.8497 13.937 14.3331 12.4579 14.3331C11.8009 14.3331 11.5066 13.2852 11.0804 11.3912C10.9357 10.8372 10.682 9.41733 10.3142 7.13665C9.97172 5.0231 9.72811 4.17717 8.51539 4.17717C5.7323 4.17717 3 7.99005 3 7.99005L3.39574 8.80108C3.69263 8.62636 4.04529 8.42924 4.56277 8.42924C5.54968 8.42924 5.64864 9.5072 6.21442 11.5034C6.72431 13.335 7.22661 15.1342 7.74421 16.9982C8.2643 18.8622 9.33237 20 10.6465 20C12.6178 20 14.5155 18.3556 17.0931 15.0743C18.293 13.5621 19.5565 11.531 20.2186 10.1011C20.8883 8.65881 21 7.43111 21 6.86716C21 5.23026 20.3429 4 18.3716 4Z" stroke-width="2" stroke-linejoin="round" stroke="#000000" /></svg>