<svg xmlns="http://www.w3.org/2000/svg" width="24" height="24" viewBox="0 0 24 24" fill="none"><path d="M16 16V18.4111C16 19.2684 16 19.697 15.8195 19.9551C15.6618 20.1805 15.4183 20.331 15.1462 20.3712C14.8345 20.4173 14.4512 20.2256 13.6845 19.8422L6.68328 16.3416C6.2274 16.1137 5.99945 15.9997 5.80172 15.8697C4.81615 15.2213 4.16703 14.171 4.02791 12.9996C4 12.7645 4 12.5097 4 12C4 11.4903 4 11.2355 4.02791 11.0004C4.16703 9.82897 4.81615 8.77867 5.80172 8.13035C5.99945 8.00027 6.2274 7.8863 6.68328 7.65836L7 7.5M10.6438 5.67808L13.6845 4.15777C14.4512 3.77441 14.8345 3.58273 15.1462 3.62877C15.4183 3.66898 15.6618 3.81949 15.8195 4.04489C16 4.30303 16 4.73164 16 5.58885V11" stroke-width="2" stroke-linecap="round" stroke-linejoin="round" stroke="#000000" /><path d="M4 4L20 20" stroke-width="2" stroke-linecap="round" stroke="#000000" /></svg>