<svg xmlns="http://www.w3.org/2000/svg" width="24" height="24" viewBox="0 0 24 24" fill="none"><path d="M3 7H18C19.6569 7 21 8.34315 21 10V18C21 19.6569 19.6569 21 18 21H6C4.34315 21 3 19.6569 3 18L3 7ZM3 7V5" stroke-width="2" stroke-linecap="round" stroke-linejoin="round" stroke="#000000" /><path d="M16 3H5C3.89543 3 3 3.89543 3 5C3 6.10457 3.89543 7 5 7H18" stroke-width="2" stroke-linecap="round" stroke-linejoin="round" stroke="#000000" /><path d="M17 14C17 14.5523 16.5523 15 16 15C15.4477 15 15 14.5523 15 14C15 13.4477 15.4477 13 16 13C16.5523 13 17 13.4477 17 14Z" stroke-width="2" stroke="#000000" /></svg>