<svg xmlns="http://www.w3.org/2000/svg" width="24" height="24" viewBox="0 0 24 24" fill="none"><path d="M3 7H18C19.6569 7 21 8.34315 21 10V18C21 19.6569 19.6569 21 18 21H6C4.34315 21 3 19.6569 3 18L3 7ZM3 7V5" stroke-width="2" stroke-linecap="round" stroke-linejoin="round" stroke="#000000" /><path d="M5 3H16V7H5C3.89543 7 3 6.10457 3 5C3 3.89543 3.89543 3 5 3Z" stroke-width="2" stroke-linecap="round" stroke-linejoin="round" stroke="#000000" /><path d="M20 11H21V17H20C18.3431 17 17 15.6569 17 14C17 12.3431 18.3431 11 20 11Z" stroke-width="2" stroke-linecap="round" stroke-linejoin="round" stroke="#000000" /></svg>