<svg xmlns="http://www.w3.org/2000/svg" width="24" height="24" viewBox="0 0 24 24" fill="none"><path d="M4 16L20 16C20.5523 16 21 16.4477 21 17V20C21 20.5523 20.5523 21 20 21L4 21C3.44772 21 3 20.5523 3 20L3 17C3 16.4477 3.44772 16 4 16Z" stroke-width="2" stroke-linecap="round" stroke-linejoin="round" stroke="#000000" /><path d="M19 16L19 13" stroke-width="2" stroke-linecap="round" stroke-linejoin="round" stroke="#000000" /><path d="M16 21L16 16" stroke-width="2" stroke-linecap="round" stroke-linejoin="round" stroke="#000000" /><path d="M8 21L8 16" stroke-width="2" stroke-linecap="round" stroke-linejoin="round" stroke="#000000" /><path d="M5 16L5 13" stroke-width="2" stroke-linecap="round" stroke-linejoin="round" stroke="#000000" /><path d="M4 12V11C4 10.4477 4.44772 10 5 10H6.72302C6.90426 10 7.0821 9.95074 7.23751 9.85749L11.4855 7.3087C11.8022 7.11869 12.1978 7.11869 12.5145 7.3087L16.7625 9.85749C16.9179 9.95074 17.0957 10 17.277 10H19C19.5523 10 20 10.4477 20 11V12C20 12.5523 19.5523 13 19 13H5C4.44772 13 4 12.5523 4 12Z" stroke-width="2" stroke-linecap="round" stroke-linejoin="round" stroke="#000000" /><path d="M12 7L12 3" stroke-width="2" stroke-linecap="round" stroke-linejoin="round" stroke="#000000" /><path d="M12 4L13.7042 3.31834C14.2024 3.11906 14.7667 3.17782 15.2132 3.47546C15.6997 3.79982 16.3228 3.83861 16.8458 3.57711L18 3" stroke-width="2" stroke-linecap="round" stroke-linejoin="round" stroke="#000000" /></svg>