<svg xmlns="http://www.w3.org/2000/svg" width="24" height="24" viewBox="0 0 24 24" fill="none"><path d="M13 20C13 20.5523 12.5523 21 12 21C11.4477 21 11 20.5523 11 20C11 19.4477 11.4477 19 12 19C12.5523 19 13 19.4477 13 20Z" stroke-width="2" stroke="#000000" /><path d="M8.5 14.7533C9.568 14.2693 10.7528 14 12 14C12.7928 14 13.5604 14.1088 14.2887 14.3124" stroke-width="2" stroke-linecap="round" stroke="#000000" /><path d="M5.5 10.7019C6.65659 10.0469 7.92645 9.56134 9.27392 9.28004M18.5 10.7019C17.1714 9.94948 15.6933 9.42067 14.1199 9.16821" stroke-width="2" stroke-linecap="round" stroke="#000000" /><path d="M3 6.34286C3.69183 5.95082 4.41406 5.60277 5.1625 5.30274M21 6.38264C17.6857 4.48472 13.7888 3.70252 10 4.10388" stroke-width="2" stroke-linecap="round" stroke="#000000" /><path d="M3 3L19 19" stroke-width="2" stroke-linecap="round" stroke="#000000" /></svg>