<svg xmlns="http://www.w3.org/2000/svg" width="24" height="24" viewBox="0 0 24 24" fill="none"><path d="M11.9895 18.7931C11.9895 18.7931 18.2548 18.7931 19.8089 18.3793C20.6839 18.1448 21.342 17.469 21.573 16.6345C22 15.1034 22 11.8828 22 11.8828C22 11.8828 22 8.68276 21.573 7.16552C21.342 6.31034 20.6839 5.64828 19.8089 5.42069C18.2548 5 11.9895 5 11.9895 5C11.9895 5 5.73819 5 4.19111 5.42069C3.33007 5.64828 2.65803 6.31034 2.41302 7.16552C2 8.68276 2 11.8828 2 11.8828C2 11.8828 2 15.1034 2.41302 16.6345C2.65803 17.469 3.33007 18.1448 4.19111 18.3793C5.73819 18.7931 11.9895 18.7931 11.9895 18.7931Z" stroke-width="2" stroke="#000000" /><path d="M15.1035 11.8966L9.93104 8.96558V14.8276L15.1035 11.8966Z" fill="#000000" /></svg>