<svg xmlns="http://www.w3.org/2000/svg" width="24" height="24" viewBox="0 0 24 24" fill="none"><path d="M6.85538 8.8595L3.96 12.72C3.65102 13.132 3.49652 13.338 3.50011 13.5104C3.50323 13.6604 3.57358 13.8012 3.69175 13.8937C3.82754 14 4.08503 14 4.6 14H11.2C11.48 14 11.62 14 11.727 14.0545C11.8211 14.1024 11.8976 14.1789 11.9455 14.273C12 14.38 12 14.52 12 14.8V19.6C12 20.3311 12 20.6966 12.134 20.8406C12.2498 20.9651 12.4211 21.0222 12.5885 20.9921C12.782 20.9573 13.0013 20.6649 13.44 20.08L15.375 17.5M8.97661 6.03119L10.56 3.92C10.9987 3.33512 11.218 3.04268 11.4115 3.00789C11.5789 2.97779 11.7502 3.03487 11.866 3.15939C12 3.30335 12 3.6689 12 4.4V9.2C12 9.48003 12 9.62004 12.0545 9.727C12.1024 9.82108 12.1789 9.89757 12.273 9.9455C12.38 10 12.52 10 12.8 10H19.4C19.915 10 20.1725 10 20.3082 10.1063C20.4264 10.1988 20.4968 10.3396 20.4999 10.4896C20.5035 10.662 20.349 10.868 20.04 11.28L18 14L17.5593 14.5875" stroke-width="2" stroke-linecap="round" stroke-linejoin="round" stroke="#000000" /><path d="M3 5L19 21" stroke-width="2" stroke-linecap="round" stroke="#000000" /></svg>